<?xml version="1.0" encoding="UTF-8" standalone="no"?>
<!DOCTYPE svg PUBLIC "-//W3C//DTD SVG 1.1//EN"
 "http://www.w3.org/Graphics/SVG/1.1/DTD/svg11.dtd">
<!-- Generated by graphviz version 2.47.0 (20210316.0004)
 -->
<!-- Title: dbml Pages: 1 -->
<svg width="779pt" height="5978pt"
 viewBox="0.00 0.00 778.75 5977.51" xmlns="http://www.w3.org/2000/svg" xmlns:xlink="http://www.w3.org/1999/xlink">
<g id="graph0" class="graph" transform="scale(1 1) rotate(0) translate(4 5973.51)">
<title>dbml</title>
<!-- event -->
<g id="event" class="node">
<title>event</title>
<ellipse fill="none" stroke="black" stroke-width="0" cx="385.37" cy="-2209" rx="385.25" ry="2209"/>
<polygon fill="#1d71b8" stroke="transparent" points="115.37,-3709 115.37,-3769 656.37,-3769 656.37,-3709 115.37,-3709"/>
<polygon fill="none" stroke="#29235c" points="115.37,-3709 115.37,-3769 656.37,-3769 656.37,-3709 115.37,-3709"/>
<text text-anchor="start" x="284.49" y="-3730.2" font-family="Helvetica,sans-Serif" font-weight="bold" font-size="32.00" fill="#ffffff"> &#160;&#160;&#160;&#160;&#160;&#160;event &#160;&#160;&#160;&#160;&#160;&#160;</text>
<polygon fill="#e7e2dd" stroke="transparent" points="115.37,-3649 115.37,-3709 656.37,-3709 656.37,-3649 115.37,-3649"/>
<polygon fill="none" stroke="#29235c" points="115.37,-3649 115.37,-3709 656.37,-3709 656.37,-3649 115.37,-3649"/>
<text text-anchor="start" x="126.37" y="-3669.2" font-family="Helvetica,sans-Serif" font-size="32.00" fill="#29235c">_fivetran_deleted &#160;&#160;&#160;</text>
<text text-anchor="start" x="517.33" y="-3670.2" font-family="Helvetica,sans-Serif" font-style="italic" font-size="32.00" fill="#29235c">unknown</text>
<polygon fill="#e7e2dd" stroke="transparent" points="115.37,-3589 115.37,-3649 656.37,-3649 656.37,-3589 115.37,-3589"/>
<polygon fill="none" stroke="#29235c" points="115.37,-3589 115.37,-3649 656.37,-3649 656.37,-3589 115.37,-3589"/>
<text text-anchor="start" x="126.37" y="-3609.2" font-family="Helvetica,sans-Serif" font-size="32.00" fill="#29235c">_fivetran_synced &#160;&#160;&#160;</text>
<text text-anchor="start" x="517.33" y="-3610.2" font-family="Helvetica,sans-Serif" font-style="italic" font-size="32.00" fill="#29235c">unknown</text>
<polygon fill="#e7e2dd" stroke="transparent" points="115.37,-3529 115.37,-3589 656.37,-3589 656.37,-3529 115.37,-3529"/>
<polygon fill="none" stroke="#29235c" points="115.37,-3529 115.37,-3589 656.37,-3589 656.37,-3529 115.37,-3529"/>
<text text-anchor="start" x="126.37" y="-3549.2" font-family="Helvetica,sans-Serif" font-size="32.00" fill="#29235c">amplitude_id &#160;&#160;&#160;</text>
<text text-anchor="start" x="517.33" y="-3550.2" font-family="Helvetica,sans-Serif" font-style="italic" font-size="32.00" fill="#29235c">unknown</text>
<polygon fill="#e7e2dd" stroke="transparent" points="115.37,-3469 115.37,-3529 656.37,-3529 656.37,-3469 115.37,-3469"/>
<polygon fill="none" stroke="#29235c" points="115.37,-3469 115.37,-3529 656.37,-3529 656.37,-3469 115.37,-3469"/>
<text text-anchor="start" x="126.37" y="-3489.2" font-family="Helvetica,sans-Serif" font-size="32.00" fill="#29235c">ad_id &#160;&#160;&#160;</text>
<text text-anchor="start" x="517.33" y="-3490.2" font-family="Helvetica,sans-Serif" font-style="italic" font-size="32.00" fill="#29235c">unknown</text>
<polygon fill="#e7e2dd" stroke="transparent" points="115.37,-3409 115.37,-3469 656.37,-3469 656.37,-3409 115.37,-3409"/>
<polygon fill="none" stroke="#29235c" points="115.37,-3409 115.37,-3469 656.37,-3469 656.37,-3409 115.37,-3409"/>
<text text-anchor="start" x="126.27" y="-3429.2" font-family="Helvetica,sans-Serif" font-size="32.00" fill="#29235c">amplitude_attribution_ids &#160;&#160;&#160;</text>
<text text-anchor="start" x="517.35" y="-3430.2" font-family="Helvetica,sans-Serif" font-style="italic" font-size="32.00" fill="#29235c">unknown</text>
<polygon fill="#e7e2dd" stroke="transparent" points="115.37,-3349 115.37,-3409 656.37,-3409 656.37,-3349 115.37,-3349"/>
<polygon fill="none" stroke="#29235c" points="115.37,-3349 115.37,-3409 656.37,-3409 656.37,-3349 115.37,-3349"/>
<text text-anchor="start" x="126.37" y="-3369.2" font-family="Helvetica,sans-Serif" font-size="32.00" fill="#29235c">app &#160;&#160;&#160;</text>
<text text-anchor="start" x="517.33" y="-3370.2" font-family="Helvetica,sans-Serif" font-style="italic" font-size="32.00" fill="#29235c">unknown</text>
<polygon fill="#e7e2dd" stroke="transparent" points="115.37,-3289 115.37,-3349 656.37,-3349 656.37,-3289 115.37,-3289"/>
<polygon fill="none" stroke="#29235c" points="115.37,-3289 115.37,-3349 656.37,-3349 656.37,-3289 115.37,-3289"/>
<text text-anchor="start" x="126.37" y="-3309.2" font-family="Helvetica,sans-Serif" font-size="32.00" fill="#29235c">city &#160;&#160;&#160;</text>
<text text-anchor="start" x="517.33" y="-3310.2" font-family="Helvetica,sans-Serif" font-style="italic" font-size="32.00" fill="#29235c">unknown</text>
<polygon fill="#e7e2dd" stroke="transparent" points="115.37,-3229 115.37,-3289 656.37,-3289 656.37,-3229 115.37,-3229"/>
<polygon fill="none" stroke="#29235c" points="115.37,-3229 115.37,-3289 656.37,-3289 656.37,-3229 115.37,-3229"/>
<text text-anchor="start" x="126.37" y="-3249.2" font-family="Helvetica,sans-Serif" font-size="32.00" fill="#29235c">client_event_time &#160;&#160;&#160;</text>
<text text-anchor="start" x="517.33" y="-3250.2" font-family="Helvetica,sans-Serif" font-style="italic" font-size="32.00" fill="#29235c">unknown</text>
<polygon fill="#e7e2dd" stroke="transparent" points="115.37,-3169 115.37,-3229 656.37,-3229 656.37,-3169 115.37,-3169"/>
<polygon fill="none" stroke="#29235c" points="115.37,-3169 115.37,-3229 656.37,-3229 656.37,-3169 115.37,-3169"/>
<text text-anchor="start" x="126.37" y="-3189.2" font-family="Helvetica,sans-Serif" font-size="32.00" fill="#29235c">client_upload_time &#160;&#160;&#160;</text>
<text text-anchor="start" x="517.33" y="-3190.2" font-family="Helvetica,sans-Serif" font-style="italic" font-size="32.00" fill="#29235c">unknown</text>
<polygon fill="#e7e2dd" stroke="transparent" points="115.37,-3109 115.37,-3169 656.37,-3169 656.37,-3109 115.37,-3109"/>
<polygon fill="none" stroke="#29235c" points="115.37,-3109 115.37,-3169 656.37,-3169 656.37,-3109 115.37,-3109"/>
<text text-anchor="start" x="126.37" y="-3129.2" font-family="Helvetica,sans-Serif" font-size="32.00" fill="#29235c">country &#160;&#160;&#160;</text>
<text text-anchor="start" x="517.33" y="-3130.2" font-family="Helvetica,sans-Serif" font-style="italic" font-size="32.00" fill="#29235c">unknown</text>
<polygon fill="#e7e2dd" stroke="transparent" points="115.37,-3049 115.37,-3109 656.37,-3109 656.37,-3049 115.37,-3049"/>
<polygon fill="none" stroke="#29235c" points="115.37,-3049 115.37,-3109 656.37,-3109 656.37,-3049 115.37,-3049"/>
<text text-anchor="start" x="126.37" y="-3069.2" font-family="Helvetica,sans-Serif" font-size="32.00" fill="#29235c">data &#160;&#160;&#160;</text>
<text text-anchor="start" x="517.33" y="-3070.2" font-family="Helvetica,sans-Serif" font-style="italic" font-size="32.00" fill="#29235c">unknown</text>
<polygon fill="#e7e2dd" stroke="transparent" points="115.37,-2989 115.37,-3049 656.37,-3049 656.37,-2989 115.37,-2989"/>
<polygon fill="none" stroke="#29235c" points="115.37,-2989 115.37,-3049 656.37,-3049 656.37,-2989 115.37,-2989"/>
<text text-anchor="start" x="126.37" y="-3009.2" font-family="Helvetica,sans-Serif" font-size="32.00" fill="#29235c">device_brand &#160;&#160;&#160;</text>
<text text-anchor="start" x="517.33" y="-3010.2" font-family="Helvetica,sans-Serif" font-style="italic" font-size="32.00" fill="#29235c">unknown</text>
<polygon fill="#e7e2dd" stroke="transparent" points="115.37,-2929 115.37,-2989 656.37,-2989 656.37,-2929 115.37,-2929"/>
<polygon fill="none" stroke="#29235c" points="115.37,-2929 115.37,-2989 656.37,-2989 656.37,-2929 115.37,-2929"/>
<text text-anchor="start" x="126.37" y="-2949.2" font-family="Helvetica,sans-Serif" font-size="32.00" fill="#29235c">device_carrier &#160;&#160;&#160;</text>
<text text-anchor="start" x="517.33" y="-2950.2" font-family="Helvetica,sans-Serif" font-style="italic" font-size="32.00" fill="#29235c">unknown</text>
<polygon fill="#e7e2dd" stroke="transparent" points="115.37,-2869 115.37,-2929 656.37,-2929 656.37,-2869 115.37,-2869"/>
<polygon fill="none" stroke="#29235c" points="115.37,-2869 115.37,-2929 656.37,-2929 656.37,-2869 115.37,-2869"/>
<text text-anchor="start" x="126.37" y="-2889.2" font-family="Helvetica,sans-Serif" font-size="32.00" fill="#29235c">device_family &#160;&#160;&#160;</text>
<text text-anchor="start" x="517.33" y="-2890.2" font-family="Helvetica,sans-Serif" font-style="italic" font-size="32.00" fill="#29235c">unknown</text>
<polygon fill="#e7e2dd" stroke="transparent" points="115.37,-2809 115.37,-2869 656.37,-2869 656.37,-2809 115.37,-2809"/>
<polygon fill="none" stroke="#29235c" points="115.37,-2809 115.37,-2869 656.37,-2869 656.37,-2809 115.37,-2809"/>
<text text-anchor="start" x="126.37" y="-2829.2" font-family="Helvetica,sans-Serif" font-size="32.00" fill="#29235c">device_id &#160;&#160;&#160;</text>
<text text-anchor="start" x="517.33" y="-2830.2" font-family="Helvetica,sans-Serif" font-style="italic" font-size="32.00" fill="#29235c">unknown</text>
<polygon fill="#e7e2dd" stroke="transparent" points="115.37,-2749 115.37,-2809 656.37,-2809 656.37,-2749 115.37,-2749"/>
<polygon fill="none" stroke="#29235c" points="115.37,-2749 115.37,-2809 656.37,-2809 656.37,-2749 115.37,-2749"/>
<text text-anchor="start" x="126.37" y="-2769.2" font-family="Helvetica,sans-Serif" font-size="32.00" fill="#29235c">device_manufacturer &#160;&#160;&#160;</text>
<text text-anchor="start" x="517.33" y="-2770.2" font-family="Helvetica,sans-Serif" font-style="italic" font-size="32.00" fill="#29235c">unknown</text>
<polygon fill="#e7e2dd" stroke="transparent" points="115.37,-2689 115.37,-2749 656.37,-2749 656.37,-2689 115.37,-2689"/>
<polygon fill="none" stroke="#29235c" points="115.37,-2689 115.37,-2749 656.37,-2749 656.37,-2689 115.37,-2689"/>
<text text-anchor="start" x="126.37" y="-2709.2" font-family="Helvetica,sans-Serif" font-size="32.00" fill="#29235c">device_model &#160;&#160;&#160;</text>
<text text-anchor="start" x="517.33" y="-2710.2" font-family="Helvetica,sans-Serif" font-style="italic" font-size="32.00" fill="#29235c">unknown</text>
<polygon fill="#e7e2dd" stroke="transparent" points="115.37,-2629 115.37,-2689 656.37,-2689 656.37,-2629 115.37,-2629"/>
<polygon fill="none" stroke="#29235c" points="115.37,-2629 115.37,-2689 656.37,-2689 656.37,-2629 115.37,-2629"/>
<text text-anchor="start" x="126.37" y="-2649.2" font-family="Helvetica,sans-Serif" font-size="32.00" fill="#29235c">device_type &#160;&#160;&#160;</text>
<text text-anchor="start" x="517.33" y="-2650.2" font-family="Helvetica,sans-Serif" font-style="italic" font-size="32.00" fill="#29235c">unknown</text>
<polygon fill="#e7e2dd" stroke="transparent" points="115.37,-2569 115.37,-2629 656.37,-2629 656.37,-2569 115.37,-2569"/>
<polygon fill="none" stroke="#29235c" points="115.37,-2569 115.37,-2629 656.37,-2629 656.37,-2569 115.37,-2569"/>
<text text-anchor="start" x="126.37" y="-2589.2" font-family="Helvetica,sans-Serif" font-size="32.00" fill="#29235c">dma &#160;&#160;&#160;</text>
<text text-anchor="start" x="517.33" y="-2590.2" font-family="Helvetica,sans-Serif" font-style="italic" font-size="32.00" fill="#29235c">unknown</text>
<polygon fill="#e7e2dd" stroke="transparent" points="115.37,-2509 115.37,-2569 656.37,-2569 656.37,-2509 115.37,-2509"/>
<polygon fill="none" stroke="#29235c" points="115.37,-2509 115.37,-2569 656.37,-2569 656.37,-2509 115.37,-2509"/>
<text text-anchor="start" x="126.37" y="-2529.2" font-family="Helvetica,sans-Serif" font-size="32.00" fill="#29235c">id &#160;&#160;&#160;</text>
<text text-anchor="start" x="517.33" y="-2530.2" font-family="Helvetica,sans-Serif" font-style="italic" font-size="32.00" fill="#29235c">unknown</text>
<polygon fill="#e7e2dd" stroke="transparent" points="115.37,-2449 115.37,-2509 656.37,-2509 656.37,-2449 115.37,-2449"/>
<polygon fill="none" stroke="#29235c" points="115.37,-2449 115.37,-2509 656.37,-2509 656.37,-2449 115.37,-2449"/>
<text text-anchor="start" x="126.37" y="-2469.2" font-family="Helvetica,sans-Serif" font-size="32.00" fill="#29235c">event_properties &#160;&#160;&#160;</text>
<text text-anchor="start" x="517.33" y="-2470.2" font-family="Helvetica,sans-Serif" font-style="italic" font-size="32.00" fill="#29235c">unknown</text>
<polygon fill="#e7e2dd" stroke="transparent" points="115.37,-2389 115.37,-2449 656.37,-2449 656.37,-2389 115.37,-2389"/>
<polygon fill="none" stroke="#29235c" points="115.37,-2389 115.37,-2449 656.37,-2449 656.37,-2389 115.37,-2389"/>
<text text-anchor="start" x="126.37" y="-2409.2" font-family="Helvetica,sans-Serif" font-size="32.00" fill="#29235c">event_time &#160;&#160;&#160;</text>
<text text-anchor="start" x="517.33" y="-2410.2" font-family="Helvetica,sans-Serif" font-style="italic" font-size="32.00" fill="#29235c">unknown</text>
<polygon fill="#e7e2dd" stroke="transparent" points="115.37,-2329 115.37,-2389 656.37,-2389 656.37,-2329 115.37,-2329"/>
<polygon fill="none" stroke="#29235c" points="115.37,-2329 115.37,-2389 656.37,-2389 656.37,-2329 115.37,-2329"/>
<text text-anchor="start" x="126.37" y="-2349.2" font-family="Helvetica,sans-Serif" font-size="32.00" fill="#29235c">event_type &#160;&#160;&#160;</text>
<text text-anchor="start" x="517.33" y="-2350.2" font-family="Helvetica,sans-Serif" font-style="italic" font-size="32.00" fill="#29235c">unknown</text>
<polygon fill="#e7e2dd" stroke="transparent" points="115.37,-2269 115.37,-2329 656.37,-2329 656.37,-2269 115.37,-2269"/>
<polygon fill="none" stroke="#29235c" points="115.37,-2269 115.37,-2329 656.37,-2329 656.37,-2269 115.37,-2269"/>
<text text-anchor="start" x="126.37" y="-2289.2" font-family="Helvetica,sans-Serif" font-size="32.00" fill="#29235c">event_type_id &#160;&#160;&#160;</text>
<text text-anchor="start" x="517.33" y="-2290.2" font-family="Helvetica,sans-Serif" font-style="italic" font-size="32.00" fill="#29235c">unknown</text>
<polygon fill="#e7e2dd" stroke="transparent" points="115.37,-2209 115.37,-2269 656.37,-2269 656.37,-2209 115.37,-2209"/>
<polygon fill="none" stroke="#29235c" points="115.37,-2209 115.37,-2269 656.37,-2269 656.37,-2209 115.37,-2209"/>
<text text-anchor="start" x="126.37" y="-2229.2" font-family="Helvetica,sans-Serif" font-size="32.00" fill="#29235c">group_properties &#160;&#160;&#160;</text>
<text text-anchor="start" x="517.33" y="-2230.2" font-family="Helvetica,sans-Serif" font-style="italic" font-size="32.00" fill="#29235c">unknown</text>
<polygon fill="#e7e2dd" stroke="transparent" points="115.37,-2149 115.37,-2209 656.37,-2209 656.37,-2149 115.37,-2149"/>
<polygon fill="none" stroke="#29235c" points="115.37,-2149 115.37,-2209 656.37,-2209 656.37,-2149 115.37,-2149"/>
<text text-anchor="start" x="126.37" y="-2169.2" font-family="Helvetica,sans-Serif" font-size="32.00" fill="#29235c">groups &#160;&#160;&#160;</text>
<text text-anchor="start" x="517.33" y="-2170.2" font-family="Helvetica,sans-Serif" font-style="italic" font-size="32.00" fill="#29235c">unknown</text>
<polygon fill="#e7e2dd" stroke="transparent" points="115.37,-2089 115.37,-2149 656.37,-2149 656.37,-2089 115.37,-2089"/>
<polygon fill="none" stroke="#29235c" points="115.37,-2089 115.37,-2149 656.37,-2149 656.37,-2089 115.37,-2089"/>
<text text-anchor="start" x="126.37" y="-2109.2" font-family="Helvetica,sans-Serif" font-size="32.00" fill="#29235c">idfa &#160;&#160;&#160;</text>
<text text-anchor="start" x="517.33" y="-2110.2" font-family="Helvetica,sans-Serif" font-style="italic" font-size="32.00" fill="#29235c">unknown</text>
<polygon fill="#e7e2dd" stroke="transparent" points="115.37,-2029 115.37,-2089 656.37,-2089 656.37,-2029 115.37,-2029"/>
<polygon fill="none" stroke="#29235c" points="115.37,-2029 115.37,-2089 656.37,-2089 656.37,-2029 115.37,-2029"/>
<text text-anchor="start" x="126.37" y="-2049.2" font-family="Helvetica,sans-Serif" font-size="32.00" fill="#29235c">_insert_id &#160;&#160;&#160;</text>
<text text-anchor="start" x="517.33" y="-2050.2" font-family="Helvetica,sans-Serif" font-style="italic" font-size="32.00" fill="#29235c">unknown</text>
<polygon fill="#e7e2dd" stroke="transparent" points="115.37,-1969 115.37,-2029 656.37,-2029 656.37,-1969 115.37,-1969"/>
<polygon fill="none" stroke="#29235c" points="115.37,-1969 115.37,-2029 656.37,-2029 656.37,-1969 115.37,-1969"/>
<text text-anchor="start" x="126.37" y="-1989.2" font-family="Helvetica,sans-Serif" font-size="32.00" fill="#29235c">ip_address &#160;&#160;&#160;</text>
<text text-anchor="start" x="517.33" y="-1990.2" font-family="Helvetica,sans-Serif" font-style="italic" font-size="32.00" fill="#29235c">unknown</text>
<polygon fill="#e7e2dd" stroke="transparent" points="115.37,-1909 115.37,-1969 656.37,-1969 656.37,-1909 115.37,-1909"/>
<polygon fill="none" stroke="#29235c" points="115.37,-1909 115.37,-1969 656.37,-1969 656.37,-1909 115.37,-1909"/>
<text text-anchor="start" x="126.37" y="-1929.2" font-family="Helvetica,sans-Serif" font-size="32.00" fill="#29235c">is_attribution_event &#160;&#160;&#160;</text>
<text text-anchor="start" x="517.33" y="-1930.2" font-family="Helvetica,sans-Serif" font-style="italic" font-size="32.00" fill="#29235c">unknown</text>
<polygon fill="#e7e2dd" stroke="transparent" points="115.37,-1849 115.37,-1909 656.37,-1909 656.37,-1849 115.37,-1849"/>
<polygon fill="none" stroke="#29235c" points="115.37,-1849 115.37,-1909 656.37,-1909 656.37,-1849 115.37,-1849"/>
<text text-anchor="start" x="126.37" y="-1869.2" font-family="Helvetica,sans-Serif" font-size="32.00" fill="#29235c">language &#160;&#160;&#160;</text>
<text text-anchor="start" x="517.33" y="-1870.2" font-family="Helvetica,sans-Serif" font-style="italic" font-size="32.00" fill="#29235c">unknown</text>
<polygon fill="#e7e2dd" stroke="transparent" points="115.37,-1789 115.37,-1849 656.37,-1849 656.37,-1789 115.37,-1789"/>
<polygon fill="none" stroke="#29235c" points="115.37,-1789 115.37,-1849 656.37,-1849 656.37,-1789 115.37,-1789"/>
<text text-anchor="start" x="126.37" y="-1809.2" font-family="Helvetica,sans-Serif" font-size="32.00" fill="#29235c">library &#160;&#160;&#160;</text>
<text text-anchor="start" x="517.33" y="-1810.2" font-family="Helvetica,sans-Serif" font-style="italic" font-size="32.00" fill="#29235c">unknown</text>
<polygon fill="#e7e2dd" stroke="transparent" points="115.37,-1729 115.37,-1789 656.37,-1789 656.37,-1729 115.37,-1729"/>
<polygon fill="none" stroke="#29235c" points="115.37,-1729 115.37,-1789 656.37,-1789 656.37,-1729 115.37,-1729"/>
<text text-anchor="start" x="126.37" y="-1749.2" font-family="Helvetica,sans-Serif" font-size="32.00" fill="#29235c">location_lat &#160;&#160;&#160;</text>
<text text-anchor="start" x="517.33" y="-1750.2" font-family="Helvetica,sans-Serif" font-style="italic" font-size="32.00" fill="#29235c">unknown</text>
<polygon fill="#e7e2dd" stroke="transparent" points="115.37,-1669 115.37,-1729 656.37,-1729 656.37,-1669 115.37,-1669"/>
<polygon fill="none" stroke="#29235c" points="115.37,-1669 115.37,-1729 656.37,-1729 656.37,-1669 115.37,-1669"/>
<text text-anchor="start" x="126.37" y="-1689.2" font-family="Helvetica,sans-Serif" font-size="32.00" fill="#29235c">location_lng &#160;&#160;&#160;</text>
<text text-anchor="start" x="517.33" y="-1690.2" font-family="Helvetica,sans-Serif" font-style="italic" font-size="32.00" fill="#29235c">unknown</text>
<polygon fill="#e7e2dd" stroke="transparent" points="115.37,-1609 115.37,-1669 656.37,-1669 656.37,-1609 115.37,-1609"/>
<polygon fill="none" stroke="#29235c" points="115.37,-1609 115.37,-1669 656.37,-1669 656.37,-1609 115.37,-1609"/>
<text text-anchor="start" x="126.37" y="-1629.2" font-family="Helvetica,sans-Serif" font-size="32.00" fill="#29235c">os_name &#160;&#160;&#160;</text>
<text text-anchor="start" x="517.33" y="-1630.2" font-family="Helvetica,sans-Serif" font-style="italic" font-size="32.00" fill="#29235c">unknown</text>
<polygon fill="#e7e2dd" stroke="transparent" points="115.37,-1549 115.37,-1609 656.37,-1609 656.37,-1549 115.37,-1549"/>
<polygon fill="none" stroke="#29235c" points="115.37,-1549 115.37,-1609 656.37,-1609 656.37,-1549 115.37,-1549"/>
<text text-anchor="start" x="126.37" y="-1569.2" font-family="Helvetica,sans-Serif" font-size="32.00" fill="#29235c">os_version &#160;&#160;&#160;</text>
<text text-anchor="start" x="517.33" y="-1570.2" font-family="Helvetica,sans-Serif" font-style="italic" font-size="32.00" fill="#29235c">unknown</text>
<polygon fill="#e7e2dd" stroke="transparent" points="115.37,-1489 115.37,-1549 656.37,-1549 656.37,-1489 115.37,-1489"/>
<polygon fill="none" stroke="#29235c" points="115.37,-1489 115.37,-1549 656.37,-1549 656.37,-1489 115.37,-1489"/>
<text text-anchor="start" x="126.37" y="-1509.2" font-family="Helvetica,sans-Serif" font-size="32.00" fill="#29235c">paying &#160;&#160;&#160;</text>
<text text-anchor="start" x="517.33" y="-1510.2" font-family="Helvetica,sans-Serif" font-style="italic" font-size="32.00" fill="#29235c">unknown</text>
<polygon fill="#e7e2dd" stroke="transparent" points="115.37,-1429 115.37,-1489 656.37,-1489 656.37,-1429 115.37,-1429"/>
<polygon fill="none" stroke="#29235c" points="115.37,-1429 115.37,-1489 656.37,-1489 656.37,-1429 115.37,-1429"/>
<text text-anchor="start" x="126.37" y="-1449.2" font-family="Helvetica,sans-Serif" font-size="32.00" fill="#29235c">platform &#160;&#160;&#160;</text>
<text text-anchor="start" x="517.33" y="-1450.2" font-family="Helvetica,sans-Serif" font-style="italic" font-size="32.00" fill="#29235c">unknown</text>
<polygon fill="#e7e2dd" stroke="transparent" points="115.37,-1369 115.37,-1429 656.37,-1429 656.37,-1369 115.37,-1369"/>
<polygon fill="none" stroke="#29235c" points="115.37,-1369 115.37,-1429 656.37,-1429 656.37,-1369 115.37,-1369"/>
<text text-anchor="start" x="126.37" y="-1389.2" font-family="Helvetica,sans-Serif" font-size="32.00" fill="#29235c">processed_time &#160;&#160;&#160;</text>
<text text-anchor="start" x="517.33" y="-1390.2" font-family="Helvetica,sans-Serif" font-style="italic" font-size="32.00" fill="#29235c">unknown</text>
<polygon fill="#e7e2dd" stroke="transparent" points="115.37,-1309 115.37,-1369 656.37,-1369 656.37,-1309 115.37,-1309"/>
<polygon fill="none" stroke="#29235c" points="115.37,-1309 115.37,-1369 656.37,-1369 656.37,-1309 115.37,-1309"/>
<text text-anchor="start" x="126.37" y="-1329.2" font-family="Helvetica,sans-Serif" font-size="32.00" fill="#29235c">project_name &#160;&#160;&#160;</text>
<text text-anchor="start" x="517.33" y="-1330.2" font-family="Helvetica,sans-Serif" font-style="italic" font-size="32.00" fill="#29235c">unknown</text>
<polygon fill="#e7e2dd" stroke="transparent" points="115.37,-1249 115.37,-1309 656.37,-1309 656.37,-1249 115.37,-1249"/>
<polygon fill="none" stroke="#29235c" points="115.37,-1249 115.37,-1309 656.37,-1309 656.37,-1249 115.37,-1249"/>
<text text-anchor="start" x="126.37" y="-1269.2" font-family="Helvetica,sans-Serif" font-size="32.00" fill="#29235c">region &#160;&#160;&#160;</text>
<text text-anchor="start" x="517.33" y="-1270.2" font-family="Helvetica,sans-Serif" font-style="italic" font-size="32.00" fill="#29235c">unknown</text>
<polygon fill="#e7e2dd" stroke="transparent" points="115.37,-1189 115.37,-1249 656.37,-1249 656.37,-1189 115.37,-1189"/>
<polygon fill="none" stroke="#29235c" points="115.37,-1189 115.37,-1249 656.37,-1249 656.37,-1189 115.37,-1189"/>
<text text-anchor="start" x="126.37" y="-1209.2" font-family="Helvetica,sans-Serif" font-size="32.00" fill="#29235c">schema &#160;&#160;&#160;</text>
<text text-anchor="start" x="517.33" y="-1210.2" font-family="Helvetica,sans-Serif" font-style="italic" font-size="32.00" fill="#29235c">unknown</text>
<polygon fill="#e7e2dd" stroke="transparent" points="115.37,-1129 115.37,-1189 656.37,-1189 656.37,-1129 115.37,-1129"/>
<polygon fill="none" stroke="#29235c" points="115.37,-1129 115.37,-1189 656.37,-1189 656.37,-1129 115.37,-1129"/>
<text text-anchor="start" x="126.37" y="-1149.2" font-family="Helvetica,sans-Serif" font-size="32.00" fill="#29235c">server_received_time &#160;&#160;&#160;</text>
<text text-anchor="start" x="517.33" y="-1150.2" font-family="Helvetica,sans-Serif" font-style="italic" font-size="32.00" fill="#29235c">unknown</text>
<polygon fill="#e7e2dd" stroke="transparent" points="115.37,-1069 115.37,-1129 656.37,-1129 656.37,-1069 115.37,-1069"/>
<polygon fill="none" stroke="#29235c" points="115.37,-1069 115.37,-1129 656.37,-1129 656.37,-1069 115.37,-1069"/>
<text text-anchor="start" x="126.37" y="-1089.2" font-family="Helvetica,sans-Serif" font-size="32.00" fill="#29235c">server_upload_time &#160;&#160;&#160;</text>
<text text-anchor="start" x="517.33" y="-1090.2" font-family="Helvetica,sans-Serif" font-style="italic" font-size="32.00" fill="#29235c">unknown</text>
<polygon fill="#e7e2dd" stroke="transparent" points="115.37,-1009 115.37,-1069 656.37,-1069 656.37,-1009 115.37,-1009"/>
<polygon fill="none" stroke="#29235c" points="115.37,-1009 115.37,-1069 656.37,-1069 656.37,-1009 115.37,-1009"/>
<text text-anchor="start" x="126.37" y="-1029.2" font-family="Helvetica,sans-Serif" font-size="32.00" fill="#29235c">session_id &#160;&#160;&#160;</text>
<text text-anchor="start" x="517.33" y="-1030.2" font-family="Helvetica,sans-Serif" font-style="italic" font-size="32.00" fill="#29235c">unknown</text>
<polygon fill="#e7e2dd" stroke="transparent" points="115.37,-949 115.37,-1009 656.37,-1009 656.37,-949 115.37,-949"/>
<polygon fill="none" stroke="#29235c" points="115.37,-949 115.37,-1009 656.37,-1009 656.37,-949 115.37,-949"/>
<text text-anchor="start" x="126.37" y="-969.2" font-family="Helvetica,sans-Serif" font-size="32.00" fill="#29235c">start_version &#160;&#160;&#160;</text>
<text text-anchor="start" x="517.33" y="-970.2" font-family="Helvetica,sans-Serif" font-style="italic" font-size="32.00" fill="#29235c">unknown</text>
<polygon fill="#e7e2dd" stroke="transparent" points="115.37,-889 115.37,-949 656.37,-949 656.37,-889 115.37,-889"/>
<polygon fill="none" stroke="#29235c" points="115.37,-889 115.37,-949 656.37,-949 656.37,-889 115.37,-889"/>
<text text-anchor="start" x="126.37" y="-909.2" font-family="Helvetica,sans-Serif" font-size="32.00" fill="#29235c">user_creation_time &#160;&#160;&#160;</text>
<text text-anchor="start" x="517.33" y="-910.2" font-family="Helvetica,sans-Serif" font-style="italic" font-size="32.00" fill="#29235c">unknown</text>
<polygon fill="#e7e2dd" stroke="transparent" points="115.37,-829 115.37,-889 656.37,-889 656.37,-829 115.37,-829"/>
<polygon fill="none" stroke="#29235c" points="115.37,-829 115.37,-889 656.37,-889 656.37,-829 115.37,-829"/>
<text text-anchor="start" x="126.37" y="-849.2" font-family="Helvetica,sans-Serif" font-size="32.00" fill="#29235c">user_id &#160;&#160;&#160;</text>
<text text-anchor="start" x="517.33" y="-850.2" font-family="Helvetica,sans-Serif" font-style="italic" font-size="32.00" fill="#29235c">unknown</text>
<polygon fill="#e7e2dd" stroke="transparent" points="115.37,-769 115.37,-829 656.37,-829 656.37,-769 115.37,-769"/>
<polygon fill="none" stroke="#29235c" points="115.37,-769 115.37,-829 656.37,-829 656.37,-769 115.37,-769"/>
<text text-anchor="start" x="126.37" y="-789.2" font-family="Helvetica,sans-Serif" font-size="32.00" fill="#29235c">user_properties &#160;&#160;&#160;</text>
<text text-anchor="start" x="517.33" y="-790.2" font-family="Helvetica,sans-Serif" font-style="italic" font-size="32.00" fill="#29235c">unknown</text>
<polygon fill="#e7e2dd" stroke="transparent" points="115.37,-709 115.37,-769 656.37,-769 656.37,-709 115.37,-709"/>
<polygon fill="none" stroke="#29235c" points="115.37,-709 115.37,-769 656.37,-769 656.37,-709 115.37,-709"/>
<text text-anchor="start" x="126.37" y="-729.2" font-family="Helvetica,sans-Serif" font-size="32.00" fill="#29235c">uuid &#160;&#160;&#160;</text>
<text text-anchor="start" x="517.33" y="-730.2" font-family="Helvetica,sans-Serif" font-style="italic" font-size="32.00" fill="#29235c">unknown</text>
<polygon fill="#e7e2dd" stroke="transparent" points="115.37,-649 115.37,-709 656.37,-709 656.37,-649 115.37,-649"/>
<polygon fill="none" stroke="#29235c" points="115.37,-649 115.37,-709 656.37,-709 656.37,-649 115.37,-649"/>
<text text-anchor="start" x="126.37" y="-669.2" font-family="Helvetica,sans-Serif" font-size="32.00" fill="#29235c">version_name &#160;&#160;&#160;</text>
<text text-anchor="start" x="517.33" y="-670.2" font-family="Helvetica,sans-Serif" font-style="italic" font-size="32.00" fill="#29235c">unknown</text>
<polygon fill="none" stroke="#29235c" stroke-width="2" points="113.87,-648 113.87,-3770 656.87,-3770 656.87,-648 113.87,-648"/>
</g>
<!-- event_type -->
<g id="event_type" class="node">
<title>event_type</title>
<ellipse fill="none" stroke="black" stroke-width="0" cx="385.37" cy="-5203" rx="332.18" ry="766.51"/>
<polygon fill="#1d71b8" stroke="transparent" points="152.37,-5683 152.37,-5743 618.37,-5743 618.37,-5683 152.37,-5683"/>
<polygon fill="none" stroke="#29235c" points="152.37,-5683 152.37,-5743 618.37,-5743 618.37,-5683 152.37,-5683"/>
<text text-anchor="start" x="244.86" y="-5704.2" font-family="Helvetica,sans-Serif" font-weight="bold" font-size="32.00" fill="#ffffff"> &#160;&#160;&#160;&#160;&#160;&#160;event_type &#160;&#160;&#160;&#160;&#160;&#160;</text>
<polygon fill="#e7e2dd" stroke="transparent" points="152.37,-5623 152.37,-5683 618.37,-5683 618.37,-5623 152.37,-5623"/>
<polygon fill="none" stroke="#29235c" points="152.37,-5623 152.37,-5683 618.37,-5683 618.37,-5623 152.37,-5623"/>
<text text-anchor="start" x="163.37" y="-5643.2" font-family="Helvetica,sans-Serif" font-size="32.00" fill="#29235c">_fivetran_deleted &#160;&#160;&#160;</text>
<text text-anchor="start" x="479.33" y="-5644.2" font-family="Helvetica,sans-Serif" font-style="italic" font-size="32.00" fill="#29235c">unknown</text>
<polygon fill="#e7e2dd" stroke="transparent" points="152.37,-5563 152.37,-5623 618.37,-5623 618.37,-5563 152.37,-5563"/>
<polygon fill="none" stroke="#29235c" points="152.37,-5563 152.37,-5623 618.37,-5623 618.37,-5563 152.37,-5563"/>
<text text-anchor="start" x="163.37" y="-5583.2" font-family="Helvetica,sans-Serif" font-size="32.00" fill="#29235c">_fivetran_synced &#160;&#160;&#160;</text>
<text text-anchor="start" x="479.33" y="-5584.2" font-family="Helvetica,sans-Serif" font-style="italic" font-size="32.00" fill="#29235c">unknown</text>
<polygon fill="#e7e2dd" stroke="transparent" points="152.37,-5503 152.37,-5563 618.37,-5563 618.37,-5503 152.37,-5503"/>
<polygon fill="none" stroke="#29235c" points="152.37,-5503 152.37,-5563 618.37,-5563 618.37,-5503 152.37,-5503"/>
<text text-anchor="start" x="163.37" y="-5523.2" font-family="Helvetica,sans-Serif" font-size="32.00" fill="#29235c">autohidden &#160;&#160;&#160;</text>
<text text-anchor="start" x="479.33" y="-5524.2" font-family="Helvetica,sans-Serif" font-style="italic" font-size="32.00" fill="#29235c">unknown</text>
<polygon fill="#e7e2dd" stroke="transparent" points="152.37,-5443 152.37,-5503 618.37,-5503 618.37,-5443 152.37,-5443"/>
<polygon fill="none" stroke="#29235c" points="152.37,-5443 152.37,-5503 618.37,-5503 618.37,-5443 152.37,-5443"/>
<text text-anchor="start" x="163.37" y="-5463.2" font-family="Helvetica,sans-Serif" font-size="32.00" fill="#29235c">deleted &#160;&#160;&#160;</text>
<text text-anchor="start" x="479.33" y="-5464.2" font-family="Helvetica,sans-Serif" font-style="italic" font-size="32.00" fill="#29235c">unknown</text>
<polygon fill="#e7e2dd" stroke="transparent" points="152.37,-5383 152.37,-5443 618.37,-5443 618.37,-5383 152.37,-5383"/>
<polygon fill="none" stroke="#29235c" points="152.37,-5383 152.37,-5443 618.37,-5443 618.37,-5383 152.37,-5383"/>
<text text-anchor="start" x="163.37" y="-5403.2" font-family="Helvetica,sans-Serif" font-size="32.00" fill="#29235c">display &#160;&#160;&#160;</text>
<text text-anchor="start" x="479.33" y="-5404.2" font-family="Helvetica,sans-Serif" font-style="italic" font-size="32.00" fill="#29235c">unknown</text>
<polygon fill="#e7e2dd" stroke="transparent" points="152.37,-5323 152.37,-5383 618.37,-5383 618.37,-5323 152.37,-5323"/>
<polygon fill="none" stroke="#29235c" points="152.37,-5323 152.37,-5383 618.37,-5383 618.37,-5323 152.37,-5323"/>
<text text-anchor="start" x="163.37" y="-5343.2" font-family="Helvetica,sans-Serif" font-size="32.00" fill="#29235c">flow_hidden &#160;&#160;&#160;</text>
<text text-anchor="start" x="479.33" y="-5344.2" font-family="Helvetica,sans-Serif" font-style="italic" font-size="32.00" fill="#29235c">unknown</text>
<polygon fill="#e7e2dd" stroke="transparent" points="152.37,-5263 152.37,-5323 618.37,-5323 618.37,-5263 152.37,-5263"/>
<polygon fill="none" stroke="#29235c" points="152.37,-5263 152.37,-5323 618.37,-5323 618.37,-5263 152.37,-5263"/>
<text text-anchor="start" x="163.37" y="-5283.2" font-family="Helvetica,sans-Serif" font-size="32.00" fill="#29235c">hidden &#160;&#160;&#160;</text>
<text text-anchor="start" x="479.33" y="-5284.2" font-family="Helvetica,sans-Serif" font-style="italic" font-size="32.00" fill="#29235c">unknown</text>
<polygon fill="#e7e2dd" stroke="transparent" points="152.37,-5203 152.37,-5263 618.37,-5263 618.37,-5203 152.37,-5203"/>
<polygon fill="none" stroke="#29235c" points="152.37,-5203 152.37,-5263 618.37,-5263 618.37,-5203 152.37,-5203"/>
<text text-anchor="start" x="163.37" y="-5223.2" font-family="Helvetica,sans-Serif" font-size="32.00" fill="#29235c">id &#160;&#160;&#160;</text>
<text text-anchor="start" x="479.33" y="-5224.2" font-family="Helvetica,sans-Serif" font-style="italic" font-size="32.00" fill="#29235c">unknown</text>
<polygon fill="#e7e2dd" stroke="transparent" points="152.37,-5143 152.37,-5203 618.37,-5203 618.37,-5143 152.37,-5143"/>
<polygon fill="none" stroke="#29235c" points="152.37,-5143 152.37,-5203 618.37,-5203 618.37,-5143 152.37,-5143"/>
<text text-anchor="start" x="163.37" y="-5163.2" font-family="Helvetica,sans-Serif" font-size="32.00" fill="#29235c">in_waitroom &#160;&#160;&#160;</text>
<text text-anchor="start" x="479.33" y="-5164.2" font-family="Helvetica,sans-Serif" font-style="italic" font-size="32.00" fill="#29235c">unknown</text>
<polygon fill="#e7e2dd" stroke="transparent" points="152.37,-5083 152.37,-5143 618.37,-5143 618.37,-5083 152.37,-5083"/>
<polygon fill="none" stroke="#29235c" points="152.37,-5083 152.37,-5143 618.37,-5143 618.37,-5083 152.37,-5083"/>
<text text-anchor="start" x="163.37" y="-5103.2" font-family="Helvetica,sans-Serif" font-size="32.00" fill="#29235c">name &#160;&#160;&#160;</text>
<text text-anchor="start" x="479.33" y="-5104.2" font-family="Helvetica,sans-Serif" font-style="italic" font-size="32.00" fill="#29235c">unknown</text>
<polygon fill="#e7e2dd" stroke="transparent" points="152.37,-5023 152.37,-5083 618.37,-5083 618.37,-5023 152.37,-5023"/>
<polygon fill="none" stroke="#29235c" points="152.37,-5023 152.37,-5083 618.37,-5083 618.37,-5023 152.37,-5023"/>
<text text-anchor="start" x="163.37" y="-5043.2" font-family="Helvetica,sans-Serif" font-size="32.00" fill="#29235c">non_active &#160;&#160;&#160;</text>
<text text-anchor="start" x="479.33" y="-5044.2" font-family="Helvetica,sans-Serif" font-style="italic" font-size="32.00" fill="#29235c">unknown</text>
<polygon fill="#e7e2dd" stroke="transparent" points="152.37,-4963 152.37,-5023 618.37,-5023 618.37,-4963 152.37,-4963"/>
<polygon fill="none" stroke="#29235c" points="152.37,-4963 152.37,-5023 618.37,-5023 618.37,-4963 152.37,-4963"/>
<text text-anchor="start" x="163.37" y="-4983.2" font-family="Helvetica,sans-Serif" font-size="32.00" fill="#29235c">project_name &#160;&#160;&#160;</text>
<text text-anchor="start" x="479.33" y="-4984.2" font-family="Helvetica,sans-Serif" font-style="italic" font-size="32.00" fill="#29235c">unknown</text>
<polygon fill="#e7e2dd" stroke="transparent" points="152.37,-4903 152.37,-4963 618.37,-4963 618.37,-4903 152.37,-4903"/>
<polygon fill="none" stroke="#29235c" points="152.37,-4903 152.37,-4963 618.37,-4963 618.37,-4903 152.37,-4903"/>
<text text-anchor="start" x="163.37" y="-4923.2" font-family="Helvetica,sans-Serif" font-size="32.00" fill="#29235c">timeline_hidden &#160;&#160;&#160;</text>
<text text-anchor="start" x="479.33" y="-4924.2" font-family="Helvetica,sans-Serif" font-style="italic" font-size="32.00" fill="#29235c">unknown</text>
<polygon fill="#e7e2dd" stroke="transparent" points="152.37,-4843 152.37,-4903 618.37,-4903 618.37,-4843 152.37,-4843"/>
<polygon fill="none" stroke="#29235c" points="152.37,-4843 152.37,-4903 618.37,-4903 618.37,-4843 152.37,-4843"/>
<text text-anchor="start" x="163.37" y="-4863.2" font-family="Helvetica,sans-Serif" font-size="32.00" fill="#29235c">totals &#160;&#160;&#160;</text>
<text text-anchor="start" x="479.33" y="-4864.2" font-family="Helvetica,sans-Serif" font-style="italic" font-size="32.00" fill="#29235c">unknown</text>
<polygon fill="#e7e2dd" stroke="transparent" points="152.37,-4783 152.37,-4843 618.37,-4843 618.37,-4783 152.37,-4783"/>
<polygon fill="none" stroke="#29235c" points="152.37,-4783 152.37,-4843 618.37,-4843 618.37,-4783 152.37,-4783"/>
<text text-anchor="start" x="163.37" y="-4803.2" font-family="Helvetica,sans-Serif" font-size="32.00" fill="#29235c">totals_delta &#160;&#160;&#160;</text>
<text text-anchor="start" x="479.33" y="-4804.2" font-family="Helvetica,sans-Serif" font-style="italic" font-size="32.00" fill="#29235c">unknown</text>
<polygon fill="#e7e2dd" stroke="transparent" points="152.37,-4723 152.37,-4783 618.37,-4783 618.37,-4723 152.37,-4723"/>
<polygon fill="none" stroke="#29235c" points="152.37,-4723 152.37,-4783 618.37,-4783 618.37,-4723 152.37,-4723"/>
<text text-anchor="start" x="163.37" y="-4743.2" font-family="Helvetica,sans-Serif" font-size="32.00" fill="#29235c">value &#160;&#160;&#160;</text>
<text text-anchor="start" x="479.33" y="-4744.2" font-family="Helvetica,sans-Serif" font-style="italic" font-size="32.00" fill="#29235c">unknown</text>
<polygon fill="#e7e2dd" stroke="transparent" points="152.37,-4663 152.37,-4723 618.37,-4723 618.37,-4663 152.37,-4663"/>
<polygon fill="none" stroke="#29235c" points="152.37,-4663 152.37,-4723 618.37,-4723 618.37,-4663 152.37,-4663"/>
<text text-anchor="start" x="163.12" y="-4683.2" font-family="Helvetica,sans-Serif" font-size="32.00" fill="#29235c">waitroom_approved &#160;&#160;&#160;</text>
<text text-anchor="start" x="479.35" y="-4684.2" font-family="Helvetica,sans-Serif" font-style="italic" font-size="32.00" fill="#29235c">unknown</text>
<polygon fill="none" stroke="#29235c" stroke-width="2" points="151.37,-4662 151.37,-5744 619.37,-5744 619.37,-4662 151.37,-4662"/>
</g>
</g>
</svg>
