<?xml version="1.0" encoding="UTF-8" standalone="no"?>
<!DOCTYPE svg PUBLIC "-//W3C//DTD SVG 1.1//EN"
 "http://www.w3.org/Graphics/SVG/1.1/DTD/svg11.dtd">
<!-- Generated by graphviz version 2.47.0 (20210316.0004)
 -->
<!-- Title: dbml Pages: 1 -->
<svg width="685pt" height="6131pt"
 viewBox="0.00 0.00 685.41 6131.17" xmlns="http://www.w3.org/2000/svg" xmlns:xlink="http://www.w3.org/1999/xlink">
<g id="graph0" class="graph" transform="scale(1 1) rotate(0) translate(4 6127.17)">
<title>dbml</title>
<!-- campaign -->
<g id="campaign" class="node">
<title>campaign</title>
<ellipse fill="none" stroke="black" stroke-width="0" cx="338.7" cy="-766.5" rx="317.48" ry="766.51"/>
<polygon fill="#1d71b8" stroke="transparent" points="116.7,-1246.5 116.7,-1306.5 561.7,-1306.5 561.7,-1246.5 116.7,-1246.5"/>
<polygon fill="none" stroke="#29235c" points="116.7,-1246.5 116.7,-1306.5 561.7,-1306.5 561.7,-1246.5 116.7,-1246.5"/>
<text text-anchor="start" x="207.61" y="-1267.7" font-family="Helvetica,sans-Serif" font-weight="bold" font-size="32.00" fill="#ffffff"> &#160;&#160;&#160;&#160;&#160;&#160;campaign &#160;&#160;&#160;&#160;&#160;&#160;</text>
<polygon fill="#e7e2dd" stroke="transparent" points="116.7,-1186.5 116.7,-1246.5 561.7,-1246.5 561.7,-1186.5 116.7,-1186.5"/>
<polygon fill="none" stroke="#29235c" points="116.7,-1186.5 116.7,-1246.5 561.7,-1246.5 561.7,-1186.5 116.7,-1186.5"/>
<text text-anchor="start" x="127.7" y="-1206.7" font-family="Helvetica,sans-Serif" font-size="32.00" fill="#29235c">_fivetran_deleted &#160;&#160;&#160;</text>
<text text-anchor="start" x="422.66" y="-1207.7" font-family="Helvetica,sans-Serif" font-style="italic" font-size="32.00" fill="#29235c">unknown</text>
<polygon fill="#e7e2dd" stroke="transparent" points="116.7,-1126.5 116.7,-1186.5 561.7,-1186.5 561.7,-1126.5 116.7,-1126.5"/>
<polygon fill="none" stroke="#29235c" points="116.7,-1126.5 116.7,-1186.5 561.7,-1186.5 561.7,-1126.5 116.7,-1126.5"/>
<text text-anchor="start" x="127.7" y="-1146.7" font-family="Helvetica,sans-Serif" font-size="32.00" fill="#29235c">campaign_type &#160;&#160;&#160;</text>
<text text-anchor="start" x="422.66" y="-1147.7" font-family="Helvetica,sans-Serif" font-style="italic" font-size="32.00" fill="#29235c">unknown</text>
<polygon fill="#e7e2dd" stroke="transparent" points="116.7,-1066.5 116.7,-1126.5 561.7,-1126.5 561.7,-1066.5 116.7,-1066.5"/>
<polygon fill="none" stroke="#29235c" points="116.7,-1066.5 116.7,-1126.5 561.7,-1126.5 561.7,-1066.5 116.7,-1066.5"/>
<text text-anchor="start" x="127.7" y="-1086.7" font-family="Helvetica,sans-Serif" font-size="32.00" fill="#29235c">created &#160;&#160;&#160;</text>
<text text-anchor="start" x="422.66" y="-1087.7" font-family="Helvetica,sans-Serif" font-style="italic" font-size="32.00" fill="#29235c">unknown</text>
<polygon fill="#e7e2dd" stroke="transparent" points="116.7,-1006.5 116.7,-1066.5 561.7,-1066.5 561.7,-1006.5 116.7,-1006.5"/>
<polygon fill="none" stroke="#29235c" points="116.7,-1006.5 116.7,-1066.5 561.7,-1066.5 561.7,-1006.5 116.7,-1006.5"/>
<text text-anchor="start" x="127.62" y="-1026.7" font-family="Helvetica,sans-Serif" font-size="32.00" fill="#29235c">email_template_id &#160;&#160;&#160;</text>
<text text-anchor="start" x="422.68" y="-1027.7" font-family="Helvetica,sans-Serif" font-style="italic" font-size="32.00" fill="#29235c">unknown</text>
<polygon fill="#e7e2dd" stroke="transparent" points="116.7,-946.5 116.7,-1006.5 561.7,-1006.5 561.7,-946.5 116.7,-946.5"/>
<polygon fill="none" stroke="#29235c" points="116.7,-946.5 116.7,-1006.5 561.7,-1006.5 561.7,-946.5 116.7,-946.5"/>
<text text-anchor="start" x="127.7" y="-966.7" font-family="Helvetica,sans-Serif" font-size="32.00" fill="#29235c">from_email &#160;&#160;&#160;</text>
<text text-anchor="start" x="422.66" y="-967.7" font-family="Helvetica,sans-Serif" font-style="italic" font-size="32.00" fill="#29235c">unknown</text>
<polygon fill="#e7e2dd" stroke="transparent" points="116.7,-886.5 116.7,-946.5 561.7,-946.5 561.7,-886.5 116.7,-886.5"/>
<polygon fill="none" stroke="#29235c" points="116.7,-886.5 116.7,-946.5 561.7,-946.5 561.7,-886.5 116.7,-886.5"/>
<text text-anchor="start" x="127.7" y="-906.7" font-family="Helvetica,sans-Serif" font-size="32.00" fill="#29235c">from_name &#160;&#160;&#160;</text>
<text text-anchor="start" x="422.66" y="-907.7" font-family="Helvetica,sans-Serif" font-style="italic" font-size="32.00" fill="#29235c">unknown</text>
<polygon fill="#e7e2dd" stroke="transparent" points="116.7,-826.5 116.7,-886.5 561.7,-886.5 561.7,-826.5 116.7,-826.5"/>
<polygon fill="none" stroke="#29235c" points="116.7,-826.5 116.7,-886.5 561.7,-886.5 561.7,-826.5 116.7,-826.5"/>
<text text-anchor="start" x="127.7" y="-846.7" font-family="Helvetica,sans-Serif" font-size="32.00" fill="#29235c">id &#160;&#160;&#160;</text>
<text text-anchor="start" x="422.66" y="-847.7" font-family="Helvetica,sans-Serif" font-style="italic" font-size="32.00" fill="#29235c">unknown</text>
<polygon fill="#e7e2dd" stroke="transparent" points="116.7,-766.5 116.7,-826.5 561.7,-826.5 561.7,-766.5 116.7,-766.5"/>
<polygon fill="none" stroke="#29235c" points="116.7,-766.5 116.7,-826.5 561.7,-826.5 561.7,-766.5 116.7,-766.5"/>
<text text-anchor="start" x="127.7" y="-786.7" font-family="Helvetica,sans-Serif" font-size="32.00" fill="#29235c">name &#160;&#160;&#160;</text>
<text text-anchor="start" x="422.66" y="-787.7" font-family="Helvetica,sans-Serif" font-style="italic" font-size="32.00" fill="#29235c">unknown</text>
<polygon fill="#e7e2dd" stroke="transparent" points="116.7,-706.5 116.7,-766.5 561.7,-766.5 561.7,-706.5 116.7,-706.5"/>
<polygon fill="none" stroke="#29235c" points="116.7,-706.5 116.7,-766.5 561.7,-766.5 561.7,-706.5 116.7,-706.5"/>
<text text-anchor="start" x="127.7" y="-726.7" font-family="Helvetica,sans-Serif" font-size="32.00" fill="#29235c">send_time &#160;&#160;&#160;</text>
<text text-anchor="start" x="422.66" y="-727.7" font-family="Helvetica,sans-Serif" font-style="italic" font-size="32.00" fill="#29235c">unknown</text>
<polygon fill="#e7e2dd" stroke="transparent" points="116.7,-646.5 116.7,-706.5 561.7,-706.5 561.7,-646.5 116.7,-646.5"/>
<polygon fill="none" stroke="#29235c" points="116.7,-646.5 116.7,-706.5 561.7,-706.5 561.7,-646.5 116.7,-646.5"/>
<text text-anchor="start" x="127.7" y="-666.7" font-family="Helvetica,sans-Serif" font-size="32.00" fill="#29235c">sent_at &#160;&#160;&#160;</text>
<text text-anchor="start" x="422.66" y="-667.7" font-family="Helvetica,sans-Serif" font-style="italic" font-size="32.00" fill="#29235c">unknown</text>
<polygon fill="#e7e2dd" stroke="transparent" points="116.7,-586.5 116.7,-646.5 561.7,-646.5 561.7,-586.5 116.7,-586.5"/>
<polygon fill="none" stroke="#29235c" points="116.7,-586.5 116.7,-646.5 561.7,-646.5 561.7,-586.5 116.7,-586.5"/>
<text text-anchor="start" x="127.7" y="-606.7" font-family="Helvetica,sans-Serif" font-size="32.00" fill="#29235c">status &#160;&#160;&#160;</text>
<text text-anchor="start" x="422.66" y="-607.7" font-family="Helvetica,sans-Serif" font-style="italic" font-size="32.00" fill="#29235c">unknown</text>
<polygon fill="#e7e2dd" stroke="transparent" points="116.7,-526.5 116.7,-586.5 561.7,-586.5 561.7,-526.5 116.7,-526.5"/>
<polygon fill="none" stroke="#29235c" points="116.7,-526.5 116.7,-586.5 561.7,-586.5 561.7,-526.5 116.7,-526.5"/>
<text text-anchor="start" x="127.7" y="-546.7" font-family="Helvetica,sans-Serif" font-size="32.00" fill="#29235c">status_id &#160;&#160;&#160;</text>
<text text-anchor="start" x="422.66" y="-547.7" font-family="Helvetica,sans-Serif" font-style="italic" font-size="32.00" fill="#29235c">unknown</text>
<polygon fill="#e7e2dd" stroke="transparent" points="116.7,-466.5 116.7,-526.5 561.7,-526.5 561.7,-466.5 116.7,-466.5"/>
<polygon fill="none" stroke="#29235c" points="116.7,-466.5 116.7,-526.5 561.7,-526.5 561.7,-466.5 116.7,-466.5"/>
<text text-anchor="start" x="127.7" y="-486.7" font-family="Helvetica,sans-Serif" font-size="32.00" fill="#29235c">status_label &#160;&#160;&#160;</text>
<text text-anchor="start" x="422.66" y="-487.7" font-family="Helvetica,sans-Serif" font-style="italic" font-size="32.00" fill="#29235c">unknown</text>
<polygon fill="#e7e2dd" stroke="transparent" points="116.7,-406.5 116.7,-466.5 561.7,-466.5 561.7,-406.5 116.7,-406.5"/>
<polygon fill="none" stroke="#29235c" points="116.7,-406.5 116.7,-466.5 561.7,-466.5 561.7,-406.5 116.7,-406.5"/>
<text text-anchor="start" x="127.7" y="-426.7" font-family="Helvetica,sans-Serif" font-size="32.00" fill="#29235c">subject &#160;&#160;&#160;</text>
<text text-anchor="start" x="422.66" y="-427.7" font-family="Helvetica,sans-Serif" font-style="italic" font-size="32.00" fill="#29235c">unknown</text>
<polygon fill="#e7e2dd" stroke="transparent" points="116.7,-346.5 116.7,-406.5 561.7,-406.5 561.7,-346.5 116.7,-346.5"/>
<polygon fill="none" stroke="#29235c" points="116.7,-346.5 116.7,-406.5 561.7,-406.5 561.7,-346.5 116.7,-346.5"/>
<text text-anchor="start" x="127.7" y="-366.7" font-family="Helvetica,sans-Serif" font-size="32.00" fill="#29235c">updated &#160;&#160;&#160;</text>
<text text-anchor="start" x="422.66" y="-367.7" font-family="Helvetica,sans-Serif" font-style="italic" font-size="32.00" fill="#29235c">unknown</text>
<polygon fill="#e7e2dd" stroke="transparent" points="116.7,-286.5 116.7,-346.5 561.7,-346.5 561.7,-286.5 116.7,-286.5"/>
<polygon fill="none" stroke="#29235c" points="116.7,-286.5 116.7,-346.5 561.7,-346.5 561.7,-286.5 116.7,-286.5"/>
<text text-anchor="start" x="127.7" y="-306.7" font-family="Helvetica,sans-Serif" font-size="32.00" fill="#29235c">archived &#160;&#160;&#160;</text>
<text text-anchor="start" x="422.66" y="-307.7" font-family="Helvetica,sans-Serif" font-style="italic" font-size="32.00" fill="#29235c">unknown</text>
<polygon fill="#e7e2dd" stroke="transparent" points="116.7,-226.5 116.7,-286.5 561.7,-286.5 561.7,-226.5 116.7,-226.5"/>
<polygon fill="none" stroke="#29235c" points="116.7,-226.5 116.7,-286.5 561.7,-286.5 561.7,-226.5 116.7,-226.5"/>
<text text-anchor="start" x="127.7" y="-246.7" font-family="Helvetica,sans-Serif" font-size="32.00" fill="#29235c">scheduled &#160;&#160;&#160;</text>
<text text-anchor="start" x="422.66" y="-247.7" font-family="Helvetica,sans-Serif" font-style="italic" font-size="32.00" fill="#29235c">unknown</text>
<polygon fill="none" stroke="#29235c" stroke-width="2" points="115.2,-225.5 115.2,-1307.5 562.2,-1307.5 562.2,-225.5 115.2,-225.5"/>
</g>
<!-- event -->
<g id="event" class="node">
<title>event</title>
<ellipse fill="none" stroke="black" stroke-width="0" cx="338.7" cy="-2147.5" rx="308.1" ry="596.6"/>
<polygon fill="#1d71b8" stroke="transparent" points="122.7,-2507.5 122.7,-2567.5 554.7,-2567.5 554.7,-2507.5 122.7,-2507.5"/>
<polygon fill="none" stroke="#29235c" points="122.7,-2507.5 122.7,-2567.5 554.7,-2567.5 554.7,-2507.5 122.7,-2507.5"/>
<text text-anchor="start" x="237.32" y="-2528.7" font-family="Helvetica,sans-Serif" font-weight="bold" font-size="32.00" fill="#ffffff"> &#160;&#160;&#160;&#160;&#160;&#160;event &#160;&#160;&#160;&#160;&#160;&#160;</text>
<polygon fill="#e7e2dd" stroke="transparent" points="122.7,-2447.5 122.7,-2507.5 554.7,-2507.5 554.7,-2447.5 122.7,-2447.5"/>
<polygon fill="none" stroke="#29235c" points="122.7,-2447.5 122.7,-2507.5 554.7,-2507.5 554.7,-2447.5 122.7,-2447.5"/>
<text text-anchor="start" x="133.7" y="-2467.7" font-family="Helvetica,sans-Serif" font-size="32.00" fill="#29235c">_variation &#160;&#160;&#160;</text>
<text text-anchor="start" x="415.66" y="-2468.7" font-family="Helvetica,sans-Serif" font-style="italic" font-size="32.00" fill="#29235c">unknown</text>
<polygon fill="#e7e2dd" stroke="transparent" points="122.7,-2387.5 122.7,-2447.5 554.7,-2447.5 554.7,-2387.5 122.7,-2387.5"/>
<polygon fill="none" stroke="#29235c" points="122.7,-2387.5 122.7,-2447.5 554.7,-2447.5 554.7,-2387.5 122.7,-2387.5"/>
<text text-anchor="start" x="133.7" y="-2407.7" font-family="Helvetica,sans-Serif" font-size="32.00" fill="#29235c">campaign_id &#160;&#160;&#160;</text>
<text text-anchor="start" x="415.66" y="-2408.7" font-family="Helvetica,sans-Serif" font-style="italic" font-size="32.00" fill="#29235c">unknown</text>
<polygon fill="#e7e2dd" stroke="transparent" points="122.7,-2327.5 122.7,-2387.5 554.7,-2387.5 554.7,-2327.5 122.7,-2327.5"/>
<polygon fill="none" stroke="#29235c" points="122.7,-2327.5 122.7,-2387.5 554.7,-2387.5 554.7,-2327.5 122.7,-2327.5"/>
<text text-anchor="start" x="133.7" y="-2347.7" font-family="Helvetica,sans-Serif" font-size="32.00" fill="#29235c">datetime &#160;&#160;&#160;</text>
<text text-anchor="start" x="415.66" y="-2348.7" font-family="Helvetica,sans-Serif" font-style="italic" font-size="32.00" fill="#29235c">unknown</text>
<polygon fill="#e7e2dd" stroke="transparent" points="122.7,-2267.5 122.7,-2327.5 554.7,-2327.5 554.7,-2267.5 122.7,-2267.5"/>
<polygon fill="none" stroke="#29235c" points="122.7,-2267.5 122.7,-2327.5 554.7,-2327.5 554.7,-2267.5 122.7,-2267.5"/>
<text text-anchor="start" x="133.7" y="-2287.7" font-family="Helvetica,sans-Serif" font-size="32.00" fill="#29235c">timestamp &#160;&#160;&#160;</text>
<text text-anchor="start" x="415.66" y="-2288.7" font-family="Helvetica,sans-Serif" font-style="italic" font-size="32.00" fill="#29235c">unknown</text>
<polygon fill="#e7e2dd" stroke="transparent" points="122.7,-2207.5 122.7,-2267.5 554.7,-2267.5 554.7,-2207.5 122.7,-2207.5"/>
<polygon fill="none" stroke="#29235c" points="122.7,-2207.5 122.7,-2267.5 554.7,-2267.5 554.7,-2207.5 122.7,-2207.5"/>
<text text-anchor="start" x="133.7" y="-2227.7" font-family="Helvetica,sans-Serif" font-size="32.00" fill="#29235c">flow_id &#160;&#160;&#160;</text>
<text text-anchor="start" x="415.66" y="-2228.7" font-family="Helvetica,sans-Serif" font-style="italic" font-size="32.00" fill="#29235c">unknown</text>
<polygon fill="#e7e2dd" stroke="transparent" points="122.7,-2147.5 122.7,-2207.5 554.7,-2207.5 554.7,-2147.5 122.7,-2147.5"/>
<polygon fill="none" stroke="#29235c" points="122.7,-2147.5 122.7,-2207.5 554.7,-2207.5 554.7,-2147.5 122.7,-2147.5"/>
<text text-anchor="start" x="133.34" y="-2167.7" font-family="Helvetica,sans-Serif" font-size="32.00" fill="#29235c">flow_message_id &#160;&#160;&#160;</text>
<text text-anchor="start" x="415.68" y="-2168.7" font-family="Helvetica,sans-Serif" font-style="italic" font-size="32.00" fill="#29235c">unknown</text>
<polygon fill="#e7e2dd" stroke="transparent" points="122.7,-2087.5 122.7,-2147.5 554.7,-2147.5 554.7,-2087.5 122.7,-2087.5"/>
<polygon fill="none" stroke="#29235c" points="122.7,-2087.5 122.7,-2147.5 554.7,-2147.5 554.7,-2087.5 122.7,-2087.5"/>
<text text-anchor="start" x="133.7" y="-2107.7" font-family="Helvetica,sans-Serif" font-size="32.00" fill="#29235c">id &#160;&#160;&#160;</text>
<text text-anchor="start" x="415.66" y="-2108.7" font-family="Helvetica,sans-Serif" font-style="italic" font-size="32.00" fill="#29235c">unknown</text>
<polygon fill="#e7e2dd" stroke="transparent" points="122.7,-2027.5 122.7,-2087.5 554.7,-2087.5 554.7,-2027.5 122.7,-2027.5"/>
<polygon fill="none" stroke="#29235c" points="122.7,-2027.5 122.7,-2087.5 554.7,-2087.5 554.7,-2027.5 122.7,-2027.5"/>
<text text-anchor="start" x="133.7" y="-2047.7" font-family="Helvetica,sans-Serif" font-size="32.00" fill="#29235c">metric_id &#160;&#160;&#160;</text>
<text text-anchor="start" x="415.66" y="-2048.7" font-family="Helvetica,sans-Serif" font-style="italic" font-size="32.00" fill="#29235c">unknown</text>
<polygon fill="#e7e2dd" stroke="transparent" points="122.7,-1967.5 122.7,-2027.5 554.7,-2027.5 554.7,-1967.5 122.7,-1967.5"/>
<polygon fill="none" stroke="#29235c" points="122.7,-1967.5 122.7,-2027.5 554.7,-2027.5 554.7,-1967.5 122.7,-1967.5"/>
<text text-anchor="start" x="133.7" y="-1987.7" font-family="Helvetica,sans-Serif" font-size="32.00" fill="#29235c">person_id &#160;&#160;&#160;</text>
<text text-anchor="start" x="415.66" y="-1988.7" font-family="Helvetica,sans-Serif" font-style="italic" font-size="32.00" fill="#29235c">unknown</text>
<polygon fill="#e7e2dd" stroke="transparent" points="122.7,-1907.5 122.7,-1967.5 554.7,-1967.5 554.7,-1907.5 122.7,-1907.5"/>
<polygon fill="none" stroke="#29235c" points="122.7,-1907.5 122.7,-1967.5 554.7,-1967.5 554.7,-1907.5 122.7,-1907.5"/>
<text text-anchor="start" x="133.7" y="-1927.7" font-family="Helvetica,sans-Serif" font-size="32.00" fill="#29235c">type &#160;&#160;&#160;</text>
<text text-anchor="start" x="415.66" y="-1928.7" font-family="Helvetica,sans-Serif" font-style="italic" font-size="32.00" fill="#29235c">unknown</text>
<polygon fill="#e7e2dd" stroke="transparent" points="122.7,-1847.5 122.7,-1907.5 554.7,-1907.5 554.7,-1847.5 122.7,-1847.5"/>
<polygon fill="none" stroke="#29235c" points="122.7,-1847.5 122.7,-1907.5 554.7,-1907.5 554.7,-1847.5 122.7,-1847.5"/>
<text text-anchor="start" x="133.7" y="-1867.7" font-family="Helvetica,sans-Serif" font-size="32.00" fill="#29235c">uuid &#160;&#160;&#160;</text>
<text text-anchor="start" x="415.66" y="-1868.7" font-family="Helvetica,sans-Serif" font-style="italic" font-size="32.00" fill="#29235c">unknown</text>
<polygon fill="#e7e2dd" stroke="transparent" points="122.7,-1787.5 122.7,-1847.5 554.7,-1847.5 554.7,-1787.5 122.7,-1787.5"/>
<polygon fill="none" stroke="#29235c" points="122.7,-1787.5 122.7,-1847.5 554.7,-1847.5 554.7,-1787.5 122.7,-1787.5"/>
<text text-anchor="start" x="133.7" y="-1807.7" font-family="Helvetica,sans-Serif" font-size="32.00" fill="#29235c">property_value &#160;&#160;&#160;</text>
<text text-anchor="start" x="415.66" y="-1808.7" font-family="Helvetica,sans-Serif" font-style="italic" font-size="32.00" fill="#29235c">unknown</text>
<polygon fill="#e7e2dd" stroke="transparent" points="122.7,-1727.5 122.7,-1787.5 554.7,-1787.5 554.7,-1727.5 122.7,-1727.5"/>
<polygon fill="none" stroke="#29235c" points="122.7,-1727.5 122.7,-1787.5 554.7,-1787.5 554.7,-1727.5 122.7,-1727.5"/>
<text text-anchor="start" x="133.7" y="-1747.7" font-family="Helvetica,sans-Serif" font-size="32.00" fill="#29235c">_fivetran_deleted &#160;&#160;&#160;</text>
<text text-anchor="start" x="415.66" y="-1748.7" font-family="Helvetica,sans-Serif" font-style="italic" font-size="32.00" fill="#29235c">unknown</text>
<polygon fill="none" stroke="#29235c" stroke-width="2" points="121.7,-1726.5 121.7,-2568.5 555.7,-2568.5 555.7,-1726.5 121.7,-1726.5"/>
</g>
<!-- flow -->
<g id="flow" class="node">
<title>flow</title>
<ellipse fill="none" stroke="black" stroke-width="0" cx="338.7" cy="-3146.5" rx="306.77" ry="384.83"/>
<polygon fill="#1d71b8" stroke="transparent" points="123.7,-3356.5 123.7,-3416.5 553.7,-3416.5 553.7,-3356.5 123.7,-3356.5"/>
<polygon fill="none" stroke="#29235c" points="123.7,-3356.5 123.7,-3416.5 553.7,-3416.5 553.7,-3356.5 123.7,-3356.5"/>
<text text-anchor="start" x="248.01" y="-3377.7" font-family="Helvetica,sans-Serif" font-weight="bold" font-size="32.00" fill="#ffffff"> &#160;&#160;&#160;&#160;&#160;&#160;flow &#160;&#160;&#160;&#160;&#160;&#160;</text>
<polygon fill="#e7e2dd" stroke="transparent" points="123.7,-3296.5 123.7,-3356.5 553.7,-3356.5 553.7,-3296.5 123.7,-3296.5"/>
<polygon fill="none" stroke="#29235c" points="123.7,-3296.5 123.7,-3356.5 553.7,-3356.5 553.7,-3296.5 123.7,-3296.5"/>
<text text-anchor="start" x="134.7" y="-3316.7" font-family="Helvetica,sans-Serif" font-size="32.00" fill="#29235c">created &#160;&#160;&#160;</text>
<text text-anchor="start" x="414.66" y="-3317.7" font-family="Helvetica,sans-Serif" font-style="italic" font-size="32.00" fill="#29235c">unknown</text>
<polygon fill="#e7e2dd" stroke="transparent" points="123.7,-3236.5 123.7,-3296.5 553.7,-3296.5 553.7,-3236.5 123.7,-3236.5"/>
<polygon fill="none" stroke="#29235c" points="123.7,-3236.5 123.7,-3296.5 553.7,-3296.5 553.7,-3236.5 123.7,-3236.5"/>
<text text-anchor="start" x="134.7" y="-3256.7" font-family="Helvetica,sans-Serif" font-size="32.00" fill="#29235c">id &#160;&#160;&#160;</text>
<text text-anchor="start" x="414.66" y="-3257.7" font-family="Helvetica,sans-Serif" font-style="italic" font-size="32.00" fill="#29235c">unknown</text>
<polygon fill="#e7e2dd" stroke="transparent" points="123.7,-3176.5 123.7,-3236.5 553.7,-3236.5 553.7,-3176.5 123.7,-3176.5"/>
<polygon fill="none" stroke="#29235c" points="123.7,-3176.5 123.7,-3236.5 553.7,-3236.5 553.7,-3176.5 123.7,-3176.5"/>
<text text-anchor="start" x="134.7" y="-3196.7" font-family="Helvetica,sans-Serif" font-size="32.00" fill="#29235c">name &#160;&#160;&#160;</text>
<text text-anchor="start" x="414.66" y="-3197.7" font-family="Helvetica,sans-Serif" font-style="italic" font-size="32.00" fill="#29235c">unknown</text>
<polygon fill="#e7e2dd" stroke="transparent" points="123.7,-3116.5 123.7,-3176.5 553.7,-3176.5 553.7,-3116.5 123.7,-3116.5"/>
<polygon fill="none" stroke="#29235c" points="123.7,-3116.5 123.7,-3176.5 553.7,-3176.5 553.7,-3116.5 123.7,-3116.5"/>
<text text-anchor="start" x="134.7" y="-3136.7" font-family="Helvetica,sans-Serif" font-size="32.00" fill="#29235c">status &#160;&#160;&#160;</text>
<text text-anchor="start" x="414.66" y="-3137.7" font-family="Helvetica,sans-Serif" font-style="italic" font-size="32.00" fill="#29235c">unknown</text>
<polygon fill="#e7e2dd" stroke="transparent" points="123.7,-3056.5 123.7,-3116.5 553.7,-3116.5 553.7,-3056.5 123.7,-3056.5"/>
<polygon fill="none" stroke="#29235c" points="123.7,-3056.5 123.7,-3116.5 553.7,-3116.5 553.7,-3056.5 123.7,-3056.5"/>
<text text-anchor="start" x="134.7" y="-3076.7" font-family="Helvetica,sans-Serif" font-size="32.00" fill="#29235c">updated &#160;&#160;&#160;</text>
<text text-anchor="start" x="414.66" y="-3077.7" font-family="Helvetica,sans-Serif" font-style="italic" font-size="32.00" fill="#29235c">unknown</text>
<polygon fill="#e7e2dd" stroke="transparent" points="123.7,-2996.5 123.7,-3056.5 553.7,-3056.5 553.7,-2996.5 123.7,-2996.5"/>
<polygon fill="none" stroke="#29235c" points="123.7,-2996.5 123.7,-3056.5 553.7,-3056.5 553.7,-2996.5 123.7,-2996.5"/>
<text text-anchor="start" x="134.7" y="-3016.7" font-family="Helvetica,sans-Serif" font-size="32.00" fill="#29235c">archived &#160;&#160;&#160;</text>
<text text-anchor="start" x="414.66" y="-3017.7" font-family="Helvetica,sans-Serif" font-style="italic" font-size="32.00" fill="#29235c">unknown</text>
<polygon fill="#e7e2dd" stroke="transparent" points="123.7,-2936.5 123.7,-2996.5 553.7,-2996.5 553.7,-2936.5 123.7,-2936.5"/>
<polygon fill="none" stroke="#29235c" points="123.7,-2936.5 123.7,-2996.5 553.7,-2996.5 553.7,-2936.5 123.7,-2936.5"/>
<text text-anchor="start" x="134.7" y="-2956.7" font-family="Helvetica,sans-Serif" font-size="32.00" fill="#29235c">trigger_type &#160;&#160;&#160;</text>
<text text-anchor="start" x="414.66" y="-2957.7" font-family="Helvetica,sans-Serif" font-style="italic" font-size="32.00" fill="#29235c">unknown</text>
<polygon fill="#e7e2dd" stroke="transparent" points="123.7,-2876.5 123.7,-2936.5 553.7,-2936.5 553.7,-2876.5 123.7,-2876.5"/>
<polygon fill="none" stroke="#29235c" points="123.7,-2876.5 123.7,-2936.5 553.7,-2936.5 553.7,-2876.5 123.7,-2876.5"/>
<text text-anchor="start" x="134.21" y="-2896.7" font-family="Helvetica,sans-Serif" font-size="32.00" fill="#29235c">_fivetran_deleted &#160;&#160;&#160;</text>
<text text-anchor="start" x="414.68" y="-2897.7" font-family="Helvetica,sans-Serif" font-style="italic" font-size="32.00" fill="#29235c">unknown</text>
<polygon fill="none" stroke="#29235c" stroke-width="2" points="122.7,-2875.5 122.7,-3417.5 554.7,-3417.5 554.7,-2875.5 122.7,-2875.5"/>
</g>
<!-- person -->
<g id="person" class="node">
<title>person</title>
<ellipse fill="none" stroke="black" stroke-width="0" cx="338.7" cy="-4442.5" rx="306.77" ry="893.57"/>
<polygon fill="#1d71b8" stroke="transparent" points="123.7,-5012.5 123.7,-5072.5 553.7,-5072.5 553.7,-5012.5 123.7,-5012.5"/>
<polygon fill="none" stroke="#29235c" points="123.7,-5012.5 123.7,-5072.5 553.7,-5072.5 553.7,-5012.5 123.7,-5012.5"/>
<text text-anchor="start" x="227.55" y="-5033.7" font-family="Helvetica,sans-Serif" font-weight="bold" font-size="32.00" fill="#ffffff"> &#160;&#160;&#160;&#160;&#160;&#160;person &#160;&#160;&#160;&#160;&#160;&#160;</text>
<polygon fill="#e7e2dd" stroke="transparent" points="123.7,-4952.5 123.7,-5012.5 553.7,-5012.5 553.7,-4952.5 123.7,-4952.5"/>
<polygon fill="none" stroke="#29235c" points="123.7,-4952.5 123.7,-5012.5 553.7,-5012.5 553.7,-4952.5 123.7,-4952.5"/>
<text text-anchor="start" x="134.7" y="-4972.7" font-family="Helvetica,sans-Serif" font-size="32.00" fill="#29235c">id &#160;&#160;&#160;</text>
<text text-anchor="start" x="414.66" y="-4973.7" font-family="Helvetica,sans-Serif" font-style="italic" font-size="32.00" fill="#29235c">unknown</text>
<polygon fill="#e7e2dd" stroke="transparent" points="123.7,-4892.5 123.7,-4952.5 553.7,-4952.5 553.7,-4892.5 123.7,-4892.5"/>
<polygon fill="none" stroke="#29235c" points="123.7,-4892.5 123.7,-4952.5 553.7,-4952.5 553.7,-4892.5 123.7,-4892.5"/>
<text text-anchor="start" x="134.7" y="-4912.7" font-family="Helvetica,sans-Serif" font-size="32.00" fill="#29235c">address_1 &#160;&#160;&#160;</text>
<text text-anchor="start" x="414.66" y="-4913.7" font-family="Helvetica,sans-Serif" font-style="italic" font-size="32.00" fill="#29235c">unknown</text>
<polygon fill="#e7e2dd" stroke="transparent" points="123.7,-4832.5 123.7,-4892.5 553.7,-4892.5 553.7,-4832.5 123.7,-4832.5"/>
<polygon fill="none" stroke="#29235c" points="123.7,-4832.5 123.7,-4892.5 553.7,-4892.5 553.7,-4832.5 123.7,-4832.5"/>
<text text-anchor="start" x="134.7" y="-4852.7" font-family="Helvetica,sans-Serif" font-size="32.00" fill="#29235c">address_2 &#160;&#160;&#160;</text>
<text text-anchor="start" x="414.66" y="-4853.7" font-family="Helvetica,sans-Serif" font-style="italic" font-size="32.00" fill="#29235c">unknown</text>
<polygon fill="#e7e2dd" stroke="transparent" points="123.7,-4772.5 123.7,-4832.5 553.7,-4832.5 553.7,-4772.5 123.7,-4772.5"/>
<polygon fill="none" stroke="#29235c" points="123.7,-4772.5 123.7,-4832.5 553.7,-4832.5 553.7,-4772.5 123.7,-4772.5"/>
<text text-anchor="start" x="134.7" y="-4792.7" font-family="Helvetica,sans-Serif" font-size="32.00" fill="#29235c">city &#160;&#160;&#160;</text>
<text text-anchor="start" x="414.66" y="-4793.7" font-family="Helvetica,sans-Serif" font-style="italic" font-size="32.00" fill="#29235c">unknown</text>
<polygon fill="#e7e2dd" stroke="transparent" points="123.7,-4712.5 123.7,-4772.5 553.7,-4772.5 553.7,-4712.5 123.7,-4712.5"/>
<polygon fill="none" stroke="#29235c" points="123.7,-4712.5 123.7,-4772.5 553.7,-4772.5 553.7,-4712.5 123.7,-4712.5"/>
<text text-anchor="start" x="134.7" y="-4732.7" font-family="Helvetica,sans-Serif" font-size="32.00" fill="#29235c">country &#160;&#160;&#160;</text>
<text text-anchor="start" x="414.66" y="-4733.7" font-family="Helvetica,sans-Serif" font-style="italic" font-size="32.00" fill="#29235c">unknown</text>
<polygon fill="#e7e2dd" stroke="transparent" points="123.7,-4652.5 123.7,-4712.5 553.7,-4712.5 553.7,-4652.5 123.7,-4652.5"/>
<polygon fill="none" stroke="#29235c" points="123.7,-4652.5 123.7,-4712.5 553.7,-4712.5 553.7,-4652.5 123.7,-4652.5"/>
<text text-anchor="start" x="134.7" y="-4672.7" font-family="Helvetica,sans-Serif" font-size="32.00" fill="#29235c">zip &#160;&#160;&#160;</text>
<text text-anchor="start" x="414.66" y="-4673.7" font-family="Helvetica,sans-Serif" font-style="italic" font-size="32.00" fill="#29235c">unknown</text>
<polygon fill="#e7e2dd" stroke="transparent" points="123.7,-4592.5 123.7,-4652.5 553.7,-4652.5 553.7,-4592.5 123.7,-4592.5"/>
<polygon fill="none" stroke="#29235c" points="123.7,-4592.5 123.7,-4652.5 553.7,-4652.5 553.7,-4592.5 123.7,-4592.5"/>
<text text-anchor="start" x="134.7" y="-4612.7" font-family="Helvetica,sans-Serif" font-size="32.00" fill="#29235c">created &#160;&#160;&#160;</text>
<text text-anchor="start" x="414.66" y="-4613.7" font-family="Helvetica,sans-Serif" font-style="italic" font-size="32.00" fill="#29235c">unknown</text>
<polygon fill="#e7e2dd" stroke="transparent" points="123.7,-4532.5 123.7,-4592.5 553.7,-4592.5 553.7,-4532.5 123.7,-4532.5"/>
<polygon fill="none" stroke="#29235c" points="123.7,-4532.5 123.7,-4592.5 553.7,-4592.5 553.7,-4532.5 123.7,-4532.5"/>
<text text-anchor="start" x="134.7" y="-4552.7" font-family="Helvetica,sans-Serif" font-size="32.00" fill="#29235c">email &#160;&#160;&#160;</text>
<text text-anchor="start" x="414.66" y="-4553.7" font-family="Helvetica,sans-Serif" font-style="italic" font-size="32.00" fill="#29235c">unknown</text>
<polygon fill="#e7e2dd" stroke="transparent" points="123.7,-4472.5 123.7,-4532.5 553.7,-4532.5 553.7,-4472.5 123.7,-4472.5"/>
<polygon fill="none" stroke="#29235c" points="123.7,-4472.5 123.7,-4532.5 553.7,-4532.5 553.7,-4472.5 123.7,-4472.5"/>
<text text-anchor="start" x="134.7" y="-4492.7" font-family="Helvetica,sans-Serif" font-size="32.00" fill="#29235c">first_name &#160;&#160;&#160;</text>
<text text-anchor="start" x="414.66" y="-4493.7" font-family="Helvetica,sans-Serif" font-style="italic" font-size="32.00" fill="#29235c">unknown</text>
<polygon fill="#e7e2dd" stroke="transparent" points="123.7,-4412.5 123.7,-4472.5 553.7,-4472.5 553.7,-4412.5 123.7,-4412.5"/>
<polygon fill="none" stroke="#29235c" points="123.7,-4412.5 123.7,-4472.5 553.7,-4472.5 553.7,-4412.5 123.7,-4412.5"/>
<text text-anchor="start" x="134.7" y="-4432.7" font-family="Helvetica,sans-Serif" font-size="32.00" fill="#29235c">last_name &#160;&#160;&#160;</text>
<text text-anchor="start" x="414.66" y="-4433.7" font-family="Helvetica,sans-Serif" font-style="italic" font-size="32.00" fill="#29235c">unknown</text>
<polygon fill="#e7e2dd" stroke="transparent" points="123.7,-4352.5 123.7,-4412.5 553.7,-4412.5 553.7,-4352.5 123.7,-4352.5"/>
<polygon fill="none" stroke="#29235c" points="123.7,-4352.5 123.7,-4412.5 553.7,-4412.5 553.7,-4352.5 123.7,-4352.5"/>
<text text-anchor="start" x="134.7" y="-4372.7" font-family="Helvetica,sans-Serif" font-size="32.00" fill="#29235c">latitude &#160;&#160;&#160;</text>
<text text-anchor="start" x="414.66" y="-4373.7" font-family="Helvetica,sans-Serif" font-style="italic" font-size="32.00" fill="#29235c">unknown</text>
<polygon fill="#e7e2dd" stroke="transparent" points="123.7,-4292.5 123.7,-4352.5 553.7,-4352.5 553.7,-4292.5 123.7,-4292.5"/>
<polygon fill="none" stroke="#29235c" points="123.7,-4292.5 123.7,-4352.5 553.7,-4352.5 553.7,-4292.5 123.7,-4292.5"/>
<text text-anchor="start" x="134.7" y="-4312.7" font-family="Helvetica,sans-Serif" font-size="32.00" fill="#29235c">longitude &#160;&#160;&#160;</text>
<text text-anchor="start" x="414.66" y="-4313.7" font-family="Helvetica,sans-Serif" font-style="italic" font-size="32.00" fill="#29235c">unknown</text>
<polygon fill="#e7e2dd" stroke="transparent" points="123.7,-4232.5 123.7,-4292.5 553.7,-4292.5 553.7,-4232.5 123.7,-4232.5"/>
<polygon fill="none" stroke="#29235c" points="123.7,-4232.5 123.7,-4292.5 553.7,-4292.5 553.7,-4232.5 123.7,-4232.5"/>
<text text-anchor="start" x="134.7" y="-4252.7" font-family="Helvetica,sans-Serif" font-size="32.00" fill="#29235c">organization &#160;&#160;&#160;</text>
<text text-anchor="start" x="414.66" y="-4253.7" font-family="Helvetica,sans-Serif" font-style="italic" font-size="32.00" fill="#29235c">unknown</text>
<polygon fill="#e7e2dd" stroke="transparent" points="123.7,-4172.5 123.7,-4232.5 553.7,-4232.5 553.7,-4172.5 123.7,-4172.5"/>
<polygon fill="none" stroke="#29235c" points="123.7,-4172.5 123.7,-4232.5 553.7,-4232.5 553.7,-4172.5 123.7,-4172.5"/>
<text text-anchor="start" x="134.7" y="-4192.7" font-family="Helvetica,sans-Serif" font-size="32.00" fill="#29235c">phone_number &#160;&#160;&#160;</text>
<text text-anchor="start" x="414.66" y="-4193.7" font-family="Helvetica,sans-Serif" font-style="italic" font-size="32.00" fill="#29235c">unknown</text>
<polygon fill="#e7e2dd" stroke="transparent" points="123.7,-4112.5 123.7,-4172.5 553.7,-4172.5 553.7,-4112.5 123.7,-4112.5"/>
<polygon fill="none" stroke="#29235c" points="123.7,-4112.5 123.7,-4172.5 553.7,-4172.5 553.7,-4112.5 123.7,-4112.5"/>
<text text-anchor="start" x="134.7" y="-4132.7" font-family="Helvetica,sans-Serif" font-size="32.00" fill="#29235c">region &#160;&#160;&#160;</text>
<text text-anchor="start" x="414.66" y="-4133.7" font-family="Helvetica,sans-Serif" font-style="italic" font-size="32.00" fill="#29235c">unknown</text>
<polygon fill="#e7e2dd" stroke="transparent" points="123.7,-4052.5 123.7,-4112.5 553.7,-4112.5 553.7,-4052.5 123.7,-4052.5"/>
<polygon fill="none" stroke="#29235c" points="123.7,-4052.5 123.7,-4112.5 553.7,-4112.5 553.7,-4052.5 123.7,-4052.5"/>
<text text-anchor="start" x="134.7" y="-4072.7" font-family="Helvetica,sans-Serif" font-size="32.00" fill="#29235c">timezone &#160;&#160;&#160;</text>
<text text-anchor="start" x="414.66" y="-4073.7" font-family="Helvetica,sans-Serif" font-style="italic" font-size="32.00" fill="#29235c">unknown</text>
<polygon fill="#e7e2dd" stroke="transparent" points="123.7,-3992.5 123.7,-4052.5 553.7,-4052.5 553.7,-3992.5 123.7,-3992.5"/>
<polygon fill="none" stroke="#29235c" points="123.7,-3992.5 123.7,-4052.5 553.7,-4052.5 553.7,-3992.5 123.7,-3992.5"/>
<text text-anchor="start" x="134.7" y="-4012.7" font-family="Helvetica,sans-Serif" font-size="32.00" fill="#29235c">title &#160;&#160;&#160;</text>
<text text-anchor="start" x="414.66" y="-4013.7" font-family="Helvetica,sans-Serif" font-style="italic" font-size="32.00" fill="#29235c">unknown</text>
<polygon fill="#e7e2dd" stroke="transparent" points="123.7,-3932.5 123.7,-3992.5 553.7,-3992.5 553.7,-3932.5 123.7,-3932.5"/>
<polygon fill="none" stroke="#29235c" points="123.7,-3932.5 123.7,-3992.5 553.7,-3992.5 553.7,-3932.5 123.7,-3932.5"/>
<text text-anchor="start" x="134.7" y="-3952.7" font-family="Helvetica,sans-Serif" font-size="32.00" fill="#29235c">updated &#160;&#160;&#160;</text>
<text text-anchor="start" x="414.66" y="-3953.7" font-family="Helvetica,sans-Serif" font-style="italic" font-size="32.00" fill="#29235c">unknown</text>
<polygon fill="#e7e2dd" stroke="transparent" points="123.7,-3872.5 123.7,-3932.5 553.7,-3932.5 553.7,-3872.5 123.7,-3872.5"/>
<polygon fill="none" stroke="#29235c" points="123.7,-3872.5 123.7,-3932.5 553.7,-3932.5 553.7,-3872.5 123.7,-3872.5"/>
<text text-anchor="start" x="134.7" y="-3892.7" font-family="Helvetica,sans-Serif" font-size="32.00" fill="#29235c">last_event_date &#160;&#160;&#160;</text>
<text text-anchor="start" x="414.66" y="-3893.7" font-family="Helvetica,sans-Serif" font-style="italic" font-size="32.00" fill="#29235c">unknown</text>
<polygon fill="#e7e2dd" stroke="transparent" points="123.7,-3812.5 123.7,-3872.5 553.7,-3872.5 553.7,-3812.5 123.7,-3812.5"/>
<polygon fill="none" stroke="#29235c" points="123.7,-3812.5 123.7,-3872.5 553.7,-3872.5 553.7,-3812.5 123.7,-3812.5"/>
<text text-anchor="start" x="134.21" y="-3832.7" font-family="Helvetica,sans-Serif" font-size="32.00" fill="#29235c">_fivetran_deleted &#160;&#160;&#160;</text>
<text text-anchor="start" x="414.68" y="-3833.7" font-family="Helvetica,sans-Serif" font-style="italic" font-size="32.00" fill="#29235c">unknown</text>
<polygon fill="none" stroke="#29235c" stroke-width="2" points="122.7,-3811.5 122.7,-5073.5 554.7,-5073.5 554.7,-3811.5 122.7,-3811.5"/>
</g>
<!-- metric -->
<g id="metric" class="node">
<title>metric</title>
<ellipse fill="none" stroke="black" stroke-width="0" cx="338.7" cy="-5738.5" rx="338.91" ry="384.83"/>
<polygon fill="#1d71b8" stroke="transparent" points="101.7,-5948.5 101.7,-6008.5 576.7,-6008.5 576.7,-5948.5 101.7,-5948.5"/>
<polygon fill="none" stroke="#29235c" points="101.7,-5948.5 101.7,-6008.5 576.7,-6008.5 576.7,-5948.5 101.7,-5948.5"/>
<text text-anchor="start" x="233.41" y="-5969.7" font-family="Helvetica,sans-Serif" font-weight="bold" font-size="32.00" fill="#ffffff"> &#160;&#160;&#160;&#160;&#160;&#160;metric &#160;&#160;&#160;&#160;&#160;&#160;</text>
<polygon fill="#e7e2dd" stroke="transparent" points="101.7,-5888.5 101.7,-5948.5 576.7,-5948.5 576.7,-5888.5 101.7,-5888.5"/>
<polygon fill="none" stroke="#29235c" points="101.7,-5888.5 101.7,-5948.5 576.7,-5948.5 576.7,-5888.5 101.7,-5888.5"/>
<text text-anchor="start" x="112.7" y="-5908.7" font-family="Helvetica,sans-Serif" font-size="32.00" fill="#29235c">created &#160;&#160;&#160;</text>
<text text-anchor="start" x="437.66" y="-5909.7" font-family="Helvetica,sans-Serif" font-style="italic" font-size="32.00" fill="#29235c">unknown</text>
<polygon fill="#e7e2dd" stroke="transparent" points="101.7,-5828.5 101.7,-5888.5 576.7,-5888.5 576.7,-5828.5 101.7,-5828.5"/>
<polygon fill="none" stroke="#29235c" points="101.7,-5828.5 101.7,-5888.5 576.7,-5888.5 576.7,-5828.5 101.7,-5828.5"/>
<text text-anchor="start" x="112.7" y="-5848.7" font-family="Helvetica,sans-Serif" font-size="32.00" fill="#29235c">id &#160;&#160;&#160;</text>
<text text-anchor="start" x="437.66" y="-5849.7" font-family="Helvetica,sans-Serif" font-style="italic" font-size="32.00" fill="#29235c">unknown</text>
<polygon fill="#e7e2dd" stroke="transparent" points="101.7,-5768.5 101.7,-5828.5 576.7,-5828.5 576.7,-5768.5 101.7,-5768.5"/>
<polygon fill="none" stroke="#29235c" points="101.7,-5768.5 101.7,-5828.5 576.7,-5828.5 576.7,-5768.5 101.7,-5768.5"/>
<text text-anchor="start" x="112.7" y="-5788.7" font-family="Helvetica,sans-Serif" font-size="32.00" fill="#29235c">integration_id &#160;&#160;&#160;</text>
<text text-anchor="start" x="437.66" y="-5789.7" font-family="Helvetica,sans-Serif" font-style="italic" font-size="32.00" fill="#29235c">unknown</text>
<polygon fill="#e7e2dd" stroke="transparent" points="101.7,-5708.5 101.7,-5768.5 576.7,-5768.5 576.7,-5708.5 101.7,-5708.5"/>
<polygon fill="none" stroke="#29235c" points="101.7,-5708.5 101.7,-5768.5 576.7,-5768.5 576.7,-5708.5 101.7,-5708.5"/>
<text text-anchor="start" x="112.7" y="-5728.7" font-family="Helvetica,sans-Serif" font-size="32.00" fill="#29235c">name &#160;&#160;&#160;</text>
<text text-anchor="start" x="437.66" y="-5729.7" font-family="Helvetica,sans-Serif" font-style="italic" font-size="32.00" fill="#29235c">unknown</text>
<polygon fill="#e7e2dd" stroke="transparent" points="101.7,-5648.5 101.7,-5708.5 576.7,-5708.5 576.7,-5648.5 101.7,-5648.5"/>
<polygon fill="none" stroke="#29235c" points="101.7,-5648.5 101.7,-5708.5 576.7,-5708.5 576.7,-5648.5 101.7,-5648.5"/>
<text text-anchor="start" x="112.7" y="-5668.7" font-family="Helvetica,sans-Serif" font-size="32.00" fill="#29235c">updated &#160;&#160;&#160;</text>
<text text-anchor="start" x="437.66" y="-5669.7" font-family="Helvetica,sans-Serif" font-style="italic" font-size="32.00" fill="#29235c">unknown</text>
<polygon fill="#e7e2dd" stroke="transparent" points="101.7,-5588.5 101.7,-5648.5 576.7,-5648.5 576.7,-5588.5 101.7,-5588.5"/>
<polygon fill="none" stroke="#29235c" points="101.7,-5588.5 101.7,-5648.5 576.7,-5648.5 576.7,-5588.5 101.7,-5588.5"/>
<text text-anchor="start" x="112.49" y="-5608.7" font-family="Helvetica,sans-Serif" font-size="32.00" fill="#29235c">integration_category &#160;&#160;&#160;</text>
<text text-anchor="start" x="437.68" y="-5609.7" font-family="Helvetica,sans-Serif" font-style="italic" font-size="32.00" fill="#29235c">unknown</text>
<polygon fill="#e7e2dd" stroke="transparent" points="101.7,-5528.5 101.7,-5588.5 576.7,-5588.5 576.7,-5528.5 101.7,-5528.5"/>
<polygon fill="none" stroke="#29235c" points="101.7,-5528.5 101.7,-5588.5 576.7,-5588.5 576.7,-5528.5 101.7,-5528.5"/>
<text text-anchor="start" x="112.7" y="-5548.7" font-family="Helvetica,sans-Serif" font-size="32.00" fill="#29235c">integration_name &#160;&#160;&#160;</text>
<text text-anchor="start" x="437.66" y="-5549.7" font-family="Helvetica,sans-Serif" font-style="italic" font-size="32.00" fill="#29235c">unknown</text>
<polygon fill="#e7e2dd" stroke="transparent" points="101.7,-5468.5 101.7,-5528.5 576.7,-5528.5 576.7,-5468.5 101.7,-5468.5"/>
<polygon fill="none" stroke="#29235c" points="101.7,-5468.5 101.7,-5528.5 576.7,-5528.5 576.7,-5468.5 101.7,-5468.5"/>
<text text-anchor="start" x="112.7" y="-5488.7" font-family="Helvetica,sans-Serif" font-size="32.00" fill="#29235c">_fivetran_deleted &#160;&#160;&#160;</text>
<text text-anchor="start" x="437.66" y="-5489.7" font-family="Helvetica,sans-Serif" font-style="italic" font-size="32.00" fill="#29235c">unknown</text>
<polygon fill="none" stroke="#29235c" stroke-width="2" points="100.2,-5467.5 100.2,-6009.5 577.2,-6009.5 577.2,-5467.5 100.2,-5467.5"/>
</g>
</g>
</svg>
