<?xml version="1.0" encoding="UTF-8" standalone="no"?>
<!DOCTYPE svg PUBLIC "-//W3C//DTD SVG 1.1//EN"
 "http://www.w3.org/Graphics/SVG/1.1/DTD/svg11.dtd">
<!-- Generated by graphviz version 2.47.0 (20210316.0004)
 -->
<!-- Title: dbml Pages: 1 -->
<svg width="654pt" height="6131pt"
 viewBox="0.00 0.00 654.30 6131.17" xmlns="http://www.w3.org/2000/svg" xmlns:xlink="http://www.w3.org/1999/xlink">
<g id="graph0" class="graph" transform="scale(1 1) rotate(0) translate(4 6127.17)">
<title>dbml</title>
<!-- campaign -->
<g id="campaign" class="node">
<title>campaign</title>
<ellipse fill="none" stroke="black" stroke-width="0" cx="323.15" cy="-766.5" rx="301.87" ry="766.51"/>
<polygon fill="#1d71b8" stroke="transparent" points="112.15,-1246.5 112.15,-1306.5 535.15,-1306.5 535.15,-1246.5 112.15,-1246.5"/>
<polygon fill="none" stroke="#29235c" points="112.15,-1246.5 112.15,-1306.5 535.15,-1306.5 535.15,-1246.5 112.15,-1246.5"/>
<text text-anchor="start" x="192.05" y="-1267.7" font-family="Helvetica,sans-Serif" font-weight="bold" font-size="32.00" fill="#ffffff"> &#160;&#160;&#160;&#160;&#160;&#160;campaign &#160;&#160;&#160;&#160;&#160;&#160;</text>
<polygon fill="#e7e2dd" stroke="transparent" points="112.15,-1186.5 112.15,-1246.5 535.15,-1246.5 535.15,-1186.5 112.15,-1186.5"/>
<polygon fill="none" stroke="#29235c" points="112.15,-1186.5 112.15,-1246.5 535.15,-1246.5 535.15,-1186.5 112.15,-1186.5"/>
<text text-anchor="start" x="123.15" y="-1206.7" font-family="Helvetica,sans-Serif" font-size="32.00" fill="#29235c">_fivetran_deleted &#160;&#160;&#160;</text>
<text text-anchor="start" x="417.48" y="-1207.7" font-family="Helvetica,sans-Serif" font-style="italic" font-size="32.00" fill="#29235c">varchar</text>
<polygon fill="#e7e2dd" stroke="transparent" points="112.15,-1126.5 112.15,-1186.5 535.15,-1186.5 535.15,-1126.5 112.15,-1126.5"/>
<polygon fill="none" stroke="#29235c" points="112.15,-1126.5 112.15,-1186.5 535.15,-1186.5 535.15,-1126.5 112.15,-1126.5"/>
<text text-anchor="start" x="123.15" y="-1146.7" font-family="Helvetica,sans-Serif" font-size="32.00" fill="#29235c">campaign_type &#160;&#160;&#160;</text>
<text text-anchor="start" x="417.48" y="-1147.7" font-family="Helvetica,sans-Serif" font-style="italic" font-size="32.00" fill="#29235c">varchar</text>
<polygon fill="#e7e2dd" stroke="transparent" points="112.15,-1066.5 112.15,-1126.5 535.15,-1126.5 535.15,-1066.5 112.15,-1066.5"/>
<polygon fill="none" stroke="#29235c" points="112.15,-1066.5 112.15,-1126.5 535.15,-1126.5 535.15,-1066.5 112.15,-1066.5"/>
<text text-anchor="start" x="123.15" y="-1086.7" font-family="Helvetica,sans-Serif" font-size="32.00" fill="#29235c">created &#160;&#160;&#160;</text>
<text text-anchor="start" x="417.48" y="-1087.7" font-family="Helvetica,sans-Serif" font-style="italic" font-size="32.00" fill="#29235c">varchar</text>
<polygon fill="#e7e2dd" stroke="transparent" points="112.15,-1006.5 112.15,-1066.5 535.15,-1066.5 535.15,-1006.5 112.15,-1006.5"/>
<polygon fill="none" stroke="#29235c" points="112.15,-1006.5 112.15,-1066.5 535.15,-1066.5 535.15,-1006.5 112.15,-1006.5"/>
<text text-anchor="start" x="123.07" y="-1026.7" font-family="Helvetica,sans-Serif" font-size="32.00" fill="#29235c">email_template_id &#160;&#160;&#160;</text>
<text text-anchor="start" x="417.81" y="-1027.7" font-family="Helvetica,sans-Serif" font-style="italic" font-size="32.00" fill="#29235c">varchar</text>
<polygon fill="#e7e2dd" stroke="transparent" points="112.15,-946.5 112.15,-1006.5 535.15,-1006.5 535.15,-946.5 112.15,-946.5"/>
<polygon fill="none" stroke="#29235c" points="112.15,-946.5 112.15,-1006.5 535.15,-1006.5 535.15,-946.5 112.15,-946.5"/>
<text text-anchor="start" x="123.15" y="-966.7" font-family="Helvetica,sans-Serif" font-size="32.00" fill="#29235c">from_email &#160;&#160;&#160;</text>
<text text-anchor="start" x="417.48" y="-967.7" font-family="Helvetica,sans-Serif" font-style="italic" font-size="32.00" fill="#29235c">varchar</text>
<polygon fill="#e7e2dd" stroke="transparent" points="112.15,-886.5 112.15,-946.5 535.15,-946.5 535.15,-886.5 112.15,-886.5"/>
<polygon fill="none" stroke="#29235c" points="112.15,-886.5 112.15,-946.5 535.15,-946.5 535.15,-886.5 112.15,-886.5"/>
<text text-anchor="start" x="123.15" y="-906.7" font-family="Helvetica,sans-Serif" font-size="32.00" fill="#29235c">from_name &#160;&#160;&#160;</text>
<text text-anchor="start" x="417.48" y="-907.7" font-family="Helvetica,sans-Serif" font-style="italic" font-size="32.00" fill="#29235c">varchar</text>
<polygon fill="#e7e2dd" stroke="transparent" points="112.15,-826.5 112.15,-886.5 535.15,-886.5 535.15,-826.5 112.15,-826.5"/>
<polygon fill="none" stroke="#29235c" points="112.15,-826.5 112.15,-886.5 535.15,-886.5 535.15,-826.5 112.15,-826.5"/>
<text text-anchor="start" x="123.15" y="-846.7" font-family="Helvetica,sans-Serif" font-size="32.00" fill="#29235c">id &#160;&#160;&#160;</text>
<text text-anchor="start" x="417.48" y="-847.7" font-family="Helvetica,sans-Serif" font-style="italic" font-size="32.00" fill="#29235c">varchar</text>
<polygon fill="#e7e2dd" stroke="transparent" points="112.15,-766.5 112.15,-826.5 535.15,-826.5 535.15,-766.5 112.15,-766.5"/>
<polygon fill="none" stroke="#29235c" points="112.15,-766.5 112.15,-826.5 535.15,-826.5 535.15,-766.5 112.15,-766.5"/>
<text text-anchor="start" x="123.15" y="-786.7" font-family="Helvetica,sans-Serif" font-size="32.00" fill="#29235c">name &#160;&#160;&#160;</text>
<text text-anchor="start" x="417.48" y="-787.7" font-family="Helvetica,sans-Serif" font-style="italic" font-size="32.00" fill="#29235c">varchar</text>
<polygon fill="#e7e2dd" stroke="transparent" points="112.15,-706.5 112.15,-766.5 535.15,-766.5 535.15,-706.5 112.15,-706.5"/>
<polygon fill="none" stroke="#29235c" points="112.15,-706.5 112.15,-766.5 535.15,-766.5 535.15,-706.5 112.15,-706.5"/>
<text text-anchor="start" x="123.15" y="-726.7" font-family="Helvetica,sans-Serif" font-size="32.00" fill="#29235c">send_time &#160;&#160;&#160;</text>
<text text-anchor="start" x="417.48" y="-727.7" font-family="Helvetica,sans-Serif" font-style="italic" font-size="32.00" fill="#29235c">varchar</text>
<polygon fill="#e7e2dd" stroke="transparent" points="112.15,-646.5 112.15,-706.5 535.15,-706.5 535.15,-646.5 112.15,-646.5"/>
<polygon fill="none" stroke="#29235c" points="112.15,-646.5 112.15,-706.5 535.15,-706.5 535.15,-646.5 112.15,-646.5"/>
<text text-anchor="start" x="123.15" y="-666.7" font-family="Helvetica,sans-Serif" font-size="32.00" fill="#29235c">sent_at &#160;&#160;&#160;</text>
<text text-anchor="start" x="417.48" y="-667.7" font-family="Helvetica,sans-Serif" font-style="italic" font-size="32.00" fill="#29235c">varchar</text>
<polygon fill="#e7e2dd" stroke="transparent" points="112.15,-586.5 112.15,-646.5 535.15,-646.5 535.15,-586.5 112.15,-586.5"/>
<polygon fill="none" stroke="#29235c" points="112.15,-586.5 112.15,-646.5 535.15,-646.5 535.15,-586.5 112.15,-586.5"/>
<text text-anchor="start" x="123.15" y="-606.7" font-family="Helvetica,sans-Serif" font-size="32.00" fill="#29235c">status &#160;&#160;&#160;</text>
<text text-anchor="start" x="417.48" y="-607.7" font-family="Helvetica,sans-Serif" font-style="italic" font-size="32.00" fill="#29235c">varchar</text>
<polygon fill="#e7e2dd" stroke="transparent" points="112.15,-526.5 112.15,-586.5 535.15,-586.5 535.15,-526.5 112.15,-526.5"/>
<polygon fill="none" stroke="#29235c" points="112.15,-526.5 112.15,-586.5 535.15,-586.5 535.15,-526.5 112.15,-526.5"/>
<text text-anchor="start" x="123.15" y="-546.7" font-family="Helvetica,sans-Serif" font-size="32.00" fill="#29235c">status_id &#160;&#160;&#160;</text>
<text text-anchor="start" x="417.48" y="-547.7" font-family="Helvetica,sans-Serif" font-style="italic" font-size="32.00" fill="#29235c">varchar</text>
<polygon fill="#e7e2dd" stroke="transparent" points="112.15,-466.5 112.15,-526.5 535.15,-526.5 535.15,-466.5 112.15,-466.5"/>
<polygon fill="none" stroke="#29235c" points="112.15,-466.5 112.15,-526.5 535.15,-526.5 535.15,-466.5 112.15,-466.5"/>
<text text-anchor="start" x="123.15" y="-486.7" font-family="Helvetica,sans-Serif" font-size="32.00" fill="#29235c">status_label &#160;&#160;&#160;</text>
<text text-anchor="start" x="417.48" y="-487.7" font-family="Helvetica,sans-Serif" font-style="italic" font-size="32.00" fill="#29235c">varchar</text>
<polygon fill="#e7e2dd" stroke="transparent" points="112.15,-406.5 112.15,-466.5 535.15,-466.5 535.15,-406.5 112.15,-406.5"/>
<polygon fill="none" stroke="#29235c" points="112.15,-406.5 112.15,-466.5 535.15,-466.5 535.15,-406.5 112.15,-406.5"/>
<text text-anchor="start" x="123.15" y="-426.7" font-family="Helvetica,sans-Serif" font-size="32.00" fill="#29235c">subject &#160;&#160;&#160;</text>
<text text-anchor="start" x="417.48" y="-427.7" font-family="Helvetica,sans-Serif" font-style="italic" font-size="32.00" fill="#29235c">varchar</text>
<polygon fill="#e7e2dd" stroke="transparent" points="112.15,-346.5 112.15,-406.5 535.15,-406.5 535.15,-346.5 112.15,-346.5"/>
<polygon fill="none" stroke="#29235c" points="112.15,-346.5 112.15,-406.5 535.15,-406.5 535.15,-346.5 112.15,-346.5"/>
<text text-anchor="start" x="123.15" y="-366.7" font-family="Helvetica,sans-Serif" font-size="32.00" fill="#29235c">updated &#160;&#160;&#160;</text>
<text text-anchor="start" x="417.48" y="-367.7" font-family="Helvetica,sans-Serif" font-style="italic" font-size="32.00" fill="#29235c">varchar</text>
<polygon fill="#e7e2dd" stroke="transparent" points="112.15,-286.5 112.15,-346.5 535.15,-346.5 535.15,-286.5 112.15,-286.5"/>
<polygon fill="none" stroke="#29235c" points="112.15,-286.5 112.15,-346.5 535.15,-346.5 535.15,-286.5 112.15,-286.5"/>
<text text-anchor="start" x="123.15" y="-306.7" font-family="Helvetica,sans-Serif" font-size="32.00" fill="#29235c">archived &#160;&#160;&#160;</text>
<text text-anchor="start" x="417.48" y="-307.7" font-family="Helvetica,sans-Serif" font-style="italic" font-size="32.00" fill="#29235c">varchar</text>
<polygon fill="#e7e2dd" stroke="transparent" points="112.15,-226.5 112.15,-286.5 535.15,-286.5 535.15,-226.5 112.15,-226.5"/>
<polygon fill="none" stroke="#29235c" points="112.15,-226.5 112.15,-286.5 535.15,-286.5 535.15,-226.5 112.15,-226.5"/>
<text text-anchor="start" x="123.15" y="-246.7" font-family="Helvetica,sans-Serif" font-size="32.00" fill="#29235c">scheduled &#160;&#160;&#160;</text>
<text text-anchor="start" x="417.48" y="-247.7" font-family="Helvetica,sans-Serif" font-style="italic" font-size="32.00" fill="#29235c">varchar</text>
<polygon fill="none" stroke="#29235c" stroke-width="2" points="110.65,-225.5 110.65,-1307.5 535.65,-1307.5 535.65,-225.5 110.65,-225.5"/>
</g>
<!-- event -->
<g id="event" class="node">
<title>event</title>
<ellipse fill="none" stroke="black" stroke-width="0" cx="323.15" cy="-2147.5" rx="292.98" ry="596.6"/>
<polygon fill="#1d71b8" stroke="transparent" points="118.15,-2507.5 118.15,-2567.5 528.15,-2567.5 528.15,-2507.5 118.15,-2507.5"/>
<polygon fill="none" stroke="#29235c" points="118.15,-2507.5 118.15,-2567.5 528.15,-2567.5 528.15,-2507.5 118.15,-2507.5"/>
<text text-anchor="start" x="221.77" y="-2528.7" font-family="Helvetica,sans-Serif" font-weight="bold" font-size="32.00" fill="#ffffff"> &#160;&#160;&#160;&#160;&#160;&#160;event &#160;&#160;&#160;&#160;&#160;&#160;</text>
<polygon fill="#e7e2dd" stroke="transparent" points="118.15,-2447.5 118.15,-2507.5 528.15,-2507.5 528.15,-2447.5 118.15,-2447.5"/>
<polygon fill="none" stroke="#29235c" points="118.15,-2447.5 118.15,-2507.5 528.15,-2507.5 528.15,-2447.5 118.15,-2447.5"/>
<text text-anchor="start" x="129.15" y="-2467.7" font-family="Helvetica,sans-Serif" font-size="32.00" fill="#29235c">_variation &#160;&#160;&#160;</text>
<text text-anchor="start" x="410.48" y="-2468.7" font-family="Helvetica,sans-Serif" font-style="italic" font-size="32.00" fill="#29235c">varchar</text>
<polygon fill="#e7e2dd" stroke="transparent" points="118.15,-2387.5 118.15,-2447.5 528.15,-2447.5 528.15,-2387.5 118.15,-2387.5"/>
<polygon fill="none" stroke="#29235c" points="118.15,-2387.5 118.15,-2447.5 528.15,-2447.5 528.15,-2387.5 118.15,-2387.5"/>
<text text-anchor="start" x="129.15" y="-2407.7" font-family="Helvetica,sans-Serif" font-size="32.00" fill="#29235c">campaign_id &#160;&#160;&#160;</text>
<text text-anchor="start" x="410.48" y="-2408.7" font-family="Helvetica,sans-Serif" font-style="italic" font-size="32.00" fill="#29235c">varchar</text>
<polygon fill="#e7e2dd" stroke="transparent" points="118.15,-2327.5 118.15,-2387.5 528.15,-2387.5 528.15,-2327.5 118.15,-2327.5"/>
<polygon fill="none" stroke="#29235c" points="118.15,-2327.5 118.15,-2387.5 528.15,-2387.5 528.15,-2327.5 118.15,-2327.5"/>
<text text-anchor="start" x="129.15" y="-2347.7" font-family="Helvetica,sans-Serif" font-size="32.00" fill="#29235c">datetime &#160;&#160;&#160;</text>
<text text-anchor="start" x="410.48" y="-2348.7" font-family="Helvetica,sans-Serif" font-style="italic" font-size="32.00" fill="#29235c">varchar</text>
<polygon fill="#e7e2dd" stroke="transparent" points="118.15,-2267.5 118.15,-2327.5 528.15,-2327.5 528.15,-2267.5 118.15,-2267.5"/>
<polygon fill="none" stroke="#29235c" points="118.15,-2267.5 118.15,-2327.5 528.15,-2327.5 528.15,-2267.5 118.15,-2267.5"/>
<text text-anchor="start" x="129.15" y="-2287.7" font-family="Helvetica,sans-Serif" font-size="32.00" fill="#29235c">timestamp &#160;&#160;&#160;</text>
<text text-anchor="start" x="410.48" y="-2288.7" font-family="Helvetica,sans-Serif" font-style="italic" font-size="32.00" fill="#29235c">varchar</text>
<polygon fill="#e7e2dd" stroke="transparent" points="118.15,-2207.5 118.15,-2267.5 528.15,-2267.5 528.15,-2207.5 118.15,-2207.5"/>
<polygon fill="none" stroke="#29235c" points="118.15,-2207.5 118.15,-2267.5 528.15,-2267.5 528.15,-2207.5 118.15,-2207.5"/>
<text text-anchor="start" x="129.15" y="-2227.7" font-family="Helvetica,sans-Serif" font-size="32.00" fill="#29235c">flow_id &#160;&#160;&#160;</text>
<text text-anchor="start" x="410.48" y="-2228.7" font-family="Helvetica,sans-Serif" font-style="italic" font-size="32.00" fill="#29235c">varchar</text>
<polygon fill="#e7e2dd" stroke="transparent" points="118.15,-2147.5 118.15,-2207.5 528.15,-2207.5 528.15,-2147.5 118.15,-2147.5"/>
<polygon fill="none" stroke="#29235c" points="118.15,-2147.5 118.15,-2207.5 528.15,-2207.5 528.15,-2147.5 118.15,-2147.5"/>
<text text-anchor="start" x="128.78" y="-2167.7" font-family="Helvetica,sans-Serif" font-size="32.00" fill="#29235c">flow_message_id &#160;&#160;&#160;</text>
<text text-anchor="start" x="410.81" y="-2168.7" font-family="Helvetica,sans-Serif" font-style="italic" font-size="32.00" fill="#29235c">varchar</text>
<polygon fill="#e7e2dd" stroke="transparent" points="118.15,-2087.5 118.15,-2147.5 528.15,-2147.5 528.15,-2087.5 118.15,-2087.5"/>
<polygon fill="none" stroke="#29235c" points="118.15,-2087.5 118.15,-2147.5 528.15,-2147.5 528.15,-2087.5 118.15,-2087.5"/>
<text text-anchor="start" x="129.15" y="-2107.7" font-family="Helvetica,sans-Serif" font-size="32.00" fill="#29235c">id &#160;&#160;&#160;</text>
<text text-anchor="start" x="410.48" y="-2108.7" font-family="Helvetica,sans-Serif" font-style="italic" font-size="32.00" fill="#29235c">varchar</text>
<polygon fill="#e7e2dd" stroke="transparent" points="118.15,-2027.5 118.15,-2087.5 528.15,-2087.5 528.15,-2027.5 118.15,-2027.5"/>
<polygon fill="none" stroke="#29235c" points="118.15,-2027.5 118.15,-2087.5 528.15,-2087.5 528.15,-2027.5 118.15,-2027.5"/>
<text text-anchor="start" x="129.15" y="-2047.7" font-family="Helvetica,sans-Serif" font-size="32.00" fill="#29235c">metric_id &#160;&#160;&#160;</text>
<text text-anchor="start" x="410.48" y="-2048.7" font-family="Helvetica,sans-Serif" font-style="italic" font-size="32.00" fill="#29235c">varchar</text>
<polygon fill="#e7e2dd" stroke="transparent" points="118.15,-1967.5 118.15,-2027.5 528.15,-2027.5 528.15,-1967.5 118.15,-1967.5"/>
<polygon fill="none" stroke="#29235c" points="118.15,-1967.5 118.15,-2027.5 528.15,-2027.5 528.15,-1967.5 118.15,-1967.5"/>
<text text-anchor="start" x="129.15" y="-1987.7" font-family="Helvetica,sans-Serif" font-size="32.00" fill="#29235c">person_id &#160;&#160;&#160;</text>
<text text-anchor="start" x="410.48" y="-1988.7" font-family="Helvetica,sans-Serif" font-style="italic" font-size="32.00" fill="#29235c">varchar</text>
<polygon fill="#e7e2dd" stroke="transparent" points="118.15,-1907.5 118.15,-1967.5 528.15,-1967.5 528.15,-1907.5 118.15,-1907.5"/>
<polygon fill="none" stroke="#29235c" points="118.15,-1907.5 118.15,-1967.5 528.15,-1967.5 528.15,-1907.5 118.15,-1907.5"/>
<text text-anchor="start" x="129.15" y="-1927.7" font-family="Helvetica,sans-Serif" font-size="32.00" fill="#29235c">type &#160;&#160;&#160;</text>
<text text-anchor="start" x="410.48" y="-1928.7" font-family="Helvetica,sans-Serif" font-style="italic" font-size="32.00" fill="#29235c">varchar</text>
<polygon fill="#e7e2dd" stroke="transparent" points="118.15,-1847.5 118.15,-1907.5 528.15,-1907.5 528.15,-1847.5 118.15,-1847.5"/>
<polygon fill="none" stroke="#29235c" points="118.15,-1847.5 118.15,-1907.5 528.15,-1907.5 528.15,-1847.5 118.15,-1847.5"/>
<text text-anchor="start" x="129.15" y="-1867.7" font-family="Helvetica,sans-Serif" font-size="32.00" fill="#29235c">uuid &#160;&#160;&#160;</text>
<text text-anchor="start" x="410.48" y="-1868.7" font-family="Helvetica,sans-Serif" font-style="italic" font-size="32.00" fill="#29235c">varchar</text>
<polygon fill="#e7e2dd" stroke="transparent" points="118.15,-1787.5 118.15,-1847.5 528.15,-1847.5 528.15,-1787.5 118.15,-1787.5"/>
<polygon fill="none" stroke="#29235c" points="118.15,-1787.5 118.15,-1847.5 528.15,-1847.5 528.15,-1787.5 118.15,-1787.5"/>
<text text-anchor="start" x="129.15" y="-1807.7" font-family="Helvetica,sans-Serif" font-size="32.00" fill="#29235c">property_value &#160;&#160;&#160;</text>
<text text-anchor="start" x="410.48" y="-1808.7" font-family="Helvetica,sans-Serif" font-style="italic" font-size="32.00" fill="#29235c">varchar</text>
<polygon fill="#e7e2dd" stroke="transparent" points="118.15,-1727.5 118.15,-1787.5 528.15,-1787.5 528.15,-1727.5 118.15,-1727.5"/>
<polygon fill="none" stroke="#29235c" points="118.15,-1727.5 118.15,-1787.5 528.15,-1787.5 528.15,-1727.5 118.15,-1727.5"/>
<text text-anchor="start" x="129.15" y="-1747.7" font-family="Helvetica,sans-Serif" font-size="32.00" fill="#29235c">_fivetran_deleted &#160;&#160;&#160;</text>
<text text-anchor="start" x="410.48" y="-1748.7" font-family="Helvetica,sans-Serif" font-style="italic" font-size="32.00" fill="#29235c">varchar</text>
<polygon fill="none" stroke="#29235c" stroke-width="2" points="117.15,-1726.5 117.15,-2568.5 529.15,-2568.5 529.15,-1726.5 117.15,-1726.5"/>
</g>
<!-- flow -->
<g id="flow" class="node">
<title>flow</title>
<ellipse fill="none" stroke="black" stroke-width="0" cx="323.15" cy="-3146.5" rx="291.16" ry="384.83"/>
<polygon fill="#1d71b8" stroke="transparent" points="119.15,-3356.5 119.15,-3416.5 527.15,-3416.5 527.15,-3356.5 119.15,-3356.5"/>
<polygon fill="none" stroke="#29235c" points="119.15,-3356.5 119.15,-3416.5 527.15,-3416.5 527.15,-3356.5 119.15,-3356.5"/>
<text text-anchor="start" x="232.46" y="-3377.7" font-family="Helvetica,sans-Serif" font-weight="bold" font-size="32.00" fill="#ffffff"> &#160;&#160;&#160;&#160;&#160;&#160;flow &#160;&#160;&#160;&#160;&#160;&#160;</text>
<polygon fill="#e7e2dd" stroke="transparent" points="119.15,-3296.5 119.15,-3356.5 527.15,-3356.5 527.15,-3296.5 119.15,-3296.5"/>
<polygon fill="none" stroke="#29235c" points="119.15,-3296.5 119.15,-3356.5 527.15,-3356.5 527.15,-3296.5 119.15,-3296.5"/>
<text text-anchor="start" x="130.15" y="-3316.7" font-family="Helvetica,sans-Serif" font-size="32.00" fill="#29235c">created &#160;&#160;&#160;</text>
<text text-anchor="start" x="409.48" y="-3317.7" font-family="Helvetica,sans-Serif" font-style="italic" font-size="32.00" fill="#29235c">varchar</text>
<polygon fill="#e7e2dd" stroke="transparent" points="119.15,-3236.5 119.15,-3296.5 527.15,-3296.5 527.15,-3236.5 119.15,-3236.5"/>
<polygon fill="none" stroke="#29235c" points="119.15,-3236.5 119.15,-3296.5 527.15,-3296.5 527.15,-3236.5 119.15,-3236.5"/>
<text text-anchor="start" x="130.15" y="-3256.7" font-family="Helvetica,sans-Serif" font-size="32.00" fill="#29235c">id &#160;&#160;&#160;</text>
<text text-anchor="start" x="409.48" y="-3257.7" font-family="Helvetica,sans-Serif" font-style="italic" font-size="32.00" fill="#29235c">varchar</text>
<polygon fill="#e7e2dd" stroke="transparent" points="119.15,-3176.5 119.15,-3236.5 527.15,-3236.5 527.15,-3176.5 119.15,-3176.5"/>
<polygon fill="none" stroke="#29235c" points="119.15,-3176.5 119.15,-3236.5 527.15,-3236.5 527.15,-3176.5 119.15,-3176.5"/>
<text text-anchor="start" x="130.15" y="-3196.7" font-family="Helvetica,sans-Serif" font-size="32.00" fill="#29235c">name &#160;&#160;&#160;</text>
<text text-anchor="start" x="409.48" y="-3197.7" font-family="Helvetica,sans-Serif" font-style="italic" font-size="32.00" fill="#29235c">varchar</text>
<polygon fill="#e7e2dd" stroke="transparent" points="119.15,-3116.5 119.15,-3176.5 527.15,-3176.5 527.15,-3116.5 119.15,-3116.5"/>
<polygon fill="none" stroke="#29235c" points="119.15,-3116.5 119.15,-3176.5 527.15,-3176.5 527.15,-3116.5 119.15,-3116.5"/>
<text text-anchor="start" x="130.15" y="-3136.7" font-family="Helvetica,sans-Serif" font-size="32.00" fill="#29235c">status &#160;&#160;&#160;</text>
<text text-anchor="start" x="409.48" y="-3137.7" font-family="Helvetica,sans-Serif" font-style="italic" font-size="32.00" fill="#29235c">varchar</text>
<polygon fill="#e7e2dd" stroke="transparent" points="119.15,-3056.5 119.15,-3116.5 527.15,-3116.5 527.15,-3056.5 119.15,-3056.5"/>
<polygon fill="none" stroke="#29235c" points="119.15,-3056.5 119.15,-3116.5 527.15,-3116.5 527.15,-3056.5 119.15,-3056.5"/>
<text text-anchor="start" x="130.15" y="-3076.7" font-family="Helvetica,sans-Serif" font-size="32.00" fill="#29235c">updated &#160;&#160;&#160;</text>
<text text-anchor="start" x="409.48" y="-3077.7" font-family="Helvetica,sans-Serif" font-style="italic" font-size="32.00" fill="#29235c">varchar</text>
<polygon fill="#e7e2dd" stroke="transparent" points="119.15,-2996.5 119.15,-3056.5 527.15,-3056.5 527.15,-2996.5 119.15,-2996.5"/>
<polygon fill="none" stroke="#29235c" points="119.15,-2996.5 119.15,-3056.5 527.15,-3056.5 527.15,-2996.5 119.15,-2996.5"/>
<text text-anchor="start" x="130.15" y="-3016.7" font-family="Helvetica,sans-Serif" font-size="32.00" fill="#29235c">archived &#160;&#160;&#160;</text>
<text text-anchor="start" x="409.48" y="-3017.7" font-family="Helvetica,sans-Serif" font-style="italic" font-size="32.00" fill="#29235c">varchar</text>
<polygon fill="#e7e2dd" stroke="transparent" points="119.15,-2936.5 119.15,-2996.5 527.15,-2996.5 527.15,-2936.5 119.15,-2936.5"/>
<polygon fill="none" stroke="#29235c" points="119.15,-2936.5 119.15,-2996.5 527.15,-2996.5 527.15,-2936.5 119.15,-2936.5"/>
<text text-anchor="start" x="130.15" y="-2956.7" font-family="Helvetica,sans-Serif" font-size="32.00" fill="#29235c">trigger_type &#160;&#160;&#160;</text>
<text text-anchor="start" x="409.48" y="-2957.7" font-family="Helvetica,sans-Serif" font-style="italic" font-size="32.00" fill="#29235c">varchar</text>
<polygon fill="#e7e2dd" stroke="transparent" points="119.15,-2876.5 119.15,-2936.5 527.15,-2936.5 527.15,-2876.5 119.15,-2876.5"/>
<polygon fill="none" stroke="#29235c" points="119.15,-2876.5 119.15,-2936.5 527.15,-2936.5 527.15,-2876.5 119.15,-2876.5"/>
<text text-anchor="start" x="129.65" y="-2896.7" font-family="Helvetica,sans-Serif" font-size="32.00" fill="#29235c">_fivetran_deleted &#160;&#160;&#160;</text>
<text text-anchor="start" x="409.81" y="-2897.7" font-family="Helvetica,sans-Serif" font-style="italic" font-size="32.00" fill="#29235c">varchar</text>
<polygon fill="none" stroke="#29235c" stroke-width="2" points="118.15,-2875.5 118.15,-3417.5 528.15,-3417.5 528.15,-2875.5 118.15,-2875.5"/>
</g>
<!-- person -->
<g id="person" class="node">
<title>person</title>
<ellipse fill="none" stroke="black" stroke-width="0" cx="323.15" cy="-4442.5" rx="291.16" ry="893.57"/>
<polygon fill="#1d71b8" stroke="transparent" points="119.15,-5012.5 119.15,-5072.5 527.15,-5072.5 527.15,-5012.5 119.15,-5012.5"/>
<polygon fill="none" stroke="#29235c" points="119.15,-5012.5 119.15,-5072.5 527.15,-5072.5 527.15,-5012.5 119.15,-5012.5"/>
<text text-anchor="start" x="211.99" y="-5033.7" font-family="Helvetica,sans-Serif" font-weight="bold" font-size="32.00" fill="#ffffff"> &#160;&#160;&#160;&#160;&#160;&#160;person &#160;&#160;&#160;&#160;&#160;&#160;</text>
<polygon fill="#e7e2dd" stroke="transparent" points="119.15,-4952.5 119.15,-5012.5 527.15,-5012.5 527.15,-4952.5 119.15,-4952.5"/>
<polygon fill="none" stroke="#29235c" points="119.15,-4952.5 119.15,-5012.5 527.15,-5012.5 527.15,-4952.5 119.15,-4952.5"/>
<text text-anchor="start" x="130.15" y="-4972.7" font-family="Helvetica,sans-Serif" font-size="32.00" fill="#29235c">id &#160;&#160;&#160;</text>
<text text-anchor="start" x="409.48" y="-4973.7" font-family="Helvetica,sans-Serif" font-style="italic" font-size="32.00" fill="#29235c">varchar</text>
<polygon fill="#e7e2dd" stroke="transparent" points="119.15,-4892.5 119.15,-4952.5 527.15,-4952.5 527.15,-4892.5 119.15,-4892.5"/>
<polygon fill="none" stroke="#29235c" points="119.15,-4892.5 119.15,-4952.5 527.15,-4952.5 527.15,-4892.5 119.15,-4892.5"/>
<text text-anchor="start" x="130.15" y="-4912.7" font-family="Helvetica,sans-Serif" font-size="32.00" fill="#29235c">address_1 &#160;&#160;&#160;</text>
<text text-anchor="start" x="409.48" y="-4913.7" font-family="Helvetica,sans-Serif" font-style="italic" font-size="32.00" fill="#29235c">varchar</text>
<polygon fill="#e7e2dd" stroke="transparent" points="119.15,-4832.5 119.15,-4892.5 527.15,-4892.5 527.15,-4832.5 119.15,-4832.5"/>
<polygon fill="none" stroke="#29235c" points="119.15,-4832.5 119.15,-4892.5 527.15,-4892.5 527.15,-4832.5 119.15,-4832.5"/>
<text text-anchor="start" x="130.15" y="-4852.7" font-family="Helvetica,sans-Serif" font-size="32.00" fill="#29235c">address_2 &#160;&#160;&#160;</text>
<text text-anchor="start" x="409.48" y="-4853.7" font-family="Helvetica,sans-Serif" font-style="italic" font-size="32.00" fill="#29235c">varchar</text>
<polygon fill="#e7e2dd" stroke="transparent" points="119.15,-4772.5 119.15,-4832.5 527.15,-4832.5 527.15,-4772.5 119.15,-4772.5"/>
<polygon fill="none" stroke="#29235c" points="119.15,-4772.5 119.15,-4832.5 527.15,-4832.5 527.15,-4772.5 119.15,-4772.5"/>
<text text-anchor="start" x="130.15" y="-4792.7" font-family="Helvetica,sans-Serif" font-size="32.00" fill="#29235c">city &#160;&#160;&#160;</text>
<text text-anchor="start" x="409.48" y="-4793.7" font-family="Helvetica,sans-Serif" font-style="italic" font-size="32.00" fill="#29235c">varchar</text>
<polygon fill="#e7e2dd" stroke="transparent" points="119.15,-4712.5 119.15,-4772.5 527.15,-4772.5 527.15,-4712.5 119.15,-4712.5"/>
<polygon fill="none" stroke="#29235c" points="119.15,-4712.5 119.15,-4772.5 527.15,-4772.5 527.15,-4712.5 119.15,-4712.5"/>
<text text-anchor="start" x="130.15" y="-4732.7" font-family="Helvetica,sans-Serif" font-size="32.00" fill="#29235c">country &#160;&#160;&#160;</text>
<text text-anchor="start" x="409.48" y="-4733.7" font-family="Helvetica,sans-Serif" font-style="italic" font-size="32.00" fill="#29235c">varchar</text>
<polygon fill="#e7e2dd" stroke="transparent" points="119.15,-4652.5 119.15,-4712.5 527.15,-4712.5 527.15,-4652.5 119.15,-4652.5"/>
<polygon fill="none" stroke="#29235c" points="119.15,-4652.5 119.15,-4712.5 527.15,-4712.5 527.15,-4652.5 119.15,-4652.5"/>
<text text-anchor="start" x="130.15" y="-4672.7" font-family="Helvetica,sans-Serif" font-size="32.00" fill="#29235c">zip &#160;&#160;&#160;</text>
<text text-anchor="start" x="409.48" y="-4673.7" font-family="Helvetica,sans-Serif" font-style="italic" font-size="32.00" fill="#29235c">varchar</text>
<polygon fill="#e7e2dd" stroke="transparent" points="119.15,-4592.5 119.15,-4652.5 527.15,-4652.5 527.15,-4592.5 119.15,-4592.5"/>
<polygon fill="none" stroke="#29235c" points="119.15,-4592.5 119.15,-4652.5 527.15,-4652.5 527.15,-4592.5 119.15,-4592.5"/>
<text text-anchor="start" x="130.15" y="-4612.7" font-family="Helvetica,sans-Serif" font-size="32.00" fill="#29235c">created &#160;&#160;&#160;</text>
<text text-anchor="start" x="409.48" y="-4613.7" font-family="Helvetica,sans-Serif" font-style="italic" font-size="32.00" fill="#29235c">varchar</text>
<polygon fill="#e7e2dd" stroke="transparent" points="119.15,-4532.5 119.15,-4592.5 527.15,-4592.5 527.15,-4532.5 119.15,-4532.5"/>
<polygon fill="none" stroke="#29235c" points="119.15,-4532.5 119.15,-4592.5 527.15,-4592.5 527.15,-4532.5 119.15,-4532.5"/>
<text text-anchor="start" x="130.15" y="-4552.7" font-family="Helvetica,sans-Serif" font-size="32.00" fill="#29235c">email &#160;&#160;&#160;</text>
<text text-anchor="start" x="409.48" y="-4553.7" font-family="Helvetica,sans-Serif" font-style="italic" font-size="32.00" fill="#29235c">varchar</text>
<polygon fill="#e7e2dd" stroke="transparent" points="119.15,-4472.5 119.15,-4532.5 527.15,-4532.5 527.15,-4472.5 119.15,-4472.5"/>
<polygon fill="none" stroke="#29235c" points="119.15,-4472.5 119.15,-4532.5 527.15,-4532.5 527.15,-4472.5 119.15,-4472.5"/>
<text text-anchor="start" x="130.15" y="-4492.7" font-family="Helvetica,sans-Serif" font-size="32.00" fill="#29235c">first_name &#160;&#160;&#160;</text>
<text text-anchor="start" x="409.48" y="-4493.7" font-family="Helvetica,sans-Serif" font-style="italic" font-size="32.00" fill="#29235c">varchar</text>
<polygon fill="#e7e2dd" stroke="transparent" points="119.15,-4412.5 119.15,-4472.5 527.15,-4472.5 527.15,-4412.5 119.15,-4412.5"/>
<polygon fill="none" stroke="#29235c" points="119.15,-4412.5 119.15,-4472.5 527.15,-4472.5 527.15,-4412.5 119.15,-4412.5"/>
<text text-anchor="start" x="130.15" y="-4432.7" font-family="Helvetica,sans-Serif" font-size="32.00" fill="#29235c">last_name &#160;&#160;&#160;</text>
<text text-anchor="start" x="409.48" y="-4433.7" font-family="Helvetica,sans-Serif" font-style="italic" font-size="32.00" fill="#29235c">varchar</text>
<polygon fill="#e7e2dd" stroke="transparent" points="119.15,-4352.5 119.15,-4412.5 527.15,-4412.5 527.15,-4352.5 119.15,-4352.5"/>
<polygon fill="none" stroke="#29235c" points="119.15,-4352.5 119.15,-4412.5 527.15,-4412.5 527.15,-4352.5 119.15,-4352.5"/>
<text text-anchor="start" x="130.15" y="-4372.7" font-family="Helvetica,sans-Serif" font-size="32.00" fill="#29235c">latitude &#160;&#160;&#160;</text>
<text text-anchor="start" x="409.48" y="-4373.7" font-family="Helvetica,sans-Serif" font-style="italic" font-size="32.00" fill="#29235c">varchar</text>
<polygon fill="#e7e2dd" stroke="transparent" points="119.15,-4292.5 119.15,-4352.5 527.15,-4352.5 527.15,-4292.5 119.15,-4292.5"/>
<polygon fill="none" stroke="#29235c" points="119.15,-4292.5 119.15,-4352.5 527.15,-4352.5 527.15,-4292.5 119.15,-4292.5"/>
<text text-anchor="start" x="130.15" y="-4312.7" font-family="Helvetica,sans-Serif" font-size="32.00" fill="#29235c">longitude &#160;&#160;&#160;</text>
<text text-anchor="start" x="409.48" y="-4313.7" font-family="Helvetica,sans-Serif" font-style="italic" font-size="32.00" fill="#29235c">varchar</text>
<polygon fill="#e7e2dd" stroke="transparent" points="119.15,-4232.5 119.15,-4292.5 527.15,-4292.5 527.15,-4232.5 119.15,-4232.5"/>
<polygon fill="none" stroke="#29235c" points="119.15,-4232.5 119.15,-4292.5 527.15,-4292.5 527.15,-4232.5 119.15,-4232.5"/>
<text text-anchor="start" x="130.15" y="-4252.7" font-family="Helvetica,sans-Serif" font-size="32.00" fill="#29235c">organization &#160;&#160;&#160;</text>
<text text-anchor="start" x="409.48" y="-4253.7" font-family="Helvetica,sans-Serif" font-style="italic" font-size="32.00" fill="#29235c">varchar</text>
<polygon fill="#e7e2dd" stroke="transparent" points="119.15,-4172.5 119.15,-4232.5 527.15,-4232.5 527.15,-4172.5 119.15,-4172.5"/>
<polygon fill="none" stroke="#29235c" points="119.15,-4172.5 119.15,-4232.5 527.15,-4232.5 527.15,-4172.5 119.15,-4172.5"/>
<text text-anchor="start" x="130.15" y="-4192.7" font-family="Helvetica,sans-Serif" font-size="32.00" fill="#29235c">phone_number &#160;&#160;&#160;</text>
<text text-anchor="start" x="409.48" y="-4193.7" font-family="Helvetica,sans-Serif" font-style="italic" font-size="32.00" fill="#29235c">varchar</text>
<polygon fill="#e7e2dd" stroke="transparent" points="119.15,-4112.5 119.15,-4172.5 527.15,-4172.5 527.15,-4112.5 119.15,-4112.5"/>
<polygon fill="none" stroke="#29235c" points="119.15,-4112.5 119.15,-4172.5 527.15,-4172.5 527.15,-4112.5 119.15,-4112.5"/>
<text text-anchor="start" x="130.15" y="-4132.7" font-family="Helvetica,sans-Serif" font-size="32.00" fill="#29235c">region &#160;&#160;&#160;</text>
<text text-anchor="start" x="409.48" y="-4133.7" font-family="Helvetica,sans-Serif" font-style="italic" font-size="32.00" fill="#29235c">varchar</text>
<polygon fill="#e7e2dd" stroke="transparent" points="119.15,-4052.5 119.15,-4112.5 527.15,-4112.5 527.15,-4052.5 119.15,-4052.5"/>
<polygon fill="none" stroke="#29235c" points="119.15,-4052.5 119.15,-4112.5 527.15,-4112.5 527.15,-4052.5 119.15,-4052.5"/>
<text text-anchor="start" x="130.15" y="-4072.7" font-family="Helvetica,sans-Serif" font-size="32.00" fill="#29235c">timezone &#160;&#160;&#160;</text>
<text text-anchor="start" x="409.48" y="-4073.7" font-family="Helvetica,sans-Serif" font-style="italic" font-size="32.00" fill="#29235c">varchar</text>
<polygon fill="#e7e2dd" stroke="transparent" points="119.15,-3992.5 119.15,-4052.5 527.15,-4052.5 527.15,-3992.5 119.15,-3992.5"/>
<polygon fill="none" stroke="#29235c" points="119.15,-3992.5 119.15,-4052.5 527.15,-4052.5 527.15,-3992.5 119.15,-3992.5"/>
<text text-anchor="start" x="130.15" y="-4012.7" font-family="Helvetica,sans-Serif" font-size="32.00" fill="#29235c">title &#160;&#160;&#160;</text>
<text text-anchor="start" x="409.48" y="-4013.7" font-family="Helvetica,sans-Serif" font-style="italic" font-size="32.00" fill="#29235c">varchar</text>
<polygon fill="#e7e2dd" stroke="transparent" points="119.15,-3932.5 119.15,-3992.5 527.15,-3992.5 527.15,-3932.5 119.15,-3932.5"/>
<polygon fill="none" stroke="#29235c" points="119.15,-3932.5 119.15,-3992.5 527.15,-3992.5 527.15,-3932.5 119.15,-3932.5"/>
<text text-anchor="start" x="130.15" y="-3952.7" font-family="Helvetica,sans-Serif" font-size="32.00" fill="#29235c">updated &#160;&#160;&#160;</text>
<text text-anchor="start" x="409.48" y="-3953.7" font-family="Helvetica,sans-Serif" font-style="italic" font-size="32.00" fill="#29235c">varchar</text>
<polygon fill="#e7e2dd" stroke="transparent" points="119.15,-3872.5 119.15,-3932.5 527.15,-3932.5 527.15,-3872.5 119.15,-3872.5"/>
<polygon fill="none" stroke="#29235c" points="119.15,-3872.5 119.15,-3932.5 527.15,-3932.5 527.15,-3872.5 119.15,-3872.5"/>
<text text-anchor="start" x="130.15" y="-3892.7" font-family="Helvetica,sans-Serif" font-size="32.00" fill="#29235c">last_event_date &#160;&#160;&#160;</text>
<text text-anchor="start" x="409.48" y="-3893.7" font-family="Helvetica,sans-Serif" font-style="italic" font-size="32.00" fill="#29235c">varchar</text>
<polygon fill="#e7e2dd" stroke="transparent" points="119.15,-3812.5 119.15,-3872.5 527.15,-3872.5 527.15,-3812.5 119.15,-3812.5"/>
<polygon fill="none" stroke="#29235c" points="119.15,-3812.5 119.15,-3872.5 527.15,-3872.5 527.15,-3812.5 119.15,-3812.5"/>
<text text-anchor="start" x="129.65" y="-3832.7" font-family="Helvetica,sans-Serif" font-size="32.00" fill="#29235c">_fivetran_deleted &#160;&#160;&#160;</text>
<text text-anchor="start" x="409.81" y="-3833.7" font-family="Helvetica,sans-Serif" font-style="italic" font-size="32.00" fill="#29235c">varchar</text>
<polygon fill="none" stroke="#29235c" stroke-width="2" points="118.15,-3811.5 118.15,-5073.5 528.15,-5073.5 528.15,-3811.5 118.15,-3811.5"/>
</g>
<!-- metric -->
<g id="metric" class="node">
<title>metric</title>
<ellipse fill="none" stroke="black" stroke-width="0" cx="323.15" cy="-5738.5" rx="323.3" ry="384.83"/>
<polygon fill="#1d71b8" stroke="transparent" points="97.15,-5948.5 97.15,-6008.5 550.15,-6008.5 550.15,-5948.5 97.15,-5948.5"/>
<polygon fill="none" stroke="#29235c" points="97.15,-5948.5 97.15,-6008.5 550.15,-6008.5 550.15,-5948.5 97.15,-5948.5"/>
<text text-anchor="start" x="217.85" y="-5969.7" font-family="Helvetica,sans-Serif" font-weight="bold" font-size="32.00" fill="#ffffff"> &#160;&#160;&#160;&#160;&#160;&#160;metric &#160;&#160;&#160;&#160;&#160;&#160;</text>
<polygon fill="#e7e2dd" stroke="transparent" points="97.15,-5888.5 97.15,-5948.5 550.15,-5948.5 550.15,-5888.5 97.15,-5888.5"/>
<polygon fill="none" stroke="#29235c" points="97.15,-5888.5 97.15,-5948.5 550.15,-5948.5 550.15,-5888.5 97.15,-5888.5"/>
<text text-anchor="start" x="108.15" y="-5908.7" font-family="Helvetica,sans-Serif" font-size="32.00" fill="#29235c">created &#160;&#160;&#160;</text>
<text text-anchor="start" x="432.48" y="-5909.7" font-family="Helvetica,sans-Serif" font-style="italic" font-size="32.00" fill="#29235c">varchar</text>
<polygon fill="#e7e2dd" stroke="transparent" points="97.15,-5828.5 97.15,-5888.5 550.15,-5888.5 550.15,-5828.5 97.15,-5828.5"/>
<polygon fill="none" stroke="#29235c" points="97.15,-5828.5 97.15,-5888.5 550.15,-5888.5 550.15,-5828.5 97.15,-5828.5"/>
<text text-anchor="start" x="108.15" y="-5848.7" font-family="Helvetica,sans-Serif" font-size="32.00" fill="#29235c">id &#160;&#160;&#160;</text>
<text text-anchor="start" x="432.48" y="-5849.7" font-family="Helvetica,sans-Serif" font-style="italic" font-size="32.00" fill="#29235c">varchar</text>
<polygon fill="#e7e2dd" stroke="transparent" points="97.15,-5768.5 97.15,-5828.5 550.15,-5828.5 550.15,-5768.5 97.15,-5768.5"/>
<polygon fill="none" stroke="#29235c" points="97.15,-5768.5 97.15,-5828.5 550.15,-5828.5 550.15,-5768.5 97.15,-5768.5"/>
<text text-anchor="start" x="108.15" y="-5788.7" font-family="Helvetica,sans-Serif" font-size="32.00" fill="#29235c">integration_id &#160;&#160;&#160;</text>
<text text-anchor="start" x="432.48" y="-5789.7" font-family="Helvetica,sans-Serif" font-style="italic" font-size="32.00" fill="#29235c">varchar</text>
<polygon fill="#e7e2dd" stroke="transparent" points="97.15,-5708.5 97.15,-5768.5 550.15,-5768.5 550.15,-5708.5 97.15,-5708.5"/>
<polygon fill="none" stroke="#29235c" points="97.15,-5708.5 97.15,-5768.5 550.15,-5768.5 550.15,-5708.5 97.15,-5708.5"/>
<text text-anchor="start" x="108.15" y="-5728.7" font-family="Helvetica,sans-Serif" font-size="32.00" fill="#29235c">name &#160;&#160;&#160;</text>
<text text-anchor="start" x="432.48" y="-5729.7" font-family="Helvetica,sans-Serif" font-style="italic" font-size="32.00" fill="#29235c">varchar</text>
<polygon fill="#e7e2dd" stroke="transparent" points="97.15,-5648.5 97.15,-5708.5 550.15,-5708.5 550.15,-5648.5 97.15,-5648.5"/>
<polygon fill="none" stroke="#29235c" points="97.15,-5648.5 97.15,-5708.5 550.15,-5708.5 550.15,-5648.5 97.15,-5648.5"/>
<text text-anchor="start" x="108.15" y="-5668.7" font-family="Helvetica,sans-Serif" font-size="32.00" fill="#29235c">updated &#160;&#160;&#160;</text>
<text text-anchor="start" x="432.48" y="-5669.7" font-family="Helvetica,sans-Serif" font-style="italic" font-size="32.00" fill="#29235c">varchar</text>
<polygon fill="#e7e2dd" stroke="transparent" points="97.15,-5588.5 97.15,-5648.5 550.15,-5648.5 550.15,-5588.5 97.15,-5588.5"/>
<polygon fill="none" stroke="#29235c" points="97.15,-5588.5 97.15,-5648.5 550.15,-5648.5 550.15,-5588.5 97.15,-5588.5"/>
<text text-anchor="start" x="107.93" y="-5608.7" font-family="Helvetica,sans-Serif" font-size="32.00" fill="#29235c">integration_category &#160;&#160;&#160;</text>
<text text-anchor="start" x="432.81" y="-5609.7" font-family="Helvetica,sans-Serif" font-style="italic" font-size="32.00" fill="#29235c">varchar</text>
<polygon fill="#e7e2dd" stroke="transparent" points="97.15,-5528.5 97.15,-5588.5 550.15,-5588.5 550.15,-5528.5 97.15,-5528.5"/>
<polygon fill="none" stroke="#29235c" points="97.15,-5528.5 97.15,-5588.5 550.15,-5588.5 550.15,-5528.5 97.15,-5528.5"/>
<text text-anchor="start" x="108.15" y="-5548.7" font-family="Helvetica,sans-Serif" font-size="32.00" fill="#29235c">integration_name &#160;&#160;&#160;</text>
<text text-anchor="start" x="432.48" y="-5549.7" font-family="Helvetica,sans-Serif" font-style="italic" font-size="32.00" fill="#29235c">varchar</text>
<polygon fill="#e7e2dd" stroke="transparent" points="97.15,-5468.5 97.15,-5528.5 550.15,-5528.5 550.15,-5468.5 97.15,-5468.5"/>
<polygon fill="none" stroke="#29235c" points="97.15,-5468.5 97.15,-5528.5 550.15,-5528.5 550.15,-5468.5 97.15,-5468.5"/>
<text text-anchor="start" x="108.15" y="-5488.7" font-family="Helvetica,sans-Serif" font-size="32.00" fill="#29235c">_fivetran_deleted &#160;&#160;&#160;</text>
<text text-anchor="start" x="432.48" y="-5489.7" font-family="Helvetica,sans-Serif" font-style="italic" font-size="32.00" fill="#29235c">varchar</text>
<polygon fill="none" stroke="#29235c" stroke-width="2" points="95.65,-5467.5 95.65,-6009.5 550.65,-6009.5 550.65,-5467.5 95.65,-5467.5"/>
</g>
</g>
</svg>
