<?xml version="1.0" encoding="UTF-8" standalone="no"?>
<!DOCTYPE svg PUBLIC "-//W3C//DTD SVG 1.1//EN"
 "http://www.w3.org/Graphics/SVG/1.1/DTD/svg11.dtd">
<!-- Generated by graphviz version 2.47.0 (20210316.0004)
 -->
<!-- Title: dbml Pages: 1 -->
<svg width="776pt" height="6770pt"
 viewBox="0.00 0.00 775.92 6770.07" xmlns="http://www.w3.org/2000/svg" xmlns:xlink="http://www.w3.org/1999/xlink">
<g id="graph0" class="graph" transform="scale(1 1) rotate(0) translate(4 6766.07)">
<title>dbml</title>
<!-- issue_assignee -->
<g id="issue_assignee" class="node">
<title>issue_assignee</title>
<ellipse fill="none" stroke="black" stroke-width="0" cx="383.96" cy="-130.11" rx="262.17" ry="130.22"/>
<polygon fill="#1d71b8" stroke="transparent" points="200.96,-160.11 200.96,-220.11 567.96,-220.11 567.96,-160.11 200.96,-160.11"/>
<polygon fill="none" stroke="#29235c" points="200.96,-160.11 200.96,-220.11 567.96,-220.11 567.96,-160.11 200.96,-160.11"/>
<text text-anchor="start" x="211.95" y="-181.31" font-family="Helvetica,sans-Serif" font-weight="bold" font-size="32.00" fill="#ffffff"> &#160;&#160;&#160;&#160;&#160;&#160;issue_assignee &#160;&#160;&#160;&#160;&#160;&#160;</text>
<polygon fill="#e7e2dd" stroke="transparent" points="200.96,-100.11 200.96,-160.11 567.96,-160.11 567.96,-100.11 200.96,-100.11"/>
<polygon fill="none" stroke="#29235c" points="200.96,-100.11 200.96,-160.11 567.96,-160.11 567.96,-100.11 200.96,-100.11"/>
<text text-anchor="start" x="211.96" y="-120.31" font-family="Helvetica,sans-Serif" font-size="32.00" fill="#29235c">issue_id &#160;&#160;&#160;</text>
<text text-anchor="start" x="428.91" y="-121.31" font-family="Helvetica,sans-Serif" font-style="italic" font-size="32.00" fill="#29235c">unknown</text>
<polygon fill="#e7e2dd" stroke="transparent" points="200.96,-40.11 200.96,-100.11 567.96,-100.11 567.96,-40.11 200.96,-40.11"/>
<polygon fill="none" stroke="#29235c" points="200.96,-40.11 200.96,-100.11 567.96,-100.11 567.96,-40.11 200.96,-40.11"/>
<text text-anchor="start" x="211.96" y="-60.31" font-family="Helvetica,sans-Serif" font-size="32.00" fill="#29235c">user_id &#160;&#160;&#160;</text>
<text text-anchor="start" x="428.91" y="-61.31" font-family="Helvetica,sans-Serif" font-style="italic" font-size="32.00" fill="#29235c">unknown</text>
<polygon fill="none" stroke="#29235c" stroke-width="2" points="199.46,-39.11 199.46,-221.11 568.46,-221.11 568.46,-39.11 199.46,-39.11"/>
</g>
<!-- label -->
<g id="label" class="node">
<title>label</title>
<ellipse fill="none" stroke="black" stroke-width="0" cx="383.96" cy="-620.11" rx="304.53" ry="342.48"/>
<polygon fill="#1d71b8" stroke="transparent" points="170.96,-800.11 170.96,-860.11 597.96,-860.11 597.96,-800.11 170.96,-800.11"/>
<polygon fill="none" stroke="#29235c" points="170.96,-800.11 170.96,-860.11 597.96,-860.11 597.96,-800.11 170.96,-800.11"/>
<text text-anchor="start" x="288.43" y="-821.31" font-family="Helvetica,sans-Serif" font-weight="bold" font-size="32.00" fill="#ffffff"> &#160;&#160;&#160;&#160;&#160;&#160;label &#160;&#160;&#160;&#160;&#160;&#160;</text>
<polygon fill="#e7e2dd" stroke="transparent" points="170.96,-740.11 170.96,-800.11 597.96,-800.11 597.96,-740.11 170.96,-740.11"/>
<polygon fill="none" stroke="#29235c" points="170.96,-740.11 170.96,-800.11 597.96,-800.11 597.96,-740.11 170.96,-740.11"/>
<text text-anchor="start" x="181.96" y="-760.31" font-family="Helvetica,sans-Serif" font-size="32.00" fill="#29235c">id &#160;&#160;&#160;</text>
<text text-anchor="start" x="458.91" y="-761.31" font-family="Helvetica,sans-Serif" font-style="italic" font-size="32.00" fill="#29235c">unknown</text>
<polygon fill="#e7e2dd" stroke="transparent" points="170.96,-680.11 170.96,-740.11 597.96,-740.11 597.96,-680.11 170.96,-680.11"/>
<polygon fill="none" stroke="#29235c" points="170.96,-680.11 170.96,-740.11 597.96,-740.11 597.96,-680.11 170.96,-680.11"/>
<text text-anchor="start" x="181.75" y="-700.31" font-family="Helvetica,sans-Serif" font-size="32.00" fill="#29235c">_fivetran_synced &#160;&#160;&#160;</text>
<text text-anchor="start" x="458.94" y="-701.31" font-family="Helvetica,sans-Serif" font-style="italic" font-size="32.00" fill="#29235c">unknown</text>
<polygon fill="#e7e2dd" stroke="transparent" points="170.96,-620.11 170.96,-680.11 597.96,-680.11 597.96,-620.11 170.96,-620.11"/>
<polygon fill="none" stroke="#29235c" points="170.96,-620.11 170.96,-680.11 597.96,-680.11 597.96,-620.11 170.96,-620.11"/>
<text text-anchor="start" x="181.96" y="-640.31" font-family="Helvetica,sans-Serif" font-size="32.00" fill="#29235c">color &#160;&#160;&#160;</text>
<text text-anchor="start" x="458.91" y="-641.31" font-family="Helvetica,sans-Serif" font-style="italic" font-size="32.00" fill="#29235c">unknown</text>
<polygon fill="#e7e2dd" stroke="transparent" points="170.96,-560.11 170.96,-620.11 597.96,-620.11 597.96,-560.11 170.96,-560.11"/>
<polygon fill="none" stroke="#29235c" points="170.96,-560.11 170.96,-620.11 597.96,-620.11 597.96,-560.11 170.96,-560.11"/>
<text text-anchor="start" x="181.96" y="-580.31" font-family="Helvetica,sans-Serif" font-size="32.00" fill="#29235c">description &#160;&#160;&#160;</text>
<text text-anchor="start" x="458.91" y="-581.31" font-family="Helvetica,sans-Serif" font-style="italic" font-size="32.00" fill="#29235c">unknown</text>
<polygon fill="#e7e2dd" stroke="transparent" points="170.96,-500.11 170.96,-560.11 597.96,-560.11 597.96,-500.11 170.96,-500.11"/>
<polygon fill="none" stroke="#29235c" points="170.96,-500.11 170.96,-560.11 597.96,-560.11 597.96,-500.11 170.96,-500.11"/>
<text text-anchor="start" x="181.96" y="-520.31" font-family="Helvetica,sans-Serif" font-size="32.00" fill="#29235c">is_default &#160;&#160;&#160;</text>
<text text-anchor="start" x="458.91" y="-521.31" font-family="Helvetica,sans-Serif" font-style="italic" font-size="32.00" fill="#29235c">unknown</text>
<polygon fill="#e7e2dd" stroke="transparent" points="170.96,-440.11 170.96,-500.11 597.96,-500.11 597.96,-440.11 170.96,-440.11"/>
<polygon fill="none" stroke="#29235c" points="170.96,-440.11 170.96,-500.11 597.96,-500.11 597.96,-440.11 170.96,-440.11"/>
<text text-anchor="start" x="181.96" y="-460.31" font-family="Helvetica,sans-Serif" font-size="32.00" fill="#29235c">name &#160;&#160;&#160;</text>
<text text-anchor="start" x="458.91" y="-461.31" font-family="Helvetica,sans-Serif" font-style="italic" font-size="32.00" fill="#29235c">unknown</text>
<polygon fill="#e7e2dd" stroke="transparent" points="170.96,-380.11 170.96,-440.11 597.96,-440.11 597.96,-380.11 170.96,-380.11"/>
<polygon fill="none" stroke="#29235c" points="170.96,-380.11 170.96,-440.11 597.96,-440.11 597.96,-380.11 170.96,-380.11"/>
<text text-anchor="start" x="181.96" y="-400.31" font-family="Helvetica,sans-Serif" font-size="32.00" fill="#29235c">url &#160;&#160;&#160;</text>
<text text-anchor="start" x="458.91" y="-401.31" font-family="Helvetica,sans-Serif" font-style="italic" font-size="32.00" fill="#29235c">unknown</text>
<polygon fill="none" stroke="#29235c" stroke-width="2" points="169.46,-379.11 169.46,-861.11 598.46,-861.11 598.46,-379.11 169.46,-379.11"/>
</g>
<!-- issue_closed_history -->
<g id="issue_closed_history" class="node">
<title>issue_closed_history</title>
<ellipse fill="none" stroke="black" stroke-width="0" cx="383.96" cy="-1153.11" rx="316.15" ry="172.57"/>
<polygon fill="#1d71b8" stroke="transparent" points="162.96,-1213.11 162.96,-1273.11 605.96,-1273.11 605.96,-1213.11 162.96,-1213.11"/>
<polygon fill="none" stroke="#29235c" points="162.96,-1213.11 162.96,-1273.11 605.96,-1273.11 605.96,-1213.11 162.96,-1213.11"/>
<text text-anchor="start" x="173.74" y="-1234.31" font-family="Helvetica,sans-Serif" font-weight="bold" font-size="32.00" fill="#ffffff"> &#160;&#160;&#160;&#160;&#160;&#160;issue_closed_history &#160;&#160;&#160;&#160;&#160;&#160;</text>
<polygon fill="#e7e2dd" stroke="transparent" points="162.96,-1153.11 162.96,-1213.11 605.96,-1213.11 605.96,-1153.11 162.96,-1153.11"/>
<polygon fill="none" stroke="#29235c" points="162.96,-1153.11 162.96,-1213.11 605.96,-1213.11 605.96,-1153.11 162.96,-1153.11"/>
<text text-anchor="start" x="173.96" y="-1173.31" font-family="Helvetica,sans-Serif" font-size="32.00" fill="#29235c">issue_id &#160;&#160;&#160;</text>
<text text-anchor="start" x="466.91" y="-1174.31" font-family="Helvetica,sans-Serif" font-style="italic" font-size="32.00" fill="#29235c">unknown</text>
<polygon fill="#e7e2dd" stroke="transparent" points="162.96,-1093.11 162.96,-1153.11 605.96,-1153.11 605.96,-1093.11 162.96,-1093.11"/>
<polygon fill="none" stroke="#29235c" points="162.96,-1093.11 162.96,-1153.11 605.96,-1153.11 605.96,-1093.11 162.96,-1093.11"/>
<text text-anchor="start" x="173.96" y="-1113.31" font-family="Helvetica,sans-Serif" font-size="32.00" fill="#29235c">updated_at &#160;&#160;&#160;</text>
<text text-anchor="start" x="466.91" y="-1114.31" font-family="Helvetica,sans-Serif" font-style="italic" font-size="32.00" fill="#29235c">unknown</text>
<polygon fill="#e7e2dd" stroke="transparent" points="162.96,-1033.11 162.96,-1093.11 605.96,-1093.11 605.96,-1033.11 162.96,-1033.11"/>
<polygon fill="none" stroke="#29235c" points="162.96,-1033.11 162.96,-1093.11 605.96,-1093.11 605.96,-1033.11 162.96,-1033.11"/>
<text text-anchor="start" x="173.96" y="-1053.31" font-family="Helvetica,sans-Serif" font-size="32.00" fill="#29235c">closed &#160;&#160;&#160;</text>
<text text-anchor="start" x="466.91" y="-1054.31" font-family="Helvetica,sans-Serif" font-style="italic" font-size="32.00" fill="#29235c">unknown</text>
<polygon fill="none" stroke="#29235c" stroke-width="2" points="161.46,-1032.11 161.46,-1274.11 606.46,-1274.11 606.46,-1032.11 161.46,-1032.11"/>
</g>
<!-- issue_label -->
<g id="issue_label" class="node">
<title>issue_label</title>
<ellipse fill="none" stroke="black" stroke-width="0" cx="383.96" cy="-1474.11" rx="219.41" ry="130.22"/>
<polygon fill="#1d71b8" stroke="transparent" points="230.96,-1504.11 230.96,-1564.11 536.96,-1564.11 536.96,-1504.11 230.96,-1504.11"/>
<polygon fill="none" stroke="#29235c" points="230.96,-1504.11 230.96,-1564.11 536.96,-1564.11 536.96,-1504.11 230.96,-1504.11"/>
<text text-anchor="start" x="241.69" y="-1525.31" font-family="Helvetica,sans-Serif" font-weight="bold" font-size="32.00" fill="#ffffff"> &#160;&#160;&#160;&#160;&#160;&#160;issue_label &#160;&#160;&#160;&#160;&#160;&#160;</text>
<polygon fill="#e7e2dd" stroke="transparent" points="230.96,-1444.11 230.96,-1504.11 536.96,-1504.11 536.96,-1444.11 230.96,-1444.11"/>
<polygon fill="none" stroke="#29235c" points="230.96,-1444.11 230.96,-1504.11 536.96,-1504.11 536.96,-1444.11 230.96,-1444.11"/>
<text text-anchor="start" x="241.96" y="-1464.31" font-family="Helvetica,sans-Serif" font-size="32.00" fill="#29235c">issue_id &#160;&#160;&#160;</text>
<text text-anchor="start" x="397.91" y="-1465.31" font-family="Helvetica,sans-Serif" font-style="italic" font-size="32.00" fill="#29235c">unknown</text>
<polygon fill="#e7e2dd" stroke="transparent" points="230.96,-1384.11 230.96,-1444.11 536.96,-1444.11 536.96,-1384.11 230.96,-1384.11"/>
<polygon fill="none" stroke="#29235c" points="230.96,-1384.11 230.96,-1444.11 536.96,-1444.11 536.96,-1384.11 230.96,-1384.11"/>
<text text-anchor="start" x="241.96" y="-1404.31" font-family="Helvetica,sans-Serif" font-size="32.00" fill="#29235c">label_id &#160;&#160;&#160;</text>
<text text-anchor="start" x="397.91" y="-1405.31" font-family="Helvetica,sans-Serif" font-style="italic" font-size="32.00" fill="#29235c">unknown</text>
<polygon fill="none" stroke="#29235c" stroke-width="2" points="229.96,-1383.11 229.96,-1565.11 537.96,-1565.11 537.96,-1383.11 229.96,-1383.11"/>
</g>
<!-- issue_comment -->
<g id="issue_comment" class="node">
<title>issue_comment</title>
<ellipse fill="none" stroke="black" stroke-width="0" cx="383.96" cy="-1837.11" rx="264.42" ry="214.92"/>
<polygon fill="#1d71b8" stroke="transparent" points="198.96,-1927.11 198.96,-1987.11 568.96,-1987.11 568.96,-1927.11 198.96,-1927.11"/>
<polygon fill="none" stroke="#29235c" points="198.96,-1927.11 198.96,-1987.11 568.96,-1987.11 568.96,-1927.11 198.96,-1927.11"/>
<text text-anchor="start" x="209.69" y="-1948.31" font-family="Helvetica,sans-Serif" font-weight="bold" font-size="32.00" fill="#ffffff"> &#160;&#160;&#160;&#160;&#160;&#160;issue_comment &#160;&#160;&#160;&#160;&#160;&#160;</text>
<polygon fill="#e7e2dd" stroke="transparent" points="198.96,-1867.11 198.96,-1927.11 568.96,-1927.11 568.96,-1867.11 198.96,-1867.11"/>
<polygon fill="none" stroke="#29235c" points="198.96,-1867.11 198.96,-1927.11 568.96,-1927.11 568.96,-1867.11 198.96,-1867.11"/>
<text text-anchor="start" x="209.96" y="-1887.31" font-family="Helvetica,sans-Serif" font-size="32.00" fill="#29235c">id &#160;&#160;&#160;</text>
<text text-anchor="start" x="429.91" y="-1888.31" font-family="Helvetica,sans-Serif" font-style="italic" font-size="32.00" fill="#29235c">unknown</text>
<polygon fill="#e7e2dd" stroke="transparent" points="198.96,-1807.11 198.96,-1867.11 568.96,-1867.11 568.96,-1807.11 198.96,-1807.11"/>
<polygon fill="none" stroke="#29235c" points="198.96,-1807.11 198.96,-1867.11 568.96,-1867.11 568.96,-1807.11 198.96,-1807.11"/>
<text text-anchor="start" x="209.96" y="-1827.31" font-family="Helvetica,sans-Serif" font-size="32.00" fill="#29235c">issue_id &#160;&#160;&#160;</text>
<text text-anchor="start" x="429.91" y="-1828.31" font-family="Helvetica,sans-Serif" font-style="italic" font-size="32.00" fill="#29235c">unknown</text>
<polygon fill="#e7e2dd" stroke="transparent" points="198.96,-1747.11 198.96,-1807.11 568.96,-1807.11 568.96,-1747.11 198.96,-1747.11"/>
<polygon fill="none" stroke="#29235c" points="198.96,-1747.11 198.96,-1807.11 568.96,-1807.11 568.96,-1747.11 198.96,-1747.11"/>
<text text-anchor="start" x="209.96" y="-1767.31" font-family="Helvetica,sans-Serif" font-size="32.00" fill="#29235c">user_id &#160;&#160;&#160;</text>
<text text-anchor="start" x="429.91" y="-1768.31" font-family="Helvetica,sans-Serif" font-style="italic" font-size="32.00" fill="#29235c">unknown</text>
<polygon fill="#e7e2dd" stroke="transparent" points="198.96,-1687.11 198.96,-1747.11 568.96,-1747.11 568.96,-1687.11 198.96,-1687.11"/>
<polygon fill="none" stroke="#29235c" points="198.96,-1687.11 198.96,-1747.11 568.96,-1747.11 568.96,-1687.11 198.96,-1687.11"/>
<text text-anchor="start" x="209.96" y="-1707.31" font-family="Helvetica,sans-Serif" font-size="32.00" fill="#29235c">created_at &#160;&#160;&#160;</text>
<text text-anchor="start" x="429.91" y="-1708.31" font-family="Helvetica,sans-Serif" font-style="italic" font-size="32.00" fill="#29235c">unknown</text>
<polygon fill="none" stroke="#29235c" stroke-width="2" points="197.96,-1686.11 197.96,-1988.11 569.96,-1988.11 569.96,-1686.11 197.96,-1686.11"/>
</g>
<!-- issue_merged -->
<g id="issue_merged" class="node">
<title>issue_merged</title>
<ellipse fill="none" stroke="black" stroke-width="0" cx="383.96" cy="-2200.11" rx="248.39" ry="130.22"/>
<polygon fill="#1d71b8" stroke="transparent" points="210.96,-2230.11 210.96,-2290.11 557.96,-2290.11 557.96,-2230.11 210.96,-2230.11"/>
<polygon fill="none" stroke="#29235c" points="210.96,-2230.11 210.96,-2290.11 557.96,-2290.11 557.96,-2230.11 210.96,-2230.11"/>
<text text-anchor="start" x="221.75" y="-2251.31" font-family="Helvetica,sans-Serif" font-weight="bold" font-size="32.00" fill="#ffffff"> &#160;&#160;&#160;&#160;&#160;&#160;issue_merged &#160;&#160;&#160;&#160;&#160;&#160;</text>
<polygon fill="#e7e2dd" stroke="transparent" points="210.96,-2170.11 210.96,-2230.11 557.96,-2230.11 557.96,-2170.11 210.96,-2170.11"/>
<polygon fill="none" stroke="#29235c" points="210.96,-2170.11 210.96,-2230.11 557.96,-2230.11 557.96,-2170.11 210.96,-2170.11"/>
<text text-anchor="start" x="221.96" y="-2190.31" font-family="Helvetica,sans-Serif" font-size="32.00" fill="#29235c">issue_id &#160;&#160;&#160;</text>
<text text-anchor="start" x="418.91" y="-2191.31" font-family="Helvetica,sans-Serif" font-style="italic" font-size="32.00" fill="#29235c">unknown</text>
<polygon fill="#e7e2dd" stroke="transparent" points="210.96,-2110.11 210.96,-2170.11 557.96,-2170.11 557.96,-2110.11 210.96,-2110.11"/>
<polygon fill="none" stroke="#29235c" points="210.96,-2110.11 210.96,-2170.11 557.96,-2170.11 557.96,-2110.11 210.96,-2110.11"/>
<text text-anchor="start" x="221.96" y="-2130.31" font-family="Helvetica,sans-Serif" font-size="32.00" fill="#29235c">merged_at &#160;&#160;&#160;</text>
<text text-anchor="start" x="418.91" y="-2131.31" font-family="Helvetica,sans-Serif" font-style="italic" font-size="32.00" fill="#29235c">unknown</text>
<polygon fill="none" stroke="#29235c" stroke-width="2" points="209.46,-2109.11 209.46,-2291.11 558.46,-2291.11 558.46,-2109.11 209.46,-2109.11"/>
</g>
<!-- issue -->
<g id="issue" class="node">
<title>issue</title>
<ellipse fill="none" stroke="black" stroke-width="0" cx="383.96" cy="-2945.11" rx="263.09" ry="596.6"/>
<polygon fill="#1d71b8" stroke="transparent" points="199.96,-3305.11 199.96,-3365.11 567.96,-3365.11 567.96,-3305.11 199.96,-3305.11"/>
<polygon fill="none" stroke="#29235c" points="199.96,-3305.11 199.96,-3365.11 567.96,-3365.11 567.96,-3305.11 199.96,-3305.11"/>
<text text-anchor="start" x="284.37" y="-3326.31" font-family="Helvetica,sans-Serif" font-weight="bold" font-size="32.00" fill="#ffffff"> &#160;&#160;&#160;&#160;&#160;&#160;issue &#160;&#160;&#160;&#160;&#160;&#160;</text>
<polygon fill="#e7e2dd" stroke="transparent" points="199.96,-3245.11 199.96,-3305.11 567.96,-3305.11 567.96,-3245.11 199.96,-3245.11"/>
<polygon fill="none" stroke="#29235c" points="199.96,-3245.11 199.96,-3305.11 567.96,-3305.11 567.96,-3245.11 199.96,-3245.11"/>
<text text-anchor="start" x="210.96" y="-3265.31" font-family="Helvetica,sans-Serif" font-size="32.00" fill="#29235c">id &#160;&#160;&#160;</text>
<text text-anchor="start" x="428.91" y="-3266.31" font-family="Helvetica,sans-Serif" font-style="italic" font-size="32.00" fill="#29235c">unknown</text>
<polygon fill="#e7e2dd" stroke="transparent" points="199.96,-3185.11 199.96,-3245.11 567.96,-3245.11 567.96,-3185.11 199.96,-3185.11"/>
<polygon fill="none" stroke="#29235c" points="199.96,-3185.11 199.96,-3245.11 567.96,-3245.11 567.96,-3185.11 199.96,-3185.11"/>
<text text-anchor="start" x="210.96" y="-3205.31" font-family="Helvetica,sans-Serif" font-size="32.00" fill="#29235c">body &#160;&#160;&#160;</text>
<text text-anchor="start" x="428.91" y="-3206.31" font-family="Helvetica,sans-Serif" font-style="italic" font-size="32.00" fill="#29235c">unknown</text>
<polygon fill="#e7e2dd" stroke="transparent" points="199.96,-3125.11 199.96,-3185.11 567.96,-3185.11 567.96,-3125.11 199.96,-3125.11"/>
<polygon fill="none" stroke="#29235c" points="199.96,-3125.11 199.96,-3185.11 567.96,-3185.11 567.96,-3125.11 199.96,-3125.11"/>
<text text-anchor="start" x="210.96" y="-3145.31" font-family="Helvetica,sans-Serif" font-size="32.00" fill="#29235c">locked &#160;&#160;&#160;</text>
<text text-anchor="start" x="428.91" y="-3146.31" font-family="Helvetica,sans-Serif" font-style="italic" font-size="32.00" fill="#29235c">unknown</text>
<polygon fill="#e7e2dd" stroke="transparent" points="199.96,-3065.11 199.96,-3125.11 567.96,-3125.11 567.96,-3065.11 199.96,-3065.11"/>
<polygon fill="none" stroke="#29235c" points="199.96,-3065.11 199.96,-3125.11 567.96,-3125.11 567.96,-3065.11 199.96,-3065.11"/>
<text text-anchor="start" x="210.96" y="-3085.31" font-family="Helvetica,sans-Serif" font-size="32.00" fill="#29235c">closed_at &#160;&#160;&#160;</text>
<text text-anchor="start" x="428.91" y="-3086.31" font-family="Helvetica,sans-Serif" font-style="italic" font-size="32.00" fill="#29235c">unknown</text>
<polygon fill="#e7e2dd" stroke="transparent" points="199.96,-3005.11 199.96,-3065.11 567.96,-3065.11 567.96,-3005.11 199.96,-3005.11"/>
<polygon fill="none" stroke="#29235c" points="199.96,-3005.11 199.96,-3065.11 567.96,-3065.11 567.96,-3005.11 199.96,-3005.11"/>
<text text-anchor="start" x="210.96" y="-3025.31" font-family="Helvetica,sans-Serif" font-size="32.00" fill="#29235c">created_at &#160;&#160;&#160;</text>
<text text-anchor="start" x="428.91" y="-3026.31" font-family="Helvetica,sans-Serif" font-style="italic" font-size="32.00" fill="#29235c">unknown</text>
<polygon fill="#e7e2dd" stroke="transparent" points="199.96,-2945.11 199.96,-3005.11 567.96,-3005.11 567.96,-2945.11 199.96,-2945.11"/>
<polygon fill="none" stroke="#29235c" points="199.96,-2945.11 199.96,-3005.11 567.96,-3005.11 567.96,-2945.11 199.96,-2945.11"/>
<text text-anchor="start" x="210.96" y="-2965.31" font-family="Helvetica,sans-Serif" font-size="32.00" fill="#29235c">milestone_id &#160;&#160;&#160;</text>
<text text-anchor="start" x="428.91" y="-2966.31" font-family="Helvetica,sans-Serif" font-style="italic" font-size="32.00" fill="#29235c">unknown</text>
<polygon fill="#e7e2dd" stroke="transparent" points="199.96,-2885.11 199.96,-2945.11 567.96,-2945.11 567.96,-2885.11 199.96,-2885.11"/>
<polygon fill="none" stroke="#29235c" points="199.96,-2885.11 199.96,-2945.11 567.96,-2945.11 567.96,-2885.11 199.96,-2885.11"/>
<text text-anchor="start" x="210.96" y="-2905.31" font-family="Helvetica,sans-Serif" font-size="32.00" fill="#29235c">number &#160;&#160;&#160;</text>
<text text-anchor="start" x="428.91" y="-2906.31" font-family="Helvetica,sans-Serif" font-style="italic" font-size="32.00" fill="#29235c">unknown</text>
<polygon fill="#e7e2dd" stroke="transparent" points="199.96,-2825.11 199.96,-2885.11 567.96,-2885.11 567.96,-2825.11 199.96,-2825.11"/>
<polygon fill="none" stroke="#29235c" points="199.96,-2825.11 199.96,-2885.11 567.96,-2885.11 567.96,-2825.11 199.96,-2825.11"/>
<text text-anchor="start" x="210.96" y="-2845.31" font-family="Helvetica,sans-Serif" font-size="32.00" fill="#29235c">pull_request &#160;&#160;&#160;</text>
<text text-anchor="start" x="428.91" y="-2846.31" font-family="Helvetica,sans-Serif" font-style="italic" font-size="32.00" fill="#29235c">unknown</text>
<polygon fill="#e7e2dd" stroke="transparent" points="199.96,-2765.11 199.96,-2825.11 567.96,-2825.11 567.96,-2765.11 199.96,-2765.11"/>
<polygon fill="none" stroke="#29235c" points="199.96,-2765.11 199.96,-2825.11 567.96,-2825.11 567.96,-2765.11 199.96,-2765.11"/>
<text text-anchor="start" x="210.61" y="-2785.31" font-family="Helvetica,sans-Serif" font-size="32.00" fill="#29235c">repository_id &#160;&#160;&#160;</text>
<text text-anchor="start" x="428.94" y="-2786.31" font-family="Helvetica,sans-Serif" font-style="italic" font-size="32.00" fill="#29235c">unknown</text>
<polygon fill="#e7e2dd" stroke="transparent" points="199.96,-2705.11 199.96,-2765.11 567.96,-2765.11 567.96,-2705.11 199.96,-2705.11"/>
<polygon fill="none" stroke="#29235c" points="199.96,-2705.11 199.96,-2765.11 567.96,-2765.11 567.96,-2705.11 199.96,-2705.11"/>
<text text-anchor="start" x="210.96" y="-2725.31" font-family="Helvetica,sans-Serif" font-size="32.00" fill="#29235c">state &#160;&#160;&#160;</text>
<text text-anchor="start" x="428.91" y="-2726.31" font-family="Helvetica,sans-Serif" font-style="italic" font-size="32.00" fill="#29235c">unknown</text>
<polygon fill="#e7e2dd" stroke="transparent" points="199.96,-2645.11 199.96,-2705.11 567.96,-2705.11 567.96,-2645.11 199.96,-2645.11"/>
<polygon fill="none" stroke="#29235c" points="199.96,-2645.11 199.96,-2705.11 567.96,-2705.11 567.96,-2645.11 199.96,-2645.11"/>
<text text-anchor="start" x="210.96" y="-2665.31" font-family="Helvetica,sans-Serif" font-size="32.00" fill="#29235c">title &#160;&#160;&#160;</text>
<text text-anchor="start" x="428.91" y="-2666.31" font-family="Helvetica,sans-Serif" font-style="italic" font-size="32.00" fill="#29235c">unknown</text>
<polygon fill="#e7e2dd" stroke="transparent" points="199.96,-2585.11 199.96,-2645.11 567.96,-2645.11 567.96,-2585.11 199.96,-2585.11"/>
<polygon fill="none" stroke="#29235c" points="199.96,-2585.11 199.96,-2645.11 567.96,-2645.11 567.96,-2585.11 199.96,-2585.11"/>
<text text-anchor="start" x="210.96" y="-2605.31" font-family="Helvetica,sans-Serif" font-size="32.00" fill="#29235c">updated_at &#160;&#160;&#160;</text>
<text text-anchor="start" x="428.91" y="-2606.31" font-family="Helvetica,sans-Serif" font-style="italic" font-size="32.00" fill="#29235c">unknown</text>
<polygon fill="#e7e2dd" stroke="transparent" points="199.96,-2525.11 199.96,-2585.11 567.96,-2585.11 567.96,-2525.11 199.96,-2525.11"/>
<polygon fill="none" stroke="#29235c" points="199.96,-2525.11 199.96,-2585.11 567.96,-2585.11 567.96,-2525.11 199.96,-2525.11"/>
<text text-anchor="start" x="210.96" y="-2545.31" font-family="Helvetica,sans-Serif" font-size="32.00" fill="#29235c">user_id &#160;&#160;&#160;</text>
<text text-anchor="start" x="428.91" y="-2546.31" font-family="Helvetica,sans-Serif" font-style="italic" font-size="32.00" fill="#29235c">unknown</text>
<polygon fill="none" stroke="#29235c" stroke-width="2" points="198.96,-2524.11 198.96,-3366.11 568.96,-3366.11 568.96,-2524.11 198.96,-2524.11"/>
</g>
<!-- pull_request_review -->
<g id="pull_request_review" class="node">
<title>pull_request_review</title>
<ellipse fill="none" stroke="black" stroke-width="0" cx="383.96" cy="-3817.11" rx="306.77" ry="257.27"/>
<polygon fill="#1d71b8" stroke="transparent" points="168.96,-3937.11 168.96,-3997.11 598.96,-3997.11 598.96,-3937.11 168.96,-3937.11"/>
<polygon fill="none" stroke="#29235c" points="168.96,-3937.11 168.96,-3997.11 598.96,-3997.11 598.96,-3937.11 168.96,-3937.11"/>
<text text-anchor="start" x="179.46" y="-3958.31" font-family="Helvetica,sans-Serif" font-weight="bold" font-size="32.00" fill="#ffffff"> &#160;&#160;&#160;&#160;&#160;&#160;pull_request_review &#160;&#160;&#160;&#160;&#160;&#160;</text>
<polygon fill="#e7e2dd" stroke="transparent" points="168.96,-3877.11 168.96,-3937.11 598.96,-3937.11 598.96,-3877.11 168.96,-3877.11"/>
<polygon fill="none" stroke="#29235c" points="168.96,-3877.11 168.96,-3937.11 598.96,-3937.11 598.96,-3877.11 168.96,-3877.11"/>
<text text-anchor="start" x="179.96" y="-3897.31" font-family="Helvetica,sans-Serif" font-size="32.00" fill="#29235c">id &#160;&#160;&#160;</text>
<text text-anchor="start" x="459.91" y="-3898.31" font-family="Helvetica,sans-Serif" font-style="italic" font-size="32.00" fill="#29235c">unknown</text>
<polygon fill="#e7e2dd" stroke="transparent" points="168.96,-3817.11 168.96,-3877.11 598.96,-3877.11 598.96,-3817.11 168.96,-3817.11"/>
<polygon fill="none" stroke="#29235c" points="168.96,-3817.11 168.96,-3877.11 598.96,-3877.11 598.96,-3817.11 168.96,-3817.11"/>
<text text-anchor="start" x="179.96" y="-3837.31" font-family="Helvetica,sans-Serif" font-size="32.00" fill="#29235c">pull_request_id &#160;&#160;&#160;</text>
<text text-anchor="start" x="459.91" y="-3838.31" font-family="Helvetica,sans-Serif" font-style="italic" font-size="32.00" fill="#29235c">unknown</text>
<polygon fill="#e7e2dd" stroke="transparent" points="168.96,-3757.11 168.96,-3817.11 598.96,-3817.11 598.96,-3757.11 168.96,-3757.11"/>
<polygon fill="none" stroke="#29235c" points="168.96,-3757.11 168.96,-3817.11 598.96,-3817.11 598.96,-3757.11 168.96,-3757.11"/>
<text text-anchor="start" x="179.96" y="-3777.31" font-family="Helvetica,sans-Serif" font-size="32.00" fill="#29235c">submitted_at &#160;&#160;&#160;</text>
<text text-anchor="start" x="459.91" y="-3778.31" font-family="Helvetica,sans-Serif" font-style="italic" font-size="32.00" fill="#29235c">unknown</text>
<polygon fill="#e7e2dd" stroke="transparent" points="168.96,-3697.11 168.96,-3757.11 598.96,-3757.11 598.96,-3697.11 168.96,-3697.11"/>
<polygon fill="none" stroke="#29235c" points="168.96,-3697.11 168.96,-3757.11 598.96,-3757.11 598.96,-3697.11 168.96,-3697.11"/>
<text text-anchor="start" x="179.96" y="-3717.31" font-family="Helvetica,sans-Serif" font-size="32.00" fill="#29235c">state &#160;&#160;&#160;</text>
<text text-anchor="start" x="459.91" y="-3718.31" font-family="Helvetica,sans-Serif" font-style="italic" font-size="32.00" fill="#29235c">unknown</text>
<polygon fill="#e7e2dd" stroke="transparent" points="168.96,-3637.11 168.96,-3697.11 598.96,-3697.11 598.96,-3637.11 168.96,-3637.11"/>
<polygon fill="none" stroke="#29235c" points="168.96,-3637.11 168.96,-3697.11 598.96,-3697.11 598.96,-3637.11 168.96,-3637.11"/>
<text text-anchor="start" x="179.96" y="-3657.31" font-family="Helvetica,sans-Serif" font-size="32.00" fill="#29235c">user_id &#160;&#160;&#160;</text>
<text text-anchor="start" x="459.91" y="-3658.31" font-family="Helvetica,sans-Serif" font-style="italic" font-size="32.00" fill="#29235c">unknown</text>
<polygon fill="none" stroke="#29235c" stroke-width="2" points="167.96,-3636.11 167.96,-3998.11 599.96,-3998.11 599.96,-3636.11 167.96,-3636.11"/>
</g>
<!-- pull_request -->
<g id="pull_request" class="node">
<title>pull_request</title>
<ellipse fill="none" stroke="black" stroke-width="0" cx="383.96" cy="-4307.11" rx="272.47" ry="214.92"/>
<polygon fill="#1d71b8" stroke="transparent" points="193.96,-4397.11 193.96,-4457.11 574.96,-4457.11 574.96,-4397.11 193.96,-4397.11"/>
<polygon fill="none" stroke="#29235c" points="193.96,-4397.11 193.96,-4457.11 574.96,-4457.11 574.96,-4397.11 193.96,-4397.11"/>
<text text-anchor="start" x="235.07" y="-4418.31" font-family="Helvetica,sans-Serif" font-weight="bold" font-size="32.00" fill="#ffffff"> &#160;&#160;&#160;&#160;&#160;&#160;pull_request &#160;&#160;&#160;&#160;&#160;&#160;</text>
<polygon fill="#e7e2dd" stroke="transparent" points="193.96,-4337.11 193.96,-4397.11 574.96,-4397.11 574.96,-4337.11 193.96,-4337.11"/>
<polygon fill="none" stroke="#29235c" points="193.96,-4337.11 193.96,-4397.11 574.96,-4397.11 574.96,-4337.11 193.96,-4337.11"/>
<text text-anchor="start" x="204.96" y="-4357.31" font-family="Helvetica,sans-Serif" font-size="32.00" fill="#29235c">id &#160;&#160;&#160;</text>
<text text-anchor="start" x="435.91" y="-4358.31" font-family="Helvetica,sans-Serif" font-style="italic" font-size="32.00" fill="#29235c">unknown</text>
<polygon fill="#e7e2dd" stroke="transparent" points="193.96,-4277.11 193.96,-4337.11 574.96,-4337.11 574.96,-4277.11 193.96,-4277.11"/>
<polygon fill="none" stroke="#29235c" points="193.96,-4277.11 193.96,-4337.11 574.96,-4337.11 574.96,-4277.11 193.96,-4277.11"/>
<text text-anchor="start" x="204.96" y="-4297.31" font-family="Helvetica,sans-Serif" font-size="32.00" fill="#29235c">issue_id &#160;&#160;&#160;</text>
<text text-anchor="start" x="435.91" y="-4298.31" font-family="Helvetica,sans-Serif" font-style="italic" font-size="32.00" fill="#29235c">unknown</text>
<polygon fill="#e7e2dd" stroke="transparent" points="193.96,-4217.11 193.96,-4277.11 574.96,-4277.11 574.96,-4217.11 193.96,-4217.11"/>
<polygon fill="none" stroke="#29235c" points="193.96,-4217.11 193.96,-4277.11 574.96,-4277.11 574.96,-4217.11 193.96,-4217.11"/>
<text text-anchor="start" x="204.85" y="-4237.31" font-family="Helvetica,sans-Serif" font-size="32.00" fill="#29235c">head_repo_id &#160;&#160;&#160;</text>
<text text-anchor="start" x="435.94" y="-4238.31" font-family="Helvetica,sans-Serif" font-style="italic" font-size="32.00" fill="#29235c">unknown</text>
<polygon fill="#e7e2dd" stroke="transparent" points="193.96,-4157.11 193.96,-4217.11 574.96,-4217.11 574.96,-4157.11 193.96,-4157.11"/>
<polygon fill="none" stroke="#29235c" points="193.96,-4157.11 193.96,-4217.11 574.96,-4217.11 574.96,-4157.11 193.96,-4157.11"/>
<text text-anchor="start" x="204.96" y="-4177.31" font-family="Helvetica,sans-Serif" font-size="32.00" fill="#29235c">head_user_id &#160;&#160;&#160;</text>
<text text-anchor="start" x="435.91" y="-4178.31" font-family="Helvetica,sans-Serif" font-style="italic" font-size="32.00" fill="#29235c">unknown</text>
<polygon fill="none" stroke="#29235c" stroke-width="2" points="192.46,-4156.11 192.46,-4458.11 575.46,-4458.11 575.46,-4156.11 192.46,-4156.11"/>
</g>
<!-- repo_team -->
<g id="repo_team" class="node">
<title>repo_team</title>
<ellipse fill="none" stroke="black" stroke-width="0" cx="383.96" cy="-4670.11" rx="263.09" ry="130.22"/>
<polygon fill="#1d71b8" stroke="transparent" points="199.96,-4700.11 199.96,-4760.11 567.96,-4760.11 567.96,-4700.11 199.96,-4700.11"/>
<polygon fill="none" stroke="#29235c" points="199.96,-4700.11 199.96,-4760.11 567.96,-4760.11 567.96,-4700.11 199.96,-4700.11"/>
<text text-anchor="start" x="245.24" y="-4721.31" font-family="Helvetica,sans-Serif" font-weight="bold" font-size="32.00" fill="#ffffff"> &#160;&#160;&#160;&#160;&#160;&#160;repo_team &#160;&#160;&#160;&#160;&#160;&#160;</text>
<polygon fill="#e7e2dd" stroke="transparent" points="199.96,-4640.11 199.96,-4700.11 567.96,-4700.11 567.96,-4640.11 199.96,-4640.11"/>
<polygon fill="none" stroke="#29235c" points="199.96,-4640.11 199.96,-4700.11 567.96,-4700.11 567.96,-4640.11 199.96,-4640.11"/>
<text text-anchor="start" x="210.61" y="-4660.31" font-family="Helvetica,sans-Serif" font-size="32.00" fill="#29235c">repository_id &#160;&#160;&#160;</text>
<text text-anchor="start" x="428.94" y="-4661.31" font-family="Helvetica,sans-Serif" font-style="italic" font-size="32.00" fill="#29235c">unknown</text>
<polygon fill="#e7e2dd" stroke="transparent" points="199.96,-4580.11 199.96,-4640.11 567.96,-4640.11 567.96,-4580.11 199.96,-4580.11"/>
<polygon fill="none" stroke="#29235c" points="199.96,-4580.11 199.96,-4640.11 567.96,-4640.11 567.96,-4580.11 199.96,-4580.11"/>
<text text-anchor="start" x="210.96" y="-4600.31" font-family="Helvetica,sans-Serif" font-size="32.00" fill="#29235c">team_id &#160;&#160;&#160;</text>
<text text-anchor="start" x="428.91" y="-4601.31" font-family="Helvetica,sans-Serif" font-style="italic" font-size="32.00" fill="#29235c">unknown</text>
<polygon fill="none" stroke="#29235c" stroke-width="2" points="198.96,-4579.11 198.96,-4761.11 568.96,-4761.11 568.96,-4579.11 198.96,-4579.11"/>
</g>
<!-- repository -->
<g id="repository" class="node">
<title>repository</title>
<ellipse fill="none" stroke="black" stroke-width="0" cx="383.96" cy="-5033.11" rx="240.33" ry="214.92"/>
<polygon fill="#1d71b8" stroke="transparent" points="215.96,-5123.11 215.96,-5183.11 551.96,-5183.11 551.96,-5123.11 215.96,-5123.11"/>
<polygon fill="none" stroke="#29235c" points="215.96,-5123.11 215.96,-5183.11 551.96,-5183.11 551.96,-5123.11 215.96,-5123.11"/>
<text text-anchor="start" x="251.48" y="-5144.31" font-family="Helvetica,sans-Serif" font-weight="bold" font-size="32.00" fill="#ffffff"> &#160;&#160;&#160;&#160;&#160;&#160;repository &#160;&#160;&#160;&#160;&#160;&#160;</text>
<polygon fill="#e7e2dd" stroke="transparent" points="215.96,-5063.11 215.96,-5123.11 551.96,-5123.11 551.96,-5063.11 215.96,-5063.11"/>
<polygon fill="none" stroke="#29235c" points="215.96,-5063.11 215.96,-5123.11 551.96,-5123.11 551.96,-5063.11 215.96,-5063.11"/>
<text text-anchor="start" x="226.96" y="-5083.31" font-family="Helvetica,sans-Serif" font-size="32.00" fill="#29235c">id &#160;&#160;&#160;</text>
<text text-anchor="start" x="412.91" y="-5084.31" font-family="Helvetica,sans-Serif" font-style="italic" font-size="32.00" fill="#29235c">unknown</text>
<polygon fill="#e7e2dd" stroke="transparent" points="215.96,-5003.11 215.96,-5063.11 551.96,-5063.11 551.96,-5003.11 215.96,-5003.11"/>
<polygon fill="none" stroke="#29235c" points="215.96,-5003.11 215.96,-5063.11 551.96,-5063.11 551.96,-5003.11 215.96,-5003.11"/>
<text text-anchor="start" x="226.59" y="-5023.31" font-family="Helvetica,sans-Serif" font-size="32.00" fill="#29235c">created_at &#160;&#160;&#160;</text>
<text text-anchor="start" x="412.94" y="-5024.31" font-family="Helvetica,sans-Serif" font-style="italic" font-size="32.00" fill="#29235c">unknown</text>
<polygon fill="#e7e2dd" stroke="transparent" points="215.96,-4943.11 215.96,-5003.11 551.96,-5003.11 551.96,-4943.11 215.96,-4943.11"/>
<polygon fill="none" stroke="#29235c" points="215.96,-4943.11 215.96,-5003.11 551.96,-5003.11 551.96,-4943.11 215.96,-4943.11"/>
<text text-anchor="start" x="226.96" y="-4963.31" font-family="Helvetica,sans-Serif" font-size="32.00" fill="#29235c">full_name &#160;&#160;&#160;</text>
<text text-anchor="start" x="412.91" y="-4964.31" font-family="Helvetica,sans-Serif" font-style="italic" font-size="32.00" fill="#29235c">unknown</text>
<polygon fill="#e7e2dd" stroke="transparent" points="215.96,-4883.11 215.96,-4943.11 551.96,-4943.11 551.96,-4883.11 215.96,-4883.11"/>
<polygon fill="none" stroke="#29235c" points="215.96,-4883.11 215.96,-4943.11 551.96,-4943.11 551.96,-4883.11 215.96,-4883.11"/>
<text text-anchor="start" x="226.96" y="-4903.31" font-family="Helvetica,sans-Serif" font-size="32.00" fill="#29235c">private &#160;&#160;&#160;</text>
<text text-anchor="start" x="412.91" y="-4904.31" font-family="Helvetica,sans-Serif" font-style="italic" font-size="32.00" fill="#29235c">unknown</text>
<polygon fill="none" stroke="#29235c" stroke-width="2" points="214.96,-4882.11 214.96,-5184.11 552.96,-5184.11 552.96,-4882.11 214.96,-4882.11"/>
</g>
<!-- requested_reviewer_history -->
<g id="requested_reviewer_history" class="node">
<title>requested_reviewer_history</title>
<ellipse fill="none" stroke="black" stroke-width="0" cx="383.96" cy="-5481.11" rx="383.92" ry="214.92"/>
<polygon fill="#1d71b8" stroke="transparent" points="114.96,-5571.11 114.96,-5631.11 653.96,-5631.11 653.96,-5571.11 114.96,-5571.11"/>
<polygon fill="none" stroke="#29235c" points="114.96,-5571.11 114.96,-5631.11 653.96,-5631.11 653.96,-5571.11 114.96,-5571.11"/>
<text text-anchor="start" x="125.73" y="-5592.31" font-family="Helvetica,sans-Serif" font-weight="bold" font-size="32.00" fill="#ffffff"> &#160;&#160;&#160;&#160;&#160;&#160;requested_reviewer_history &#160;&#160;&#160;&#160;&#160;&#160;</text>
<polygon fill="#e7e2dd" stroke="transparent" points="114.96,-5511.11 114.96,-5571.11 653.96,-5571.11 653.96,-5511.11 114.96,-5511.11"/>
<polygon fill="none" stroke="#29235c" points="114.96,-5511.11 114.96,-5571.11 653.96,-5571.11 653.96,-5511.11 114.96,-5511.11"/>
<text text-anchor="start" x="125.96" y="-5531.31" font-family="Helvetica,sans-Serif" font-size="32.00" fill="#29235c">pull_request_id &#160;&#160;&#160;</text>
<text text-anchor="start" x="514.91" y="-5532.31" font-family="Helvetica,sans-Serif" font-style="italic" font-size="32.00" fill="#29235c">unknown</text>
<polygon fill="#e7e2dd" stroke="transparent" points="114.96,-5451.11 114.96,-5511.11 653.96,-5511.11 653.96,-5451.11 114.96,-5451.11"/>
<polygon fill="none" stroke="#29235c" points="114.96,-5451.11 114.96,-5511.11 653.96,-5511.11 653.96,-5451.11 114.96,-5451.11"/>
<text text-anchor="start" x="125.96" y="-5471.31" font-family="Helvetica,sans-Serif" font-size="32.00" fill="#29235c">created_at &#160;&#160;&#160;</text>
<text text-anchor="start" x="514.91" y="-5472.31" font-family="Helvetica,sans-Serif" font-style="italic" font-size="32.00" fill="#29235c">unknown</text>
<polygon fill="#e7e2dd" stroke="transparent" points="114.96,-5391.11 114.96,-5451.11 653.96,-5451.11 653.96,-5391.11 114.96,-5391.11"/>
<polygon fill="none" stroke="#29235c" points="114.96,-5391.11 114.96,-5451.11 653.96,-5451.11 653.96,-5391.11 114.96,-5391.11"/>
<text text-anchor="start" x="125.96" y="-5411.31" font-family="Helvetica,sans-Serif" font-size="32.00" fill="#29235c">requested_id &#160;&#160;&#160;</text>
<text text-anchor="start" x="514.91" y="-5412.31" font-family="Helvetica,sans-Serif" font-style="italic" font-size="32.00" fill="#29235c">unknown</text>
<polygon fill="#e7e2dd" stroke="transparent" points="114.96,-5331.11 114.96,-5391.11 653.96,-5391.11 653.96,-5331.11 114.96,-5331.11"/>
<polygon fill="none" stroke="#29235c" points="114.96,-5331.11 114.96,-5391.11 653.96,-5391.11 653.96,-5331.11 114.96,-5331.11"/>
<text text-anchor="start" x="125.96" y="-5351.31" font-family="Helvetica,sans-Serif" font-size="32.00" fill="#29235c">removed &#160;&#160;&#160;</text>
<text text-anchor="start" x="514.91" y="-5352.31" font-family="Helvetica,sans-Serif" font-style="italic" font-size="32.00" fill="#29235c">unknown</text>
<polygon fill="none" stroke="#29235c" stroke-width="2" points="113.46,-5330.11 113.46,-5632.11 654.46,-5632.11 654.46,-5330.11 113.46,-5330.11"/>
</g>
<!-- team -->
<g id="team" class="node">
<title>team</title>
<ellipse fill="none" stroke="black" stroke-width="0" cx="383.96" cy="-6014.11" rx="243.49" ry="299.63"/>
<polygon fill="#1d71b8" stroke="transparent" points="213.96,-6164.11 213.96,-6224.11 553.96,-6224.11 553.96,-6164.11 213.96,-6164.11"/>
<polygon fill="none" stroke="#29235c" points="213.96,-6164.11 213.96,-6224.11 553.96,-6224.11 553.96,-6164.11 213.96,-6164.11"/>
<text text-anchor="start" x="286.15" y="-6185.31" font-family="Helvetica,sans-Serif" font-weight="bold" font-size="32.00" fill="#ffffff"> &#160;&#160;&#160;&#160;&#160;&#160;team &#160;&#160;&#160;&#160;&#160;&#160;</text>
<polygon fill="#e7e2dd" stroke="transparent" points="213.96,-6104.11 213.96,-6164.11 553.96,-6164.11 553.96,-6104.11 213.96,-6104.11"/>
<polygon fill="none" stroke="#29235c" points="213.96,-6104.11 213.96,-6164.11 553.96,-6164.11 553.96,-6104.11 213.96,-6104.11"/>
<text text-anchor="start" x="224.96" y="-6124.31" font-family="Helvetica,sans-Serif" font-size="32.00" fill="#29235c">id &#160;&#160;&#160;</text>
<text text-anchor="start" x="414.91" y="-6125.31" font-family="Helvetica,sans-Serif" font-style="italic" font-size="32.00" fill="#29235c">unknown</text>
<polygon fill="#e7e2dd" stroke="transparent" points="213.96,-6044.11 213.96,-6104.11 553.96,-6104.11 553.96,-6044.11 213.96,-6044.11"/>
<polygon fill="none" stroke="#29235c" points="213.96,-6044.11 213.96,-6104.11 553.96,-6104.11 553.96,-6044.11 213.96,-6044.11"/>
<text text-anchor="start" x="224.83" y="-6064.31" font-family="Helvetica,sans-Serif" font-size="32.00" fill="#29235c">description &#160;&#160;&#160;</text>
<text text-anchor="start" x="414.94" y="-6065.31" font-family="Helvetica,sans-Serif" font-style="italic" font-size="32.00" fill="#29235c">unknown</text>
<polygon fill="#e7e2dd" stroke="transparent" points="213.96,-5984.11 213.96,-6044.11 553.96,-6044.11 553.96,-5984.11 213.96,-5984.11"/>
<polygon fill="none" stroke="#29235c" points="213.96,-5984.11 213.96,-6044.11 553.96,-6044.11 553.96,-5984.11 213.96,-5984.11"/>
<text text-anchor="start" x="224.96" y="-6004.31" font-family="Helvetica,sans-Serif" font-size="32.00" fill="#29235c">name &#160;&#160;&#160;</text>
<text text-anchor="start" x="414.91" y="-6005.31" font-family="Helvetica,sans-Serif" font-style="italic" font-size="32.00" fill="#29235c">unknown</text>
<polygon fill="#e7e2dd" stroke="transparent" points="213.96,-5924.11 213.96,-5984.11 553.96,-5984.11 553.96,-5924.11 213.96,-5924.11"/>
<polygon fill="none" stroke="#29235c" points="213.96,-5924.11 213.96,-5984.11 553.96,-5984.11 553.96,-5924.11 213.96,-5924.11"/>
<text text-anchor="start" x="224.96" y="-5944.31" font-family="Helvetica,sans-Serif" font-size="32.00" fill="#29235c">parent_id &#160;&#160;&#160;</text>
<text text-anchor="start" x="414.91" y="-5945.31" font-family="Helvetica,sans-Serif" font-style="italic" font-size="32.00" fill="#29235c">unknown</text>
<polygon fill="#e7e2dd" stroke="transparent" points="213.96,-5864.11 213.96,-5924.11 553.96,-5924.11 553.96,-5864.11 213.96,-5864.11"/>
<polygon fill="none" stroke="#29235c" points="213.96,-5864.11 213.96,-5924.11 553.96,-5924.11 553.96,-5864.11 213.96,-5864.11"/>
<text text-anchor="start" x="224.96" y="-5884.31" font-family="Helvetica,sans-Serif" font-size="32.00" fill="#29235c">privacy &#160;&#160;&#160;</text>
<text text-anchor="start" x="414.91" y="-5885.31" font-family="Helvetica,sans-Serif" font-style="italic" font-size="32.00" fill="#29235c">unknown</text>
<polygon fill="#e7e2dd" stroke="transparent" points="213.96,-5804.11 213.96,-5864.11 553.96,-5864.11 553.96,-5804.11 213.96,-5804.11"/>
<polygon fill="none" stroke="#29235c" points="213.96,-5804.11 213.96,-5864.11 553.96,-5864.11 553.96,-5804.11 213.96,-5804.11"/>
<text text-anchor="start" x="224.96" y="-5824.31" font-family="Helvetica,sans-Serif" font-size="32.00" fill="#29235c">slug &#160;&#160;&#160;</text>
<text text-anchor="start" x="414.91" y="-5825.31" font-family="Helvetica,sans-Serif" font-style="italic" font-size="32.00" fill="#29235c">unknown</text>
<polygon fill="none" stroke="#29235c" stroke-width="2" points="212.96,-5803.11 212.96,-6225.11 554.96,-6225.11 554.96,-5803.11 212.96,-5803.11"/>
</g>
<!-- user -->
<g id="user" class="node">
<title>user</title>
<ellipse fill="none" stroke="black" stroke-width="0" cx="383.96" cy="-6547.11" rx="225.63" ry="214.92"/>
<polygon fill="#1d71b8" stroke="transparent" points="226.96,-6637.11 226.96,-6697.11 541.96,-6697.11 541.96,-6637.11 226.96,-6637.11"/>
<polygon fill="none" stroke="#29235c" points="226.96,-6637.11 226.96,-6697.11 541.96,-6697.11 541.96,-6637.11 226.96,-6637.11"/>
<text text-anchor="start" x="291.09" y="-6658.31" font-family="Helvetica,sans-Serif" font-weight="bold" font-size="32.00" fill="#ffffff"> &#160;&#160;&#160;&#160;&#160;&#160;user &#160;&#160;&#160;&#160;&#160;&#160;</text>
<polygon fill="#e7e2dd" stroke="transparent" points="226.96,-6577.11 226.96,-6637.11 541.96,-6637.11 541.96,-6577.11 226.96,-6577.11"/>
<polygon fill="none" stroke="#29235c" points="226.96,-6577.11 226.96,-6637.11 541.96,-6637.11 541.96,-6577.11 226.96,-6577.11"/>
<text text-anchor="start" x="237.96" y="-6597.31" font-family="Helvetica,sans-Serif" font-size="32.00" fill="#29235c">id &#160;&#160;&#160;</text>
<text text-anchor="start" x="402.91" y="-6598.31" font-family="Helvetica,sans-Serif" font-style="italic" font-size="32.00" fill="#29235c">unknown</text>
<polygon fill="#e7e2dd" stroke="transparent" points="226.96,-6517.11 226.96,-6577.11 541.96,-6577.11 541.96,-6517.11 226.96,-6517.11"/>
<polygon fill="none" stroke="#29235c" points="226.96,-6517.11 226.96,-6577.11 541.96,-6577.11 541.96,-6517.11 226.96,-6517.11"/>
<text text-anchor="start" x="237.96" y="-6537.31" font-family="Helvetica,sans-Serif" font-size="32.00" fill="#29235c">login &#160;&#160;&#160;</text>
<text text-anchor="start" x="402.91" y="-6538.31" font-family="Helvetica,sans-Serif" font-style="italic" font-size="32.00" fill="#29235c">unknown</text>
<polygon fill="#e7e2dd" stroke="transparent" points="226.96,-6457.11 226.96,-6517.11 541.96,-6517.11 541.96,-6457.11 226.96,-6457.11"/>
<polygon fill="none" stroke="#29235c" points="226.96,-6457.11 226.96,-6517.11 541.96,-6517.11 541.96,-6457.11 226.96,-6457.11"/>
<text text-anchor="start" x="237.96" y="-6477.31" font-family="Helvetica,sans-Serif" font-size="32.00" fill="#29235c">name &#160;&#160;&#160;</text>
<text text-anchor="start" x="402.91" y="-6478.31" font-family="Helvetica,sans-Serif" font-style="italic" font-size="32.00" fill="#29235c">unknown</text>
<polygon fill="#e7e2dd" stroke="transparent" points="226.96,-6397.11 226.96,-6457.11 541.96,-6457.11 541.96,-6397.11 226.96,-6397.11"/>
<polygon fill="none" stroke="#29235c" points="226.96,-6397.11 226.96,-6457.11 541.96,-6457.11 541.96,-6397.11 226.96,-6397.11"/>
<text text-anchor="start" x="237.77" y="-6417.31" font-family="Helvetica,sans-Serif" font-size="32.00" fill="#29235c">company &#160;&#160;&#160;</text>
<text text-anchor="start" x="402.94" y="-6418.31" font-family="Helvetica,sans-Serif" font-style="italic" font-size="32.00" fill="#29235c">unknown</text>
<polygon fill="none" stroke="#29235c" stroke-width="2" points="225.46,-6396.11 225.46,-6698.11 542.46,-6698.11 542.46,-6396.11 225.46,-6396.11"/>
</g>
</g>
</svg>
